<svg width="68" height="68" viewBox="0 0 68 68" fill="none" xmlns="http://www.w3.org/2000/svg">
<path fill-rule="evenodd" clip-rule="evenodd" d="M22 25C21.4477 25 21 25.4477 21 26V34V42C21 42.5523 21.4477 43 22 43H28C29.3261 43 30.5979 42.4732 31.5355 41.5355C32.4732 40.5979 33 39.3261 33 38C33 36.6739 32.4732 35.4021 31.5355 34.4645C31.3673 34.2962 31.1882 34.1411 31 34C31.1882 33.8589 31.3673 33.7038 31.5355 33.5355C32.4732 32.5979 33 31.3261 33 30C33 28.6739 32.4732 27.4021 31.5355 26.4645C30.5979 25.5268 29.3261 25 28 25H22ZM23 35V41H28C28.7957 41 29.5587 40.6839 30.1213 40.1213C30.6839 39.5587 31 38.7957 31 38C31 37.2044 30.6839 36.4413 30.1213 35.8787C29.5587 35.3161 28.7957 35 28 35H23ZM28 33H23V27H28C28.7956 27 29.5587 27.3161 30.1213 27.8787C30.6839 28.4413 31 29.2044 31 30C31 30.7957 30.6839 31.5587 30.1213 32.1213C29.5587 32.6839 28.7957 33 28 33ZM37.3238 31.3257C38.3865 30.263 39.8278 29.666 41.3307 29.666C42.8336 29.666 44.275 30.263 45.3377 31.3257C46.4004 32.3885 46.9974 33.8298 46.9974 35.3327C46.9974 35.885 46.5497 36.3327 45.9974 36.3327H37.6641V37.9266C37.7824 38.6866 38.1369 39.3907 38.6781 39.9388C39.2344 40.5021 39.9581 40.8703 40.741 40.9882C41.5239 41.1061 42.3239 40.9674 43.0215 40.5929C43.719 40.2184 44.2766 39.6282 44.6109 38.9105C44.8441 38.4098 45.4389 38.193 45.9396 38.4262C46.4402 38.6594 46.6571 39.2542 46.4239 39.7549C45.9073 40.8641 45.0456 41.7762 43.9675 42.355C42.8895 42.9338 41.6531 43.1481 40.4432 42.9659C39.2332 42.7837 38.1148 42.2147 37.255 41.3441C36.3953 40.4735 35.8404 39.348 35.6734 38.1358C35.6672 38.0906 35.6641 38.045 35.6641 37.9993V35.3327C35.6641 33.8298 36.2611 32.3885 37.3238 31.3257ZM37.8031 34.3327H44.8584C44.6892 33.7359 44.3698 33.1863 43.9235 32.74C43.2358 32.0523 42.3032 31.666 41.3307 31.666C40.3583 31.666 39.4256 32.0523 38.738 32.74C38.2916 33.1863 37.9722 33.7359 37.8031 34.3327ZM39.3359 25C38.7837 25 38.3359 25.4477 38.3359 26C38.3359 26.5523 38.7837 27 39.3359 27H43.3359C43.8882 27 44.3359 26.5523 44.3359 26C44.3359 25.4477 43.8882 25 43.3359 25H39.3359Z" fill="url(#paint0_linear_9777_26680)"/>
<defs>
<linearGradient id="paint0_linear_9777_26680" x1="44.4203" y1="24.9981" x2="29.7807" y2="48.4482" gradientUnits="userSpaceOnUse">
<stop offset="0.367491" stop-color="#FAE8BC"/>
<stop offset="1" stop-color="#FEBAA5"/>
</linearGradient>
</defs>
</svg>
