<svg width="68" height="68" viewBox="0 0 68 68" fill="none" xmlns="http://www.w3.org/2000/svg">
<path fill-rule="evenodd" clip-rule="evenodd" d="M28.6693 24.332C26.276 24.332 24.3359 26.2721 24.3359 28.6654V39.332C24.3359 41.7253 26.276 43.6654 28.6693 43.6654H39.3359C41.7292 43.6654 43.6693 41.7253 43.6693 39.332V28.6654C43.6693 26.2721 41.7292 24.332 39.3359 24.332H28.6693ZM22.3359 28.6654C22.3359 25.1676 25.1715 22.332 28.6693 22.332H39.3359C42.8337 22.332 45.6693 25.1676 45.6693 28.6654V39.332C45.6693 42.8298 42.8337 45.6654 39.3359 45.6654H28.6693C25.1715 45.6654 22.3359 42.8298 22.3359 39.332V28.6654ZM34 31C32.3431 31 31 32.3431 31 34C31 35.6569 32.3431 37 34 37C35.6569 37 37 35.6569 37 34C37 32.3431 35.6569 31 34 31ZM29 34C29 31.2386 31.2386 29 34 29C36.7614 29 39 31.2386 39 34C39 36.7614 36.7614 39 34 39C31.2386 39 29 36.7614 29 34ZM41 28C41 27.4477 40.5523 27 40 27C39.4477 27 39 27.4477 39 28V28.001C39 28.5533 39.4477 29.001 40 29.001C40.5523 29.001 41 28.5533 41 28.001V28Z" fill="url(#paint0_linear_9777_26694)"/>
<defs>
<linearGradient id="paint0_linear_9777_26694" x1="43.3563" y1="22.3296" x2="22.3835" y2="45.6273" gradientUnits="userSpaceOnUse">
<stop offset="0.367491" stop-color="#FAE8BC"/>
<stop offset="1" stop-color="#FEBAA5"/>
</linearGradient>
</defs>
</svg>
