<?xml version="1.0" encoding="UTF-8"?>
<svg xmlns="http://www.w3.org/2000/svg" version="1.1" xmlns:xlink="http://www.w3.org/1999/xlink" viewBox="0 0 68 68">
  <defs>
    <style>
      .cls-1 {
        isolation: isolate;
      }

      .cls-2 {
        fill: url(#linear-gradient-2);
      }

      .cls-2, .cls-3 {
        stroke-width: 0px;
      }

      .cls-3 {
        fill: url(#linear-gradient);
        mix-blend-mode: multiply;
      }
    </style>
    <linearGradient id="linear-gradient" x1="24.8" y1="36" x2="31.9" y2="36" gradientUnits="userSpaceOnUse">
      <stop offset=".4" stop-color="#fae8bc"/>
      <stop offset="1" stop-color="#febaa5"/>
    </linearGradient>
    <linearGradient id="linear-gradient-2" x1="22" y1="34" x2="46" y2="34" xlink:href="#linear-gradient"/>
  </defs>
  <g class="cls-1">
    <g id="Layer_1" data-name="Layer 1">
      <g>
        <path class="cls-3" d="M30.3,38.2c.5.2,1.2.4,1.7.8l-4.6-4.7c-.4-.4-1.1-.6-1.7-.8-.4-.1-.7-.3-.8-.5l4.6,4.7c.2.2.5.4.8.5Z"/>
        <path class="cls-2" d="M34.3,22.4c3.4,0,6.1,2.8,6.1,6.2,0,1.3,0,2.6,0,3.7,0,0,.3,0,.6,0s.5,0,.7-.2c.3-.2.7-.3.9-.3.3,0,.5,0,.7.3.5.5,0,1-.9,1.4-.8.3-2,.6-2,1.6.3,1.2,1.1,2.6,2.6,3.7,1.3,1,2.1,1.1,2.5,1.1s0,0,.1,0c0,0,0,0,.1,0,0,0,.1,0,.1,0,0,.2.2,1-1.3,1.4-1.5.4-1.8.1-2.1.9-.3.8-.2,1.1-.6,1.1s-1.4-.2-2.4-.2-.9,0-1.2.2c-.9.4-2.4,2.1-4.5,2.3-2.1-.1-3.6-1.8-4.5-2.3-.3-.1-.7-.2-1.2-.2-1,0-2.1.2-2.4.2-.4,0-.3-.3-.6-1.1-.3-.8-.6-.5-2.1-.9-1.5-.4-1.3-1.2-1.3-1.4,0,0,0,0,.1,0s0,0,.1,0c0,0,0,0,.1,0,.4,0,1.3,0,2.6-1.1,1.6-1.2,2.4-2.5,2.7-3.7,0-1-1.2-1.3-2-1.6-.8-.3-1.4-.8-.9-1.4.2-.2.5-.3.7-.3.3,0,.6.1.9.3.2.1.5.2.7.2s.5,0,.6,0c0-1,0-2.4,0-3.7,0-3.4,2.8-6.2,6.2-6.2h.2Z"/>
      </g>
    </g>
  </g>
</svg>