<svg width="68" height="68" viewBox="0 0 68 68" fill="none" xmlns="http://www.w3.org/2000/svg">
<path fill-rule="evenodd" clip-rule="evenodd" d="M31.6608 23.2492C32.4146 23.086 33.1973 23 34 23C36.6949 23 39.1634 23.9691 41.0762 25.5778C39.249 27.0182 37.4818 28.1008 35.7502 28.9136C34.6092 27.0979 33.2558 25.2282 31.6608 23.2492ZM33.8786 29.6959C32.706 27.8607 31.2984 25.9528 29.6179 23.9075C26.5184 25.2552 24.1607 27.9888 23.3273 31.3261C26.8753 31.2834 30.3189 31.0055 33.8786 29.6959ZM23.0201 33.3293C26.935 33.297 30.8439 33.0122 34.9324 31.4361C35.6061 32.6148 36.1836 33.7711 36.6758 34.9234C35.3935 35.3216 34.2548 35.8162 33.214 36.3917C30.5458 37.867 28.5753 39.8541 26.5507 41.8957L26.4487 41.9986C24.3252 39.9932 23 37.1513 23 34C23 33.7748 23.0068 33.5511 23.0201 33.3293ZM36.7794 30.6389C38.6364 29.7497 40.535 28.5703 42.4919 27.0075C44.019 28.86 44.9518 31.2208 44.9982 33.798C42.5453 33.8153 40.4549 34.0321 38.6328 34.4167C38.1107 33.1624 37.4965 31.9098 36.7794 30.6389ZM39.3512 36.3114C40.9176 36.0037 42.7254 35.8223 44.8536 35.7994C44.3993 38.56 42.9173 40.9743 40.8135 42.6363C40.5255 40.4399 40.0531 38.3602 39.3512 36.3114ZM34.1818 38.1419C31.8063 39.4554 30.0535 41.208 28.0328 43.2424C29.7516 44.3544 31.8004 45 34 45C35.7767 45 37.455 44.5788 38.9406 43.8307C38.6823 41.3677 38.1968 39.0688 37.4015 36.7929C36.1832 37.1611 35.1286 37.6184 34.1818 38.1419ZM40.4039 45.3159C38.5136 46.3879 36.3283 47 34 47C26.8203 47 21 41.1797 21 34C21 26.8203 26.8203 21 34 21C41.1797 21 47 26.8203 47 34C47 38.7744 44.4263 42.9476 40.5906 45.208C40.5329 45.2502 40.4704 45.2866 40.4039 45.3159Z" fill="url(#paint0_linear_9777_26687)"/>
<defs>
<linearGradient id="paint0_linear_9777_26687" x1="44.4226" y1="20.9973" x2="21.053" y2="46.9575" gradientUnits="userSpaceOnUse">
<stop offset="0.367491" stop-color="#FAE8BC"/>
<stop offset="1" stop-color="#FEBAA5"/>
</linearGradient>
</defs>
</svg>
