<?xml version="1.0" encoding="utf-8"?>
<!-- Generator: Adobe Illustrator 27.0.0, SVG Export Plug-In . SVG Version: 6.00 Build 0)  -->
<svg version="1.1" id="Layer_1" xmlns="http://www.w3.org/2000/svg" xmlns:xlink="http://www.w3.org/1999/xlink" x="0px" y="0px"
	 viewBox="0 0 81.4 33.7" style="enable-background:new 0 0 81.4 33.7;" xml:space="preserve">
<style type="text/css">
	.st0{fill:#FFFFFF;stroke:#FFFFFF;stroke-miterlimit:10;}
	.st1{fill:#FFFFFF;}
</style>
<path class="st0" d="M14.6,14.3h2.7c0,0,0-0.1,0-0.1c-1.1,0-2.1,0-3.2,0c0,3.2-2.2,5.6-5.2,5.6s-5.2-2.4-5.2-5.6c0,0,0-0.1,0-0.1
	c-1,0-2-0.1-3-0.1H0.8c0,0.1,0,0.2,0,0.3c0,4.6,3.5,7.5,8.1,7.5c4,0,8.3-2.3,8.5-7.4L14.6,14.3L14.6,14.3z"/>
<path class="st0" d="M9.2,6.7c-4.6,0-8.3,2.7-8.4,7.4h0.1c1,0,2,0.1,3,0.1c0-2.7,1.6-5.5,5.2-5.5s5.1,3.1,5.1,5.6c0,0,0,0,0,0.1
	c1.1,0,2.1,0,3.2,0c0,0,0-0.1,0-0.1C17.4,9.7,14.1,6.7,9.2,6.7L9.2,6.7z"/>
<path class="st0" d="M22.2,7.1h-3.3l3.2,7.2c1,0,2,0,3-0.1C25.2,14.3,22.2,7.1,22.2,7.1z"/>
<path class="st0" d="M31.8,7.1l-2.9,7.1c1,0,1.9,0,2.9-0.1l3.2-7H31.8L31.8,7.1z"/>
<path class="st0" d="M28.5,15.3c-0.6,1.3-1.1,2.5-1.4,3.7h-0.1c-0.3-1.2-0.8-2.4-1.4-3.7l-0.4-1c-1,0-2,0-3,0.1l3.3,7.3h3l3.5-7.5
	c-1,0-1.9,0.1-2.9,0.1L28.5,15.3L28.5,15.3z"/>
<path class="st0" d="M37.9,7.1V14c1,0,2.1-0.1,3.1-0.1V7.1H37.9z"/>
<path class="st0" d="M39.4,5.1c1.2,0,2-0.7,2-1.6c0-0.9-0.7-1.7-1.9-1.7c-1.2,0-1.9,0.7-1.9,1.7S38.3,5.1,39.4,5.1L39.4,5.1z"/>
<path class="st0" d="M37.9,21.7H41v-7.8c-1,0-2.1,0.1-3.1,0.1V21.7z"/>
<path class="st0" d="M58.4,14.4c0,3.3-2.2,5.6-5.2,5.6s-5.2-2.4-5.2-5.6c0-0.2,0-0.5,0-0.7c-1,0-2.1,0.1-3.1,0.1c0,0.2,0,0.5,0,0.7
	c0,4.6,3.5,7.5,8.1,7.5c3.9,0,8.1-2.1,8.4-7c-1.1-0.2-2.1-0.6-3.1-1C58.4,14.1,58.4,14.2,58.4,14.4L58.4,14.4z"/>
<path class="st0" d="M53.4,6.8c-4.5,0-8,2.6-8.4,7c1,0,2.1-0.1,3.1-0.1c0.3-2.5,1.9-4.9,5.2-4.9s4.9,2.8,5.1,5.2
	c1,0.4,2.1,0.8,3.1,1c0-0.2,0-0.5,0-0.7C61.5,9.8,58.2,6.8,53.4,6.8L53.4,6.8z"/>
<path class="st0" d="M77.7,14.3c0,3.2-2.2,5.6-5.2,5.6c-2.7,0-4.6-1.9-5.1-4.5c-1.1,0-2.1,0-3.2-0.1c0.4,4.1,3.8,6.6,8.1,6.6
	s8.5-2.3,8.5-7.7c0-0.1,0-0.2,0-0.3C79.8,14,78.7,14.2,77.7,14.3L77.7,14.3z"/>
<path class="st0" d="M67.5,15.5c-0.1-0.4-0.1-0.7-0.1-1.1c0-2.8,1.6-5.6,5.2-5.6s5.1,3.1,5.1,5.6c0,0,0,0,0,0.1
	c1.1-0.2,2.1-0.3,3.2-0.4c-0.1-4.3-3.4-7.2-8.2-7.2s-8.4,2.9-8.4,7.7c0,0.3,0,0.6,0.1,0.9C65.3,15.5,66.4,15.5,67.5,15.5L67.5,15.5z
	"/>
<path class="st1" d="M50.5,26.1c4.5,2.8,9,4,13.5,3.6c3.6-0.3,7-1.9,10.6-3.6c0,0,0.1,0,0.1,0.1c0,0.1,0,0.2,0,0.2l-1.5,1.5
	c-5.4,5.3-11.2,6.6-16.7,3.6c-2-1.1-4-2.6-6-5.1c0,0,0-0.1,0-0.2C50.4,26.1,50.5,26.1,50.5,26.1L50.5,26.1L50.5,26.1z"/>
</svg>
