<?xml version="1.0" encoding="utf-8"?>
<!-- Generator: Adobe Illustrator 27.0.0, SVG Export Plug-In . SVG Version: 6.00 Build 0)  -->
<svg version="1.1" id="Layer_1" xmlns="http://www.w3.org/2000/svg" xmlns:xlink="http://www.w3.org/1999/xlink" x="0px" y="0px"
	 viewBox="0 0 107.2 45.2" style="enable-background:new 0 0 107.2 45.2;" xml:space="preserve">
<style type="text/css">
	.st0{fill:#FFD984;}
	.st1{fill:#369EF1;}
	.st2{fill:url(#SVGID_1_);}
</style>
<g>
	<path class="st0" d="M18.6,20.4c1.2,0,2.4,0,3.7,0c0-0.1,0-0.1,0-0.2c-1.4,0-2.8,0-4.2,0c0,4.4-3,7.6-6.9,7.6c-4,0-6.9-3.3-6.9-7.6
		c0,0,0-0.1,0-0.1c-1.3,0-2.6-0.1-4-0.1c-0.1,0-0.1,0-0.2,0c0,0.1,0,0.2,0,0.4c0,6.3,4.7,10.2,10.9,10.2c5.4,0,11.1-3.1,11.3-10.2
		C21.1,20.4,19.8,20.4,18.6,20.4z"/>
	<path class="st1" d="M11.3,7.2C5.2,7.2,0.3,11,0.1,17.4c0.1,0,0.1,0,0.2,0c1.2,0,2.3,0,3.5,0c-1.2,0-2.3,0-3.5,0
		c1.3,0,2.6,0.1,4,0.1c0.1-3.7,2.2-7.6,7-7.6c4.9,0,6.8,4.3,6.8,7.6c0,0,0,0.1,0,0.1c1.4,0,2.8,0,4.2,0c0-0.1,0-0.1,0-0.2
		C22.3,11.3,17.9,7.2,11.3,7.2z"/>
	<path class="st1" d="M28.8,7.8h-4.4l4.3,9.9c1.3,0,2.7,0,4-0.1L28.8,7.8z"/>
	<path class="st1" d="M41.5,7.8l-3.8,9.7c1.3,0,2.6-0.1,3.8-0.1l4.3-9.6H41.5z"/>
	<path class="st0" d="M37.1,21.9c-0.8,1.8-1.4,3.4-1.9,5.1h-0.1c-0.5-1.6-1.1-3.3-1.8-5.1l-0.5-1.4c-1.3,0-2.7,0.1-4,0.1l4.3,10h3.9
		l4.6-10.3c-1.3,0-2.6,0.1-3.8,0.1L37.1,21.9z"/>
	<path class="st1" d="M49.8,7.8v9.3c1.4,0,2.8-0.1,4.1-0.1V7.8H49.8z"/>
	<path class="st1" d="M51.7,4.9c1.6,0,2.7-1,2.6-2.2c0-1.3-1-2.3-2.5-2.3c-1.5,0-2.6,1-2.6,2.3C49.2,3.9,50.3,4.9,51.7,4.9z"/>
	<path class="st0" d="M49.8,30.5h4.1V19.9c-1.4,0-2.8,0.1-4.1,0.1V30.5z"/>
	<path class="st0" d="M77.1,20.6c0,4.5-3,7.7-6.9,7.7c-4,0-6.9-3.3-6.9-7.6c0-0.3,0-0.7,0.1-1c-1.4,0-2.8,0.1-4.2,0.1
		c0,0.3,0,0.7,0,1C59.1,27,63.9,31,70,31c5.2,0,10.8-2.9,11.3-9.6c-1.4-0.3-2.8-0.8-4.2-1.4C77.1,20.2,77.1,20.4,77.1,20.6z"/>
	<path class="st1" d="M70.4,7.3c-6,0-10.7,3.5-11.2,9.5c1.4,0,2.8-0.1,4.2-0.1c0.3-3.4,2.5-6.7,6.9-6.7c4.6,0,6.6,3.8,6.8,7.1
		c1.4,0.6,2.8,1,4.2,1.4c0-0.3,0-0.6,0-1C81.3,11.4,76.9,7.3,70.4,7.3z"/>
	<path class="st0" d="M102.9,20.5c0,4.4-3,7.6-6.9,7.6c-3.5,0-6.2-2.5-6.8-6.1c-1.4,0-2.8,0-4.2-0.2c0.6,5.5,5.1,9,10.8,9
		c5.5,0,11.3-3.2,11.3-10.5c0-0.1,0-0.3,0-0.4C105.7,20.1,104.3,20.3,102.9,20.5z"/>
	<path class="st1" d="M89.2,19.2c-0.1-0.5-0.1-1-0.1-1.5c0-3.8,2.1-7.7,7-7.7s6.8,4.3,6.8,7.6c0,0,0,0.1,0,0.1
		c1.4-0.2,2.8-0.4,4.2-0.6c-0.2-5.8-4.6-9.8-10.9-9.8c-6.3,0-11.3,3.9-11.3,10.5c0,0.4,0,0.8,0.1,1.2C86.4,19.2,87.8,19.2,89.2,19.2
		z"/>
	<g>
		<linearGradient id="SVGID_1_" gradientUnits="userSpaceOnUse" x1="61.3484" y1="40.4071" x2="105.4671" y2="40.4071">
			<stop  offset="0" style="stop-color:#F9D786"/>
			<stop  offset="0.1537" style="stop-color:#EFD48B"/>
			<stop  offset="0.2829" style="stop-color:#DFD094"/>
			<stop  offset="0.4141" style="stop-color:#C8C9A0"/>
			<stop  offset="0.595" style="stop-color:#ACC0B0"/>
			<stop  offset="0.6872" style="stop-color:#87B6C4"/>
			<stop  offset="0.796" style="stop-color:#49A9F5"/>
			<stop  offset="1" style="stop-color:#329EF1"/>
		</linearGradient>
		<path class="st2" d="M63.5,35.7c3.6,1.6,6.9,3,10.2,4c3.3,1,6.5,1.4,9.7,1.4c1.6,0,3.2-0.1,4.8-0.4c0.8-0.1,1.6-0.3,2.4-0.5
			c0.8-0.2,1.6-0.4,2.4-0.7c3.3-1,6.6-2.4,10.4-3.8l0.1,0c0.1,0,0.2,0,0.3,0.1c0,0.1,0,0.2,0,0.2c-2.7,2.6-5.8,4.8-9.3,6.4
			c-0.8,0.4-1.7,0.7-2.6,1.1c-0.9,0.3-1.8,0.6-2.7,0.8c-1.8,0.5-3.7,0.7-5.6,0.7c-3.8,0-7.6-0.9-11-2.5c-3.4-1.6-6.6-3.8-9.1-6.6
			c-0.1-0.1-0.1-0.2,0-0.3C63.3,35.7,63.4,35.7,63.5,35.7L63.5,35.7z"/>
	</g>
</g>
</svg>
