<svg xmlns="http://www.w3.org/2000/svg" xmlns:xlink="http://www.w3.org/1999/xlink" viewBox="0 0 692 692" width="692" height="692" preserveAspectRatio="xMidYMid meet" style="width: 100%; height: 100%; transform: translate3d(0px, 0px, 0px); content-visibility: visible;"><defs><clipPath id="__lottie_element_68"><rect width="692" height="692" x="0" y="0"></rect></clipPath><linearGradient id="__lottie_element_72" spreadMethod="pad" gradientUnits="userSpaceOnUse" x1="132.26699829101562" y1="-76.26699829101562" x2="-120" y2="74.66699981689453"><stop offset="0%" stop-color="rgb(237,160,145)"></stop><stop offset="28%" stop-color="rgb(239,190,158)"></stop><stop offset="56%" stop-color="rgb(238,104,127)"></stop></linearGradient><clipPath id="__lottie_element_74"><path d="M0,0 L692,0 L692,692 L0,692z"></path></clipPath><linearGradient id="__lottie_element_80" spreadMethod="pad" gradientUnits="userSpaceOnUse" x1="-88.19999694824219" y1="-21.132999420166016" x2="48" y2="17.066999435424805"><stop offset="0%" stop-color="rgb(190,177,191)"></stop><stop offset="28%" stop-color="rgb(154,152,234)"></stop><stop offset="56%" stop-color="rgb(103,108,226)"></stop></linearGradient><linearGradient id="__lottie_element_84" spreadMethod="pad" gradientUnits="userSpaceOnUse" x1="-48.53300094604492" y1="-16.735000610351562" x2="43.20000076293945" y2="28.065000534057617"><stop offset="0%" stop-color="rgb(237,160,145)"></stop><stop offset="28%" stop-color="rgb(239,190,158)"></stop><stop offset="56%" stop-color="rgb(237,160,145)"></stop></linearGradient></defs><g clip-path="url(#__lottie_element_68)"><g transform="matrix(0.9998744130134583,-0.01584896445274353,0.01584896445274353,0.9998744130134583,286.79998779296875,346)" opacity="1" style="display: block;"><g opacity="1" transform="matrix(1,0,0,1,0,0)"><path stroke="url(#__lottie_element_72)" stroke-linecap="butt" stroke-linejoin="miter" fill-opacity="0" stroke-miterlimit="4" stroke-opacity="1" stroke-width="2" d=" M56.768001556396484,86.27400207519531 C64.2040023803711,85.66600036621094 71.51399993896484,84.0530014038086 78.48300170898438,81.4800033569336 C79.60399627685547,81.07499694824219 80.71199798583984,80.65599822998047 81.81900024414062,80.18299865722656 C81.81900024414062,80.18299865722656 100.80000305175781,135.55299377441406 100.80000305175781,135.55299377441406 C83.47799682617188,141.3040008544922 65.26200103759766,144.1580047607422 46.941001892089844,143.9929962158203 C46.941001892089844,143.9929962158203 46.67499923706055,143.9929962158203 46.67499923706055,143.9929962158203 C6.386000156402588,143.9929962158203 -30.735000610351562,129.69200134277344 -57.861000061035156,103.70899963378906 C-85.49099731445312,77.25299835205078 -100.7300033569336,40.345001220703125 -100.80000305175781,-0.04800000041723251 C-100.87000274658203,-40.441001892089844 -85.75800323486328,-77.23999786376953 -58.268001556396484,-103.66899871826172 C-31.26799964904785,-129.61199951171875 5.7270002365112305,-143.99400329589844 45.90399932861328,-143.99400329589844 C45.90399932861328,-143.99400329589844 46.21200180053711,-143.99400329589844 46.21200180053711,-143.99400329589844 C64.7040023803711,-144.1439971923828 83.08599853515625,-141.24400329589844 100.56199645996094,-135.41900634765625 C100.56199645996094,-135.41900634765625 81.86100006103516,-80.91400146484375 81.86100006103516,-80.91400146484375 C70.96099853515625,-85.23300170898438 59.28799819946289,-87.4489974975586 47.50199890136719,-87.43699645996094 C-2.4179999828338623,-87.43699645996094 -38.76900100708008,-48.09000015258789 -38.76900100708008,0 C-38.76900100708008,48.09000015258789 -2.4179999828338623,86.70600128173828 47.50199890136719,86.70600128173828 C49.5629997253418,86.70600128173828 51.58100128173828,86.625 53.599998474121094,86.48999786376953 C54.60900115966797,86.43599700927734 55.61899948120117,86.3550033569336 56.599998474121094,86.27400207519531 C56.599998474121094,86.27400207519531 56.768001556396484,86.27400207519531 56.768001556396484,86.27400207519531z"></path></g></g><g clip-path="url(#__lottie_element_74)" transform="matrix(-0.9969362616539001,0.07821838557720184,-0.07821838557720184,-0.9969362616539001,1005.2508544921875,654.763916015625)" opacity="1" style="display: block;"><g transform="matrix(-1,0,0,1,462.79998779296875,410.3819885253906)" opacity="1" style="display: block;"><g opacity="1" transform="matrix(1,0,0,1,0,0)"><path stroke="url(#__lottie_element_80)" stroke-linecap="butt" stroke-linejoin="miter" fill-opacity="0" stroke-miterlimit="4" stroke-opacity="1" stroke-width="2" d=" M0,43.20000076293945 C23.858999252319336,43.20000076293945 43.20000076293945,23.858999252319336 43.20000076293945,0 C43.20000076293945,-23.858999252319336 23.858999252319336,-43.20000076293945 0,-43.20000076293945 C-23.858999252319336,-43.20000076293945 -43.20000076293945,-23.858999252319336 -43.20000076293945,0 C-43.20000076293945,23.858999252319336 -23.858999252319336,43.20000076293945 0,43.20000076293945z"></path></g></g><g transform="matrix(1,0,0,1,462.79998779296875,279.6860046386719)" opacity="1" style="display: block;"><g opacity="1" transform="matrix(1,0,0,1,0,0)"><path stroke="url(#__lottie_element_84)" stroke-linecap="butt" stroke-linejoin="miter" fill-opacity="0" stroke-miterlimit="4" stroke-opacity="1" stroke-width="2" d=" M42.46799850463867,-5.599999904632568 C42.742000579833984,-5.357999801635742 42.91699981689453,-5.021999835968018 42.95899963378906,-4.658999919891357 C42.95899963378906,-4.658999919891357 42.95899963378906,-4.658999919891357 42.95899963378906,-4.658999919891357 C43.28900146484375,-1.531999945640564 43.279998779296875,1.621999979019165 42.93199920654297,4.747000217437744 C42.88999938964844,5.110000133514404 42.71500015258789,5.446000099182129 42.441001892089844,5.688000202178955 C42.16699981689453,5.929999828338623 41.81399917602539,6.063000202178955 41.448001861572266,6.060999870300293 C41.448001861572266,6.060999870300293 14.468999862670898,6.060999870300293 14.468999862670898,6.060999870300293 C14.468999862670898,6.060999870300293 33.54999923706055,25.13599967956543 33.54999923706055,25.13599967956543 C33.80799865722656,25.39900016784668 33.96099853515625,25.746999740600586 33.97999954223633,26.114999771118164 C33.999000549316406,26.482999801635742 33.88399887084961,26.844999313354492 33.654998779296875,27.132999420166016 C31.714000701904297,29.558000564575195 29.51099967956543,31.761999130249023 27.084999084472656,33.70199966430664 C26.798999786376953,33.93600082397461 26.43400001525879,34.05500030517578 26.065000534057617,34.0359992980957 C25.695999145507812,34.016998291015625 25.347000122070312,33.86000061035156 25.086999893188477,33.59700012207031 C25.086999893188477,33.59700012207031 6.00600004196167,14.520999908447266 6.00600004196167,14.520999908447266 C6.00600004196167,14.520999908447266 6.00600004196167,41.465999603271484 6.00600004196167,41.465999603271484 C6.00600004196167,41.83100128173828 5.872000217437744,42.183998107910156 5.630000114440918,42.457000732421875 C5.388000011444092,42.72999954223633 5.053999900817871,42.904998779296875 4.691999912261963,42.95000076293945 C3.134000062942505,43.11800003051758 1.5679999589920044,43.20199966430664 0.0010000000474974513,43.20000076293945 C-1.5570000410079956,43.20199966430664 -3.115000009536743,43.11800003051758 -4.664000034332275,42.95000076293945 C-5.026000022888184,42.904998779296875 -5.360000133514404,42.72999954223633 -5.6020002365112305,42.457000732421875 C-5.843999862670898,42.183998107910156 -5.978000164031982,41.83100128173828 -5.978000164031982,41.465999603271484 C-5.978000164031982,41.465999603271484 -5.978000164031982,14.494999885559082 -5.978000164031982,14.494999885559082 C-5.978000164031982,14.494999885559082 -25.05900001525879,33.56999969482422 -25.05900001525879,33.56999969482422 C-25.316999435424805,33.83100128173828 -25.66200065612793,33.987998962402344 -26.027999877929688,34.0099983215332 C-26.393999099731445,34.03200149536133 -26.756000518798828,33.917999267578125 -27.042999267578125,33.68899917602539 C-28.263999938964844,32.71099853515625 -29.43199920654297,31.66699981689453 -30.538999557495117,30.562000274658203 C-31.645000457763672,29.45599937438965 -32.68899917602539,28.288000106811523 -33.66600036621094,27.066999435424805 C-33.89500045776367,26.77899932861328 -34.0099983215332,26.41699981689453 -33.99100112915039,26.048999786376953 C-33.97200012207031,25.680999755859375 -33.819000244140625,25.333999633789062 -33.56100082397461,25.070999145507812 C-33.56100082397461,25.070999145507812 -14.479999542236328,5.994999885559082 -14.479999542236328,5.994999885559082 C-14.479999542236328,5.994999885559082 -41.45899963378906,5.994999885559082 -41.45899963378906,5.994999885559082 C-41.82500076293945,5.997000217437744 -42.17900085449219,5.864999771118164 -42.452999114990234,5.623000144958496 C-42.72700119018555,5.38100004196167 -42.902000427246094,5.045000076293945 -42.944000244140625,4.682000160217285 C-43.2859992980957,1.5729999542236328 -43.2859992980957,-1.562999963760376 -42.944000244140625,-4.671999931335449 C-42.902000427246094,-5.034999847412109 -42.72700119018555,-5.370999813079834 -42.452999114990234,-5.61299991607666 C-42.17900085449219,-5.855000019073486 -41.82500076293945,-5.98799991607666 -41.45899963378906,-5.986000061035156 C-41.45899963378906,-5.986000061035156 -14.479999542236328,-5.986000061035156 -14.479999542236328,-5.986000061035156 C-14.479999542236328,-5.986000061035156 -33.56100082397461,-25.073999404907227 -33.56100082397461,-25.073999404907227 C-33.82099914550781,-25.33300018310547 -33.974998474121094,-25.68000030517578 -33.99399948120117,-26.04599952697754 C-34.01300048828125,-26.41200065612793 -33.89699935913086,-26.773000717163086 -33.66600036621094,-27.058000564575195 C-32.68899917602539,-28.27899932861328 -31.645000457763672,-29.445999145507812 -30.538999557495117,-30.552000045776367 C-29.433000564575195,-31.65399932861328 -28.270000457763672,-32.698001861572266 -27.055999755859375,-33.67900085449219 C-26.767000198364258,-33.909000396728516 -26.40399932861328,-34.02399826049805 -26.03499984741211,-34.00199890136719 C-25.666000366210938,-33.97999954223633 -25.319000244140625,-33.823001861572266 -25.05900001525879,-33.56100082397461 C-25.05900001525879,-33.56100082397461 -5.978000164031982,-14.484999656677246 -5.978000164031982,-14.484999656677246 C-5.978000164031982,-14.484999656677246 -5.978000164031982,-41.45600128173828 -5.978000164031982,-41.45600128173828 C-5.980999946594238,-41.823001861572266 -5.8480000495910645,-42.17900085449219 -5.605999946594238,-42.45500183105469 C-5.363999843597412,-42.73099899291992 -5.0289998054504395,-42.909000396728516 -4.664000034332275,-42.95399856567383 C-1.5579999685287476,-43.28200149536133 1.5729999542236328,-43.28200149536133 4.678999900817871,-42.95399856567383 C5.044000148773193,-42.909000396728516 5.379000186920166,-42.73099899291992 5.620999813079834,-42.45500183105469 C5.86299991607666,-42.17900085449219 5.995999813079834,-41.823001861572266 5.993000030517578,-41.45600128173828 C5.993000030517578,-41.45600128173828 5.993000030517578,-14.472000122070312 5.993000030517578,-14.472000122070312 C5.993000030517578,-14.472000122070312 25.073999404907227,-33.547000885009766 25.073999404907227,-33.547000885009766 C25.333999633789062,-33.808998107910156 25.680999755859375,-33.96699905395508 26.049999237060547,-33.98899841308594 C26.41900062561035,-34.01100158691406 26.781999588012695,-33.895999908447266 27.070999145507812,-33.66600036621094 C28.28499984741211,-32.685001373291016 29.447999954223633,-31.641000747680664 30.554000854492188,-30.538999557495117 C31.65999984741211,-29.433000564575195 32.70399856567383,-28.266000747680664 33.680999755859375,-27.045000076293945 C33.9119987487793,-26.760000228881836 34.02899932861328,-26.39900016784668 34.0099983215332,-26.033000946044922 C33.99100112915039,-25.66699981689453 33.83599853515625,-25.31999969482422 33.57600021362305,-25.06100082397461 C33.57600021362305,-25.06100082397461 14.494999885559082,-5.9730000495910645 14.494999885559082,-5.9730000495910645 C14.494999885559082,-5.9730000495910645 41.4739990234375,-5.9730000495910645 41.4739990234375,-5.9730000495910645 C41.84000015258789,-5.974999904632568 42.194000244140625,-5.8420000076293945 42.46799850463867,-5.599999904632568z"></path></g></g></g><g transform="matrix(0.5,0,0,0.5,488.375,359.75)" opacity="1" style="display: block;"><path stroke-linecap="butt" stroke-linejoin="miter" fill-opacity="0" stroke-miterlimit="4" stroke="rgb(240,198,161)" stroke-opacity="1" stroke-width="2" d=" M56.87799835205078,-42.24599838256836 C55.02299880981445,-31.139999389648438 52.41699981689453,-15.53600025177002 52.41699981689453,-15.53600025177002 C52.41699981689453,-15.53600025177002 67.08300018310547,-22.964000701904297 67.08300018310547,-22.964000701904297 C67.08300018310547,-22.964000701904297 62.051998138427734,2.1429998874664307 62.051998138427734,2.1429998874664307"></path><g opacity="1" transform="matrix(1,0,0,1,0,0)"><path stroke-linecap="butt" stroke-linejoin="miter" fill-opacity="0" stroke-miterlimit="4" stroke="rgb(240,198,161)" stroke-opacity="1" stroke-width="2" d=" M56.87799835205078,-42.24599838256836 C55.02299880981445,-31.139999389648438 52.41699981689453,-15.53600025177002 52.41699981689453,-15.53600025177002 C52.41699981689453,-15.53600025177002 67.08300018310547,-22.964000701904297 67.08300018310547,-22.964000701904297 C67.08300018310547,-22.964000701904297 62.051998138427734,2.1429998874664307 62.051998138427734,2.1429998874664307"></path></g></g><g transform="matrix(0.49081358313560486,0.0954044982790947,-0.0954044982790947,0.49081358313560486,428.27606201171875,350.8153381347656)" opacity="1" style="display: none;"><path stroke-linecap="butt" stroke-linejoin="miter" fill-opacity="0" stroke-miterlimit="4" stroke="rgb(240,198,161)" stroke-opacity="1" stroke-width="2" d=" M62.10599899291992,-48.71200180053711 C62.10599899291992,-48.71200180053711 62.10599899291992,-48.71200180053711 62.10599899291992,-48.71200180053711"></path><g opacity="1" transform="matrix(1,0,0,1,0,0)"><path stroke-linecap="butt" stroke-linejoin="miter" fill-opacity="0" stroke-miterlimit="4" stroke="rgb(240,198,161)" stroke-opacity="1" stroke-width="2" d=" M62.10599899291992,-48.71200180053711 C62.10599899291992,-48.71200180053711 62.10599899291992,-48.71200180053711 62.10599899291992,-48.71200180053711"></path></g></g><g transform="matrix(-0.05226423218846321,-0.4972609579563141,0.4972609579563141,-0.05226423218846321,423.0529479980469,498.87860107421875)" opacity="1" style="display: none;"><path stroke-linecap="butt" stroke-linejoin="miter" fill-opacity="0" stroke-miterlimit="4" stroke="rgb(240,198,161)" stroke-opacity="1" stroke-width="2" d=" M58.698001861572266,-53.143001556396484 C58.698001861572266,-53.143001556396484 58.52000045776367,-52.07699966430664 58.2239990234375,-50.30400085449219"></path><g opacity="1" transform="matrix(1,0,0,1,0,0)"><path stroke-linecap="butt" stroke-linejoin="miter" fill-opacity="0" stroke-miterlimit="4" stroke="rgb(240,198,161)" stroke-opacity="1" stroke-width="2" d=" M58.698001861572266,-53.143001556396484 C58.698001861572266,-53.143001556396484 58.52000045776367,-52.07699966430664 58.2239990234375,-50.30400085449219"></path></g></g><g transform="matrix(-0.32139381766319275,-0.3830222189426422,0.3830222189426422,-0.32139381766319275,427.2203369140625,447.6900329589844)" opacity="1" style="display: none;"><path stroke-linecap="butt" stroke-linejoin="miter" fill-opacity="0" stroke-miterlimit="4" stroke="rgb(240,198,161)" stroke-opacity="1" stroke-width="2" d=" M58.698001861572266,-53.143001556396484 C58.698001861572266,-53.143001556396484 58.698001861572266,-53.143001556396484 58.698001861572266,-53.143001556396484"></path><g opacity="1" transform="matrix(1,0,0,1,0,0)"><path stroke-linecap="butt" stroke-linejoin="miter" fill-opacity="0" stroke-miterlimit="4" stroke="rgb(240,198,161)" stroke-opacity="1" stroke-width="2" d=" M58.698001861572266,-53.143001556396484 C58.698001861572266,-53.143001556396484 58.698001861572266,-53.143001556396484 58.698001861572266,-53.143001556396484"></path></g></g><g transform="matrix(-0.25751903653144836,0.42858365178108215,-0.42858365178108215,-0.25751903653144836,404.7078857421875,234.8253936767578)" opacity="1" style="display: none;"><path stroke-linecap="butt" stroke-linejoin="miter" fill-opacity="0" stroke-miterlimit="4" stroke="rgb(240,198,161)" stroke-opacity="1" stroke-width="2" d=" M67.19200134277344,4.826000213623047 C67.1969985961914,4.863999843597412 67.1989974975586,4.883999824523926 67.1989974975586,4.883999824523926"></path><g opacity="1" transform="matrix(1,0,0,1,0,0)"><path stroke-linecap="butt" stroke-linejoin="miter" fill-opacity="0" stroke-miterlimit="4" stroke="rgb(240,198,161)" stroke-opacity="1" stroke-width="2" d=" M67.19200134277344,4.826000213623047 C67.1969985961914,4.863999843597412 67.1989974975586,4.883999824523926 67.1989974975586,4.883999824523926"></path></g></g><g transform="matrix(0.129409521818161,0.4829629063606262,-0.4829629063606262,0.129409521818161,389.2022399902344,206.94290161132812)" opacity="1" style="display: none;"><path stroke-linecap="butt" stroke-linejoin="miter" fill-opacity="0" stroke-miterlimit="4" stroke="rgb(240,198,161)" stroke-opacity="1" stroke-width="2" d=" M62.698001861572266,-8.88700008392334 C62.67399978637695,-8.845000267028809 62.6609992980957,-8.822999954223633 62.6609992980957,-8.822999954223633 M62.698001861572266,-8.88700008392334 C62.67399978637695,-8.845000267028809 62.6609992980957,-8.822999954223633 62.6609992980957,-8.822999954223633"></path><g opacity="1" transform="matrix(1,0,0,1,0,0)"><path stroke-linecap="butt" stroke-linejoin="miter" fill-opacity="0" stroke-miterlimit="4" stroke="rgb(240,198,161)" stroke-opacity="1" stroke-width="2" d=" M62.698001861572266,-8.88700008392334 C62.67399978637695,-8.845000267028809 62.6609992980957,-8.822999954223633 62.6609992980957,-8.822999954223633 M62.698001861572266,-8.88700008392334 C62.67399978637695,-8.845000267028809 62.6609992980957,-8.822999954223633 62.6609992980957,-8.822999954223633"></path></g></g><g transform="matrix(0.129409521818161,0.4829629063606262,-0.4829629063606262,0.129409521818161,398.2022399902344,425.9429016113281)" opacity="1" style="display: block;"><path stroke-linecap="butt" stroke-linejoin="miter" fill-opacity="0" stroke-miterlimit="4" stroke="rgb(240,198,161)" stroke-opacity="1" stroke-width="2" d=" M64.09700012207031,-56.87300109863281 C64.09700012207031,-56.87300109863281 54.62099838256836,-27.62700080871582 54.62099838256836,-27.62700080871582 C54.62099838256836,-27.62700080871582 72.9209976196289,-29.29400062561035 72.9209976196289,-29.29400062561035 C72.9209976196289,-29.29400062561035 66.34500122070312,-14.871000289916992 64.02400207519531,-9.779000282287598 M64.09700012207031,-56.87300109863281 C64.09700012207031,-56.87300109863281 54.62099838256836,-27.62700080871582 54.62099838256836,-27.62700080871582 C54.62099838256836,-27.62700080871582 72.9209976196289,-29.29400062561035 72.9209976196289,-29.29400062561035 C72.9209976196289,-29.29400062561035 66.34500122070312,-14.871000289916992 64.02400207519531,-9.779000282287598"></path><g opacity="1" transform="matrix(1,0,0,1,0,0)"><path stroke-linecap="butt" stroke-linejoin="miter" fill-opacity="0" stroke-miterlimit="4" stroke="rgb(240,198,161)" stroke-opacity="1" stroke-width="2" d=" M64.09700012207031,-56.87300109863281 C64.09700012207031,-56.87300109863281 54.62099838256836,-27.62700080871582 54.62099838256836,-27.62700080871582 C54.62099838256836,-27.62700080871582 72.9209976196289,-29.29400062561035 72.9209976196289,-29.29400062561035 C72.9209976196289,-29.29400062561035 66.34500122070312,-14.871000289916992 64.02400207519531,-9.779000282287598 M64.09700012207031,-56.87300109863281 C64.09700012207031,-56.87300109863281 54.62099838256836,-27.62700080871582 54.62099838256836,-27.62700080871582 C54.62099838256836,-27.62700080871582 72.9209976196289,-29.29400062561035 72.9209976196289,-29.29400062561035 C72.9209976196289,-29.29400062561035 66.34500122070312,-14.871000289916992 64.02400207519531,-9.779000282287598"></path></g></g><g transform="matrix(0.29389262199401855,0.404508501291275,-0.404508501291275,0.29389262199401855,379.37493896484375,391.32489013671875)" opacity="1" style="display: block;"><path stroke-linecap="butt" stroke-linejoin="miter" fill-opacity="0" stroke-miterlimit="4" stroke="rgb(240,198,161)" stroke-opacity="1" stroke-width="2" d=" M78.09500122070312,-25.71500015258789 C78.09500122070312,-25.71500015258789 77.5469970703125,-6.718999862670898 77.5469970703125,-6.718999862670898 C77.5469970703125,-6.718999862670898 76.63099670410156,-7.067999839782715 75.30000305175781,-7.574999809265137"></path><g opacity="1" transform="matrix(1,0,0,1,0,0)"><path stroke-linecap="butt" stroke-linejoin="miter" fill-opacity="0" stroke-miterlimit="4" stroke="rgb(240,198,161)" stroke-opacity="1" stroke-width="2" d=" M78.09500122070312,-25.71500015258789 C78.09500122070312,-25.71500015258789 77.5469970703125,-6.718999862670898 77.5469970703125,-6.718999862670898 C77.5469970703125,-6.718999862670898 76.63099670410156,-7.067999839782715 75.30000305175781,-7.574999809265137"></path></g></g><g transform="matrix(-0.0954044982790947,-0.49081358313560486,0.49081358313560486,-0.0954044982790947,438.4661560058594,248.89329528808594)" opacity="1" style="display: block;"><path stroke-linecap="butt" stroke-linejoin="miter" fill-opacity="0" stroke-miterlimit="4" stroke="rgb(240,198,161)" stroke-opacity="1" stroke-width="2" d=" M54.071998596191406,-16.374000549316406 C57.90700149536133,-18.316999435424805 67.08300018310547,-22.964000701904297 67.08300018310547,-22.964000701904297 C67.08300018310547,-22.964000701904297 62.051998138427734,2.1429998874664307 62.051998138427734,2.1429998874664307"></path><g opacity="1" transform="matrix(1,0,0,1,0,0)"><path stroke-linecap="butt" stroke-linejoin="miter" fill-opacity="0" stroke-miterlimit="4" stroke="rgb(240,198,161)" stroke-opacity="1" stroke-width="2" d=" M54.071998596191406,-16.374000549316406 C57.90700149536133,-18.316999435424805 67.08300018310547,-22.964000701904297 67.08300018310547,-22.964000701904297 C67.08300018310547,-22.964000701904297 62.051998138427734,2.1429998874664307 62.051998138427734,2.1429998874664307"></path></g></g><g transform="matrix(0.16278408467769623,-0.47275927662849426,0.47275927662849426,0.16278408467769623,399.5790100097656,291.39837646484375)" opacity="1" style="display: block;"><path stroke-linecap="butt" stroke-linejoin="miter" fill-opacity="0" stroke-miterlimit="4" stroke="rgb(240,198,161)" stroke-opacity="1" stroke-width="2" d=" M56.87799835205078,-42.24599838256836 C55.02299880981445,-31.139999389648438 52.41699981689453,-15.53600025177002 52.41699981689453,-15.53600025177002 C52.41699981689453,-15.53600025177002 67.08300018310547,-22.964000701904297 67.08300018310547,-22.964000701904297 C67.08300018310547,-22.964000701904297 62.051998138427734,2.1429998874664307 62.051998138427734,2.1429998874664307"></path><g opacity="1" transform="matrix(1,0,0,1,0,0)"><path stroke-linecap="butt" stroke-linejoin="miter" fill-opacity="0" stroke-miterlimit="4" stroke="rgb(240,198,161)" stroke-opacity="1" stroke-width="2" d=" M56.87799835205078,-42.24599838256836 C55.02299880981445,-31.139999389648438 52.41699981689453,-15.53600025177002 52.41699981689453,-15.53600025177002 C52.41699981689453,-15.53600025177002 67.08300018310547,-22.964000701904297 67.08300018310547,-22.964000701904297 C67.08300018310547,-22.964000701904297 62.051998138427734,2.1429998874664307 62.051998138427734,2.1429998874664307"></path></g></g></g></svg>