<?xml version="1.0" encoding="UTF-8" standalone="no"?>
<svg xmlns="http://www.w3.org/2000/svg" xmlns:xlink="http://www.w3.org/1999/xlink"
    viewBox="0 0 466 70" width="466" height="70" preserveAspectRatio="xMidYMid meet"
    style="width: 100%; height: 100%; transform: translate3d(0px, 0px, 0px); content-visibility: visible;">
    <defs>
        <clipPath id="__lottie_element_53">
            <rect width="466" height="70" x="0" y="0"></rect>
        </clipPath>
        <clipPath id="__lottie_element_55">
            <path d="M0,0 L466,0 L466,70 L0,70z"></path>
        </clipPath>
        <g id="__lottie_element_58">
            <g
                transform="matrix(1.9800000190734863,0,0,1.9800000190734863,1.339996337890625,0.34999847412109375)"
                opacity="1" style="display: block;">
                <g opacity="1"
                    transform="matrix(1,0,0,1,12.11400032043457,22.023000717163086)">
                    <path fill="rgb(255,255,255)" fill-opacity="1"
                        d=" M11.001999855041504,7.189000129699707 C10.076000213623047,7.189000129699707 9.625,6.736000061035156 9.623000144958496,5.804999828338623 C9.623000144958496,5.804999828338623 9.616999626159668,-4.573999881744385 9.616999626159668,-4.573999881744385 C9.616999626159668,-7.138000011444092 8.6850004196167,-9.270000457763672 6.925000190734863,-10.736000061035156 C5.165999889373779,-12.199999809265137 2.5980000495910645,-12.97700023651123 -0.5019999742507935,-12.97700023651123 C-0.5019999742507935,-12.97700023651123 -0.5139999985694885,-12.97700023651123 -0.5139999985694885,-12.97700023651123 C-4.822000026702881,-12.97700023651123 -8.520000457763672,-11.53600025177002 -11.51099967956543,-8.70199966430664 C-11.51099967956543,-8.70199966430664 -11.590999603271484,-8.628000259399414 -11.590999603271484,-8.628000259399414 C-11.590999603271484,-8.628000259399414 -7.875999927520752,-4.734000205993652 -7.875999927520752,-4.734000205993652 C-7.875999927520752,-4.734000205993652 -7.796999931335449,-4.811999797821045 -7.796999931335449,-4.811999797821045 C-5.815999984741211,-6.802000045776367 -3.4140000343322754,-7.854000091552734 -0.8410000205039978,-7.855000019073486 C-0.8410000205039978,-7.855000019073486 -0.8339999914169312,-7.855000019073486 -0.8339999914169312,-7.855000019073486 C0.5929999947547913,-7.855000019073486 1.7860000133514404,-7.585999965667725 2.61899995803833,-7.076000213623047 C3.4230000972747803,-6.5879998207092285 3.8499999046325684,-5.886000156402588 3.8499999046325684,-5.064000129699707 C3.8499999046325684,-3.4709999561309814 1.7920000553131104,-3.0869998931884766 -1.3480000495910645,-2.680000066757202 C-3.7019999027252197,-2.388000011444092 -6.392000198364258,-1.930999994277954 -8.494000434875488,-0.7429999709129333 C-10.932999610900879,0.6340000033378601 -12.114999771118164,2.7009999752044678 -12.114999771118164,5.570000171661377 C-12.114999771118164,7.751999855041504 -11.319999694824219,9.61299991607666 -9.819999694824219,10.951000213623047 C-8.319999694824219,12.288999557495117 -6.289000034332275,12.97700023651123 -3.8970000743865967,12.97700023651123 C-3.8970000743865967,12.97700023651123 -3.890000104904175,12.97700023651123 -3.890000104904175,12.97700023651123 C-0.3720000088214874,12.97700023651123 2.8299999237060547,11.51099967956543 4.73199987411499,9.062000274658203 C5.2129998207092285,11.58899974822998 6.802000045776367,12.717000007629395 9.83899974822998,12.717000007629395 C9.83899974822998,12.717000007629395 9.847000122070312,12.717000007629395 9.847000122070312,12.717000007629395 C10.576000213623047,12.730999946594238 11.303000450134277,12.673999786376953 12.020999908447266,12.548999786376953 C12.020999908447266,12.548999786376953 12.11400032043457,12.529000282287598 12.11400032043457,12.529000282287598 C12.11400032043457,12.529000282287598 12.11400032043457,7.184000015258789 12.11400032043457,7.184000015258789 C12.11400032043457,7.184000015258789 11.001999855041504,7.189000129699707 11.001999855041504,7.189000129699707z M3.690000057220459,2.819999933242798 C3.690000057220459,5.688000202178955 0.847000002861023,8.02400016784668 -2.6519999504089355,8.027000427246094 C-3.7160000801086426,8.027000427246094 -4.599999904632568,7.754000186920166 -5.192999839782715,7.236000061035156 C-5.785999774932861,6.7170000076293945 -6.0980000495910645,5.973999977111816 -6.0980000495910645,5.067999839782715 C-6.0980000495910645,2.486999988555908 -3.5480000972747803,2.0360000133514404 -0.8479999899864197,1.5570000410079956 C-0.8479999899864197,1.5570000410079956 -0.6480000019073486,1.5210000276565552 -0.6480000019073486,1.5210000276565552 C1.3769999742507935,1.1950000524520874 2.7139999866485596,0.953000009059906 3.691999912261963,0.4350000023841858 C3.691999912261963,0.4350000023841858 3.690000057220459,2.819999933242798 3.690000057220459,2.819999933242798z"></path>
                </g>
                <g opacity="1" transform="matrix(1,0,0,1,44.25,22.00200080871582)">
                    <path fill="rgb(255,255,255)" fill-opacity="1"
                        d=" M7.954999923706055,5.718999862670898 C7.954999923706055,5.718999862670898 2.9189999103546143,-12.479000091552734 2.9189999103546143,-12.479000091552734 C2.9189999103546143,-12.479000091552734 2.8970000743865967,-12.559000015258789 2.8970000743865967,-12.559000015258789 C2.8970000743865967,-12.559000015258789 -2.813999891281128,-12.553000450134277 -2.813999891281128,-12.553000450134277 C-2.813999891281128,-12.553000450134277 -7.8470001220703125,5.645999908447266 -7.8470001220703125,5.645999908447266 C-7.8470001220703125,5.645999908447266 -12.637999534606934,-12.467000007629395 -12.637999534606934,-12.467000007629395 C-12.637999534606934,-12.467000007629395 -12.65999984741211,-12.548999786376953 -12.65999984741211,-12.548999786376953 C-12.65999984741211,-12.548999786376953 -19.016000747680664,-12.543999671936035 -19.016000747680664,-12.543999671936035 C-19.016000747680664,-12.543999671936035 -11.508000373840332,12.489999771118164 -11.508000373840332,12.489999771118164 C-11.508000373840332,12.489999771118164 -11.484999656677246,12.567999839782715 -11.484999656677246,12.567999839782715 C-11.484999656677246,12.567999839782715 -4.699999809265137,12.564000129699707 -4.699999809265137,12.564000129699707 C-4.699999809265137,12.564000129699707 -0.07400000095367432,-4.080999851226807 -0.07400000095367432,-4.080999851226807 C-0.07400000095367432,-4.080999851226807 4.817999839782715,12.559000015258789 4.817999839782715,12.559000015258789 C4.817999839782715,12.559000015258789 11.60099983215332,12.553000450134277 11.60099983215332,12.553000450134277 C11.60099983215332,12.553000450134277 18.974000930786133,-12.428000450134277 18.974000930786133,-12.428000450134277 C18.974000930786133,-12.428000450134277 19.016000747680664,-12.567999839782715 19.016000747680664,-12.567999839782715 C19.016000747680664,-12.567999839782715 12.826000213623047,-12.565999984741211 12.826000213623047,-12.565999984741211 C12.826000213623047,-12.565999984741211 7.954999923706055,5.718999862670898 7.954999923706055,5.718999862670898z"></path>
                </g>
                <g opacity="1"
                    transform="matrix(1,0,0,1,77.22799682617188,21.981000900268555)">
                    <path fill="rgb(255,255,255)" fill-opacity="1"
                        d=" M9.071000099182129,-9.440999984741211 C6.880000114440918,-11.753999710083008 3.7980000972747803,-12.975000381469727 0.1550000011920929,-12.975000381469727 C0.1550000011920929,-12.975000381469727 0.14499999582767487,-12.975000381469727 0.14499999582767487,-12.975000381469727 C-3.565999984741211,-12.972000122070312 -6.732999801635742,-11.729000091552734 -9.005000114440918,-9.368000030517578 C-11.277000427246094,-7.006999969482422 -12.454000473022461,-3.7820000648498535 -12.454000473022461,0.007000000216066837 C-12.454000473022461,3.7960000038146973 -11.312999725341797,7.001999855041504 -9.16100025177002,9.28600025177002 C-6.881999969482422,11.699999809265137 -3.5190000534057617,12.97599983215332 0.5609999895095825,12.97599983215332 C0.5609999895095825,12.97599983215332 0.5720000267028809,12.97599983215332 0.5720000267028809,12.97599983215332 C6.3470001220703125,12.97599983215332 9.654999732971191,10.557000160217285 11.409000396728516,8.531000137329102 C11.409000396728516,8.531000137329102 11.479000091552734,8.45199966430664 11.479000091552734,8.45199966430664 C11.479000091552734,8.45199966430664 7.5960001945495605,4.730000019073486 7.5960001945495605,4.730000019073486 C7.5960001945495605,4.730000019073486 7.520999908447266,4.817999839782715 7.520999908447266,4.817999839782715 C6.370999813079834,6.160999774932861 4.234000205993652,7.769000053405762 0.5720000267028809,7.770999908447266 C0.5720000267028809,7.770999908447266 0.5659999847412109,7.770999908447266 0.5659999847412109,7.770999908447266 C-3.1559998989105225,7.770999908447266 -5.636000156402588,5.678999900817871 -6.252999782562256,2.0199999809265137 C-6.252999782562256,2.0199999809265137 12.072999954223633,2.009999990463257 12.072999954223633,2.009999990463257 C12.072999954223633,2.009999990463257 12.154000282287598,2.009999990463257 12.154000282287598,2.009999990463257 C12.154000282287598,2.009999990463257 12.175999641418457,1.9320000410079956 12.175999641418457,1.9320000410079956 C12.369000434875488,1.3049999475479126 12.454999923706055,0.6480000019073486 12.428000450134277,-0.00800000037997961 C12.425999641418457,-3.865000009536743 11.265999794006348,-7.125999927520752 9.071000099182129,-9.440999984741211z M0.15299999713897705,-7.942999839782715 C3.2899999618530273,-7.942999839782715 5.466000080108643,-6.000999927520752 6.144000053405762,-2.6070001125335693 C6.144000053405762,-2.6070001125335693 -6.170000076293945,-2.5980000495910645 -6.170000076293945,-2.5980000495910645 C-5.480000019073486,-5.988999843597412 -3.184000015258789,-7.942999839782715 0.1469999998807907,-7.942999839782715 C0.1469999998807907,-7.942999839782715 0.15299999713897705,-7.942999839782715 0.15299999713897705,-7.942999839782715z"></path>
                </g>
                <g opacity="1"
                    transform="matrix(1,0,0,1,102.91100311279297,21.964000701904297)">
                    <path fill="rgb(255,255,255)" fill-opacity="1"
                        d=" M8.616000175476074,0.3240000009536743 C7.107999801635742,-0.8849999904632568 4.692999839782715,-1.8660000562667847 1.0199999809265137,-2.7639999389648438 C-2.61299991607666,-3.631999969482422 -3.7799999713897705,-4.331999778747559 -3.7799999713897705,-5.640999794006348 C-3.7820000648498535,-6.948999881744385 -2.302999973297119,-7.7729997634887695 0.07999999821186066,-7.775000095367432 C0.07999999821186066,-7.775000095367432 0.09300000220537186,-7.775000095367432 0.09300000220537186,-7.775000095367432 C2.7179999351501465,-7.775000095367432 4.955999851226807,-6.991000175476074 7.13700008392334,-5.310999870300293 C7.13700008392334,-5.310999870300293 7.2270002365112305,-5.242000102996826 7.2270002365112305,-5.242000102996826 C7.2270002365112305,-5.242000102996826 10.5,-9.826000213623047 10.5,-9.826000213623047 C10.5,-9.826000213623047 10.406999588012695,-9.890999794006348 10.406999588012695,-9.890999794006348 C7.427999973297119,-11.937000274658203 4.125999927520752,-12.972999572753906 0.5899999737739563,-12.972999572753906 C0.5899999737739563,-12.972999572753906 0.5799999833106995,-12.972999572753906 0.5799999833106995,-12.972999572753906 C-2.4820001125335693,-12.972999572753906 -5.068999767303467,-12.248000144958496 -6.900000095367432,-10.883000373840332 C-8.730999946594238,-9.517000198364258 -9.699999809265137,-7.586999893188477 -9.699999809265137,-5.304999828338623 C-9.699999809265137,-1.3489999771118164 -6.925000190734863,1.0140000581741333 -0.42399999499320984,2.5980000495910645 C4.122000217437744,3.627000093460083 4.953999996185303,4.374000072479248 4.954999923706055,5.474999904632568 C4.954999923706055,6.182000160217285 4.534999847412109,6.738999843597412 3.7049999237060547,7.130000114440918 C2.924999952316284,7.495999813079834 1.8209999799728394,7.690999984741211 0.5130000114440918,7.690999984741211 C0.5130000114440918,7.690999984741211 0.5040000081062317,7.690999984741211 0.5040000081062317,7.690999984741211 C-2.6440000534057617,7.690999984741211 -5.420000076293945,6.670000076293945 -7.5229997634887695,4.73799991607666 C-7.5229997634887695,4.73799991607666 -7.61299991607666,4.656000137329102 -7.61299991607666,4.656000137329102 C-7.61299991607666,4.656000137329102 -10.88700008392334,9.067999839782715 -10.88700008392334,9.067999839782715 C-10.88700008392334,9.067999839782715 -10.812999725341797,9.135000228881836 -10.812999725341797,9.135000228881836 C-8.125,11.57699966430664 -4.060999870300293,12.972999572753906 0.33799999952316284,12.972999572753906 C0.33799999952316284,12.972999572753906 0.35199999809265137,12.972999572753906 0.35199999809265137,12.972999572753906 C6.951000213623047,12.972999572753906 10.88700008392334,10.071000099182129 10.883000373840332,5.2210001945495605 C10.876999855041504,3.11299991607666 10.15999984741211,1.5570000410079956 8.616000175476074,0.3240000009536743z"></path>
                </g>
                <g opacity="1"
                    transform="matrix(1,0,0,1,129.93899536132812,21.945999145507812)">
                    <path fill="rgb(255,255,255)" fill-opacity="1"
                        d=" M0.004999999888241291,-12.972999572753906 C0.004999999888241291,-12.972999572753906 -0.00800000037997961,-12.972999572753906 -0.00800000037997961,-12.972999572753906 C-7.744999885559082,-12.972999572753906 -12.940999984741211,-7.75 -12.9350004196167,0.008999999612569809 C-12.9350004196167,3.867000102996826 -11.711000442504883,7.129000186920166 -9.404000282287598,9.442000389099121 C-7.098999977111816,11.753999710083008 -3.8450000286102295,12.972999572753906 -0.003000000026077032,12.972999572753906 C-0.003000000026077032,12.972999572753906 0.009999999776482582,12.972999572753906 0.009999999776482582,12.972999572753906 C3.7829999923706055,12.972999572753906 7.014999866485596,11.734999656677246 9.352999687194824,9.39799976348877 C11.690999984741211,7.060999870300293 12.940999984741211,3.7980000972747803 12.939000129699707,-0.003000000026077032 C12.932999610900879,-7.885000228881836 7.85699987411499,-12.972999572753906 0.004999999888241291,-12.972999572753906z M0.004999999888241291,7.775000095367432 C-1.9930000305175781,7.775000095367432 -3.6589999198913574,7.060999870300293 -4.811999797821045,5.710999965667725 C-5.966000080108643,4.360000133514404 -6.5879998207092285,2.378999948501587 -6.589000225067139,0.004000000189989805 C-6.590000152587891,-2.36899995803833 -5.979000091552734,-4.341000080108643 -4.818999767303467,-5.702000141143799 C-3.6589999198913574,-7.063000202178955 -2,-7.7779998779296875 0,-7.7779998779296875 C1.996999979019165,-7.7779998779296875 3.6630001068115234,-7.065000057220459 4.816999912261963,-5.714000225067139 C5.96999979019165,-4.363999843597412 6.5920000076293945,-2.38100004196167 6.593999862670898,-0.00800000037997961 C6.5970001220703125,2.364000082015991 5.984000205993652,4.3379998207092285 4.822999954223633,5.699999809265137 C3.6610000133514404,7.060999870300293 2.005000114440918,7.769000053405762 0.004999999888241291,7.775000095367432z"></path>
                </g>
                <g opacity="1"
                    transform="matrix(1,0,0,1,166.93699645996094,21.716999053955078)">
                    <path fill="rgb(255,255,255)" fill-opacity="1"
                        d=" M10.76200008392334,-12.777000427246094 C10.76200008392334,-12.777000427246094 10.755000114440918,-12.777000427246094 10.755000114440918,-12.777000427246094 C7.013000011444092,-12.777000427246094 3.8350000381469727,-11.097000122070312 1.9980000257492065,-8.164999961853027 C0.6159999966621399,-11.095000267028809 -2.1500000953674316,-12.765999794006348 -5.625,-12.765999794006348 C-5.625,-12.765999794006348 -5.631999969482422,-12.765999794006348 -5.631999969482422,-12.765999794006348 C-8.97700023651123,-12.765999794006348 -11.914999961853027,-11.411999702453613 -13.73900032043457,-9.043999671936035 C-13.73900032043457,-9.043999671936035 -14.055000305175781,-12.34000015258789 -14.055000305175781,-12.34000015258789 C-14.055000305175781,-12.34000015258789 -19.56100082397461,-12.34000015258789 -19.56100082397461,-12.34000015258789 C-19.56100082397461,-12.34000015258789 -19.545000076293945,12.666999816894531 -19.545000076293945,12.666999816894531 C-19.545000076293945,12.666999816894531 -19.545000076293945,12.777000427246094 -19.545000076293945,12.777000427246094 C-19.545000076293945,12.777000427246094 -13.366000175476074,12.777000427246094 -13.366000175476074,12.777000427246094 C-13.366000175476074,12.777000427246094 -13.376999855041504,-1.6069999933242798 -13.376999855041504,-1.6069999933242798 C-13.376999855041504,-5.109000205993652 -10.975000381469727,-7.558000087738037 -7.5320000648498535,-7.560999870300293 C-4.671999931335449,-7.560999870300293 -3.0929999351501465,-5.4770002365112305 -3.0910000801086426,-1.6990000009536743 C-3.0910000801086426,-1.6990000009536743 -3.0799999237060547,12.769000053405762 -3.0799999237060547,12.769000053405762 C-3.0799999237060547,12.769000053405762 3.0969998836517334,12.769000053405762 3.0969998836517334,12.769000053405762 C3.0969998836517334,12.769000053405762 3.0880000591278076,-1.6169999837875366 3.0880000591278076,-1.6169999837875366 C3.0880000591278076,-3.309000015258789 3.6700000762939453,-4.831999778747559 4.729000091552734,-5.906000137329102 C5.7870001792907715,-6.980999946594238 7.2769999504089355,-7.567999839782715 8.932999610900879,-7.570000171661377 C10.368000030517578,-7.570000171661377 11.479999542236328,-7.059999942779541 12.234999656677246,-6.059000015258789 C12.989999771118164,-5.058000087738037 13.371999740600586,-3.5940001010894775 13.37399959564209,-1.7059999704360962 C13.37399959564209,-1.7059999704360962 13.383999824523926,12.76200008392334 13.383999824523926,12.76200008392334 C13.383999824523926,12.76200008392334 19.562000274658203,12.76200008392334 19.562000274658203,12.76200008392334 C19.562000274658203,12.76200008392334 19.551000595092773,-3.1110000610351562 19.551000595092773,-3.1110000610351562 C19.555999755859375,-8.899999618530273 16.020000457763672,-12.777000427246094 10.76200008392334,-12.777000427246094z"></path>
                </g>
                <g opacity="1"
                    transform="matrix(1,0,0,1,195.6199951171875,3.121999979019165)">
                    <path fill="rgb(255,255,255)" fill-opacity="1"
                        d=" M3.1519999504089355,-3.121999979019165 C3.1519999504089355,-3.121999979019165 -3.1519999504089355,-3.121999979019165 -3.1519999504089355,-3.121999979019165 C-3.1519999504089355,-3.121999979019165 -3.1519999504089355,3.121999979019165 -3.1519999504089355,3.121999979019165 C-3.1519999504089355,3.121999979019165 3.1519999504089355,3.121999979019165 3.1519999504089355,3.121999979019165 C3.1519999504089355,3.121999979019165 3.1519999504089355,-3.121999979019165 3.1519999504089355,-3.121999979019165z"></path>
                </g>
                <g opacity="1" transform="matrix(1,0,0,1,195.625,21.900999069213867)">
                    <path fill="rgb(255,255,255)" fill-opacity="1"
                        d=" M3.0810000896453857,-12.560999870300293 C3.0810000896453857,-12.560999870300293 -3.0980000495910645,-12.555999755859375 -3.0980000495910645,-12.555999755859375 C-3.0980000495910645,-12.555999755859375 -3.0810000896453857,12.451000213623047 -3.0810000896453857,12.451000213623047 C-3.0810000896453857,12.451000213623047 -3.0810000896453857,12.560999870300293 -3.0810000896453857,12.560999870300293 C-3.0810000896453857,12.560999870300293 3.0980000495910645,12.555999755859375 3.0980000495910645,12.555999755859375 C3.0980000495910645,12.555999755859375 3.0810000896453857,-12.451000213623047 3.0810000896453857,-12.451000213623047 C3.0810000896453857,-12.451000213623047 3.0810000896453857,-12.560999870300293 3.0810000896453857,-12.560999870300293z"></path>
                </g>
                <g opacity="1"
                    transform="matrix(1,0,0,1,212.8719940185547,21.93400001525879)">
                    <path fill="rgb(255,255,255)" fill-opacity="1"
                        d=" M6.820000171661377,7.366000175476074 C6.215000152587891,7.598999977111816 5.579999923706055,7.744999885559082 4.933000087738037,7.800000190734863 C4.933000087738037,7.800000190734863 4.920000076293945,7.800000190734863 4.920000076293945,7.800000190734863 C4.834000110626221,7.807000160217285 4.747000217437744,7.814000129699707 4.658999919891357,7.818999767303467 C4.484000205993652,7.831999778747559 4.307000160217285,7.839000225067139 4.129000186920166,7.839000225067139 C-0.20600000023841858,7.839000225067139 -3.5999999046325684,4.315000057220459 -3.5999999046325684,-0.03200000151991844 C-3.5999999046325684,-4.38100004196167 -0.20600000023841858,-7.906000137329102 4.129000186920166,-7.906000137329102 C5.1529998779296875,-7.9070000648498535 6.166999816894531,-7.706999778747559 7.113999843597412,-7.315999984741211 C7.113999843597412,-7.315999984741211 8.73799991607666,-12.244000434875488 8.73799991607666,-12.244000434875488 C7.218999862670898,-12.770999908447266 5.623000144958496,-13.032999992370605 4.015999794006348,-13.019000053405762 C4.015999794006348,-13.019000053405762 3.990999937057495,-13.019000053405762 3.990999937057495,-13.019000053405762 C0.5009999871253967,-13.019000053405762 -2.7119998931884766,-11.718999862670898 -5.057000160217285,-9.373000144958496 C-7.445000171661377,-6.984000205993652 -8.756999969482422,-3.6570000648498535 -8.75100040435791,-0.004999999888241291 C-8.744999885559082,3.6470000743865967 -7.421000003814697,6.984000205993652 -5.0229997634887695,9.376999855041504 C-2.6659998893737793,11.725000381469727 0.5569999814033508,13.017999649047852 4.057000160217285,13.017999649047852 C4.057000160217285,13.017999649047852 4.080999851226807,13.017999649047852 4.080999851226807,13.017999649047852 C5.671999931335449,13.032999992370605 7.254000186920166,12.774999618530273 8.756999969482422,12.255999565124512 C8.756999969482422,12.255999565124512 7.110000133514404,7.249000072479248 7.110000133514404,7.249000072479248 C7.013000011444092,7.291999816894531 6.918000221252441,7.329999923706055 6.820000171661377,7.366000175476074z"></path>
                </g>
                <g opacity="1"
                    transform="matrix(1,0,0,1,228.99899291992188,15.779000282287598)">
                    <path fill="rgb(255,255,255)" fill-opacity="1"
                        d=" M3.9820001125335693,-0.42899999022483826 C3.9769999980926514,-0.46299999952316284 3.9600000381469727,-0.49399998784065247 3.934000015258789,-0.515999972820282 C3.9100000858306885,-0.5389999747276306 3.877000093460083,-0.5519999861717224 3.8420000076293945,-0.5509999990463257 C3.8420000076293945,-0.5509999990463257 1.3420000076293945,-0.5509999990463257 1.3420000076293945,-0.5509999990463257 C1.3420000076293945,-0.5509999990463257 3.1110000610351562,-2.325000047683716 3.1110000610351562,-2.325000047683716 C3.134000062942505,-2.3489999771118164 3.1500000953674316,-2.381999969482422 3.1519999504089355,-2.4149999618530273 C3.1530001163482666,-2.450000047683716 3.1419999599456787,-2.4830000400543213 3.121999979019165,-2.509999990463257 C3.0320000648498535,-2.622999906539917 2.933000087738037,-2.7320001125335693 2.8310000896453857,-2.8340001106262207 C2.7279999256134033,-2.937000036239624 2.621000051498413,-3.0339999198913574 2.507999897003174,-3.125 C2.4820001125335693,-3.1459999084472656 2.4489998817443848,-3.1570000648498535 2.4149999618530273,-3.1549999713897705 C2.380000114440918,-3.1530001163482666 2.3469998836517334,-3.138000011444092 2.3239998817443848,-3.114000082015991 C2.3239998817443848,-3.114000082015991 0.5550000071525574,-1.340999960899353 0.5550000071525574,-1.340999960899353 C0.5550000071525574,-1.340999960899353 0.5550000071525574,-3.8489999771118164 0.5550000071525574,-3.8489999771118164 C0.5559999942779541,-3.882999897003174 0.5429999828338623,-3.9159998893737793 0.5199999809265137,-3.941999912261963 C0.49900001287460327,-3.9679999351501465 0.46700000762939453,-3.9839999675750732 0.4339999854564667,-3.98799991607666 C0.1459999978542328,-4.019000053405762 -0.14399999380111694,-4.019000053405762 -0.4320000112056732,-3.98799991607666 C-0.4659999907016754,-3.9839999675750732 -0.4970000088214874,-3.9679999351501465 -0.5180000066757202,-3.941999912261963 C-0.5410000085830688,-3.9159998893737793 -0.5529999732971191,-3.882999897003174 -0.5529999732971191,-3.8489999771118164 C-0.5529999732971191,-3.8489999771118164 -0.5529999732971191,-1.343000054359436 -0.5529999732971191,-1.343000054359436 C-0.5529999732971191,-1.343000054359436 -2.322000026702881,-3.115000009536743 -2.322000026702881,-3.115000009536743 C-2.3450000286102295,-3.1389999389648438 -2.378000020980835,-3.1540000438690186 -2.4130001068115234,-3.1559998989105225 C-2.447999954223633,-3.1579999923706055 -2.4809999465942383,-3.1480000019073486 -2.506999969482422,-3.125999927520752 C-2.621000051498413,-3.0350000858306885 -2.7269999980926514,-2.937999963760376 -2.8310000896453857,-2.8359999656677246 C-2.931999921798706,-2.7330000400543213 -3.0299999713897705,-2.624000072479248 -3.119999885559082,-2.510999917984009 C-3.1410000324249268,-2.4839999675750732 -3.1519999504089355,-2.4509999752044678 -3.1500000953674316,-2.4170000553131104 C-3.1480000019073486,-2.382999897003174 -3.134000062942505,-2.3499999046325684 -3.1110000610351562,-2.3259999752044678 C-3.1110000610351562,-2.3259999752044678 -1.3420000076293945,-0.5529999732971191 -1.3420000076293945,-0.5529999732971191 C-1.3420000076293945,-0.5529999732971191 -3.8420000076293945,-0.5529999732971191 -3.8420000076293945,-0.5529999732971191 C-3.875,-0.5529999732971191 -3.9089999198913574,-0.5400000214576721 -3.934000015258789,-0.5180000066757202 C-3.9590001106262207,-0.4950000047683716 -3.9749999046325684,-0.46399998664855957 -3.9800000190734863,-0.4300000071525574 C-4.011000156402588,-0.14100000262260437 -4.011000156402588,0.15000000596046448 -3.9800000190734863,0.4390000104904175 C-3.9749999046325684,0.4729999899864197 -3.9590001106262207,0.5040000081062317 -3.934000015258789,0.5270000100135803 C-3.9089999198913574,0.5490000247955322 -3.875,0.5609999895095825 -3.8420000076293945,0.5609999895095825 C-3.8420000076293945,0.5609999895095825 -1.3420000076293945,0.5609999895095825 -1.3420000076293945,0.5609999895095825 C-1.3420000076293945,0.5609999895095825 -3.1110000610351562,2.3340001106262207 -3.1110000610351562,2.3340001106262207 C-3.134000062942505,2.3589999675750732 -3.1480000019073486,2.3910000324249268 -3.1500000953674316,2.424999952316284 C-3.1510000228881836,2.4590001106262207 -3.1410000324249268,2.493000030517578 -3.119999885559082,2.5199999809265137 C-3.0299999713897705,2.632999897003174 -2.931999921798706,2.742000102996826 -2.8310000896453857,2.8440001010894775 C-2.7269999980926514,2.947000026702881 -2.619999885559082,3.0439999103546143 -2.50600004196167,3.134999990463257 C-2.4800000190734863,3.1559998989105225 -2.447000026702881,3.1670000553131104 -2.4130001068115234,3.1649999618530273 C-2.378000020980835,3.1630001068115234 -2.3450000286102295,3.1480000019073486 -2.322000026702881,3.124000072479248 C-2.322000026702881,3.124000072479248 -0.5529999732971191,1.3509999513626099 -0.5529999732971191,1.3509999513626099 C-0.5529999732971191,1.3509999513626099 -0.5529999732971191,3.8580000400543213 -0.5529999732971191,3.8580000400543213 C-0.5529999732971191,3.8919999599456787 -0.5400000214576721,3.924999952316284 -0.5180000066757202,3.950000047683716 C-0.4970000088214874,3.9749999046325684 -0.4659999907016754,3.992000102996826 -0.4320000112056732,3.996000051498413 C-0.28999999165534973,4.011000156402588 -0.14300000667572021,4.019000053405762 0.0010000000474974513,4.019000053405762 C0.14499999582767487,4.019000053405762 0.29100000858306885,4.011000156402588 0.4339999854564667,3.996000051498413 C0.46700000762939453,3.992000102996826 0.49900001287460327,3.9749999046325684 0.5220000147819519,3.950000047683716 C0.5429999828338623,3.924999952316284 0.5569999814033508,3.8919999599456787 0.5569999814033508,3.8580000400543213 C0.5569999814033508,3.8580000400543213 0.5569999814033508,1.3539999723434448 0.5569999814033508,1.3539999723434448 C0.5569999814033508,1.3539999723434448 2.3259999752044678,3.127000093460083 2.3259999752044678,3.127000093460083 C2.3489999771118164,3.1510000228881836 2.380000114440918,3.1659998893737793 2.4149999618530273,3.1679999828338623 C2.450000047683716,3.1700000762939453 2.4839999675750732,3.1579999923706055 2.509999990463257,3.135999917984009 C2.7360000610351562,2.9560000896453857 2.938999891281128,2.750999927520752 3.11899995803833,2.5260000228881836 C3.1389999389648438,2.499000072479248 3.1519999504089355,2.4660000801086426 3.1500000953674316,2.430999994277954 C3.1480000019073486,2.3970000743865967 3.131999969482422,2.364000082015991 3.1089999675750732,2.3399999141693115 C3.1089999675750732,2.3399999141693115 1.340000033378601,0.5669999718666077 1.340000033378601,0.5669999718666077 C1.340000033378601,0.5669999718666077 3.8399999141693115,0.5669999718666077 3.8399999141693115,0.5669999718666077 C3.875,0.5680000185966492 3.9070000648498535,0.5550000071525574 3.931999921798706,0.5320000052452087 C3.9579999446868896,0.5099999904632568 3.9730000495910645,0.4790000021457672 3.9769999980926514,0.4449999928474426 C4.010000228881836,0.1550000011920929 4.011000156402588,-0.1379999965429306 3.9820001125335693,-0.42899999022483826z"></path>
                </g>
                <g opacity="1"
                    transform="matrix(1,0,0,1,229.1179962158203,28.143999099731445)">
                    <path fill="rgb(255,255,255)" fill-opacity="1"
                        d=" M0,3.7960000038146973 C2.0910000801086426,3.7960000038146973 3.7860000133514404,2.0969998836517334 3.7860000133514404,0 C3.7860000133514404,-2.0969998836517334 2.0910000801086426,-3.7960000038146973 0,-3.7960000038146973 C-2.0910000801086426,-3.7960000038146973 -3.7860000133514404,-2.0969998836517334 -3.7860000133514404,0 C-3.7860000133514404,2.0969998836517334 -2.0910000801086426,3.7960000038146973 0,3.7960000038146973z"></path>
                </g>
            </g>
        </g>
        <mask id="__lottie_element_58_1" mask-type="alpha">
            <use xlink:href="#__lottie_element_58"></use>
        </mask>
    </defs>
    <g clip-path="url(#__lottie_element_53)">
        <g mask="url(#__lottie_element_58_1)" style="display: block;">
            <g clip-path="url(#__lottie_element_55)" transform="matrix(1,0,0,1,0,0)"
                opacity="1">
                <g
                    transform="matrix(0.9599999785423279,0,0,1.0199999809265137,227.83599853515625,34.5)"
                    opacity="1" style="display: block;">
                    <g opacity="1"
                        transform="matrix(1,0,0,1,3.815999984741211,1.440999984741211)">
                        <path fill="rgb(255,219,132)" fill-opacity="1"
                            d=" M242.41000366210938,-37.394500732421875 C242.41000366210938,-37.394500732421875 242.41000366210938,37.394500732421875 242.41000366210938,37.394500732421875 C242.41000366210938,37.394500732421875 -242.41000366210938,37.394500732421875 -242.41000366210938,37.394500732421875 C-242.41000366210938,37.394500732421875 -242.41000366210938,-37.394500732421875 -242.41000366210938,-37.394500732421875 C-242.41000366210938,-37.394500732421875 242.41000366210938,-37.394500732421875 242.41000366210938,-37.394500732421875z"></path>
                    </g>
                </g>
                <g transform="matrix(1,0,0,1,233,35.40336227416992)" opacity="1"
                    style="display: block;">
                    <g opacity="1" transform="matrix(1,0,0,1,0,0)">
                        <path fill="rgb(55,155,247)" fill-opacity="1"
                            d=" M234.75,-44 C234.75,-44 -249,-43 -249,-43 C-249,-43 -249,7.75 -249,7.75 C-249,7.75 -234,7.5 -234,7.5 C-234,7.5 -161.74391174316406,23.519315719604492 -6.998000144958496,7.620999813079834 C147.74790954589844,-8.277316093444824 234.75,7.75 234.75,7.75 C234.75,7.75 234.75,-44 234.75,-44z"></path>
                    </g>
                </g>
            </g>
        </g>
    </g>
</svg>