<svg xmlns="http://www.w3.org/2000/svg" xmlns:xlink="http://www.w3.org/1999/xlink" viewBox="0 0 800 720" width="800" height="720" preserveAspectRatio="xMidYMid meet" style="width: 100%; height: 100%; transform: translate3d(0px, 0px, 0px); content-visibility: visible;">
	<defs>
		<clipPath id="__lottie_element_85">
			<rect width="800" height="720" x="0" y="0">
			</rect>
		</clipPath>
		<linearGradient id="__lottie_element_89" spreadMethod="pad" gradientUnits="userSpaceOnUse" x1="-177.53799438476562" y1="101.29299926757812" x2="98.91999816894531" y2="-41.37900161743164">
			<stop offset="0%" stop-color="rgb(103,108,226)">
			</stop>
			<stop offset="50%" stop-color="rgb(172,162,198)">
			</stop>
			<stop offset="100%" stop-color="rgb(241,217,170)">
			</stop>
		</linearGradient>
		<linearGradient id="__lottie_element_93" spreadMethod="pad" gradientUnits="userSpaceOnUse" x1="-114.03900146484375" y1="-25.86199951171875" x2="174.51400756835938" y2="107.3280029296875">
			<stop offset="0%" stop-color="rgb(241,217,170)">
			</stop>
			<stop offset="50%" stop-color="rgb(237,151,141)">
			</stop>
			<stop offset="100%" stop-color="rgb(233,86,112)">
			</stop>
		</linearGradient>
		<linearGradient id="__lottie_element_100" spreadMethod="pad" gradientUnits="userSpaceOnUse" x1="0" y1="-200" x2="0" y2="99.56900024414062">
			<stop offset="0%" stop-color="rgb(53,235,188)">
			</stop>
			<stop offset="50%" stop-color="rgb(147,226,178)">
			</stop>
			<stop offset="100%" stop-color="rgb(240,217,169)">
			</stop>
		</linearGradient>
		<linearGradient id="__lottie_element_107" spreadMethod="pad" gradientUnits="userSpaceOnUse" x1="-1" y1="-8.5" x2="3" y2="12.5">
			<stop offset="0%" stop-color="rgb(56,235,188)">
			</stop>
			<stop offset="36%" stop-color="rgb(167,225,177)">
			</stop>
			<stop offset="73%" stop-color="rgb(238,218,170)">
			</stop>
		</linearGradient>
		<linearGradient id="__lottie_element_114" spreadMethod="pad" gradientUnits="userSpaceOnUse" x1="-13.66100025177002" y1="4.531000137329102" x2="21.85700035095215" y2="-9.968999862670898">
			<stop offset="0%" stop-color="rgb(237,141,137)">
			</stop>
			<stop offset="50%" stop-color="rgb(239,176,152)">
			</stop>
			<stop offset="100%" stop-color="rgb(241,211,168)">
			</stop>
		</linearGradient>
		<linearGradient id="__lottie_element_121" spreadMethod="pad" gradientUnits="userSpaceOnUse" x1="0" y1="-9" x2="0" y2="9">
			<stop offset="0%" stop-color="rgb(160,152,215)">
			</stop>
			<stop offset="36%" stop-color="rgb(124,123,235)">
			</stop>
			<stop offset="73%" stop-color="rgb(89,95,254)">
			</stop>
		</linearGradient>
		<linearGradient id="__lottie_element_137" spreadMethod="pad" gradientUnits="userSpaceOnUse" x1="-74.99600219726562" y1="-83.83899688720703" x2="67.03900146484375" y2="71.1259994506836">
			<stop offset="0%" stop-color="rgb(40,105,234)">
			</stop>
			<stop offset="50%" stop-color="rgb(67,98,232)">
			</stop>
			<stop offset="100%" stop-color="rgb(94,92,230)">
			</stop>
		</linearGradient>
	</defs>
	<g clip-path="url(#__lottie_element_85)">
		<g transform="matrix(-1,0,0,1,598.5732421875,579.5732421875)" opacity="1" style="display: block;">
			<g opacity="1" transform="matrix(1,0,0,1,0,0)">
				<animateTransform attributeName="transform" attributeType="XML" type="translate" values="0,0; -15,15; 0,0" dur="2.5s" keyTimes="0; 0.5; 1" repeatCount="indefinite" />
				<path stroke="url(#__lottie_element_89)" stroke-linecap="butt" stroke-linejoin="miter" fill-opacity="0" stroke-miterlimit="4" stroke-opacity="1" stroke-width="2" d=" M-2,-196.53590393066406 C-0.8962000012397766,-198.44773864746094 0.8962000012397766,-198.44773864746094 2,-196.53590393066406 C2,-196.53590393066406 171.205078125,96.53589630126953 171.205078125,96.53589630126953 C172.3088836669922,98.44773864746094 171.4126739501953,100 169.205078125,100 C169.205078125,100 -169.205078125,100 -169.205078125,100 C-171.4126739501953,100 -172.3088836669922,98.44773864746094 -171.205078125,96.53589630126953 C-171.205078125,96.53589630126953 -2,-196.53590393066406 -2,-196.53590393066406z">
				</path>
			</g>
		</g>
		<g transform="matrix(-1,0,0,-1,400,460)" opacity="1">
			<g opacity="1" transform="matrix(1,0,0,1,0,0)">
				<path stroke-linecap="butt" stroke-linejoin="miter" fill-opacity="0" stroke-miterlimit="4" stroke="rgb(241,216,170)" stroke-opacity="1" stroke-width="2" d=" M-2,-196.53590393066406 C-0.8962000012397766,-198.44773864746094 0.8962000012397766,-198.44773864746094 2,-196.53590393066406 C2,-196.53590393066406 171.205078125,96.53589630126953 171.205078125,96.53589630126953 C172.3088836669922,98.44773864746094 171.4126739501953,100 169.205078125,100 C169.205078125,100 -169.205078125,100 -169.205078125,100 C-171.4126739501953,100 -172.3088836669922,98.44773864746094 -171.205078125,96.53589630126953 C-171.205078125,96.53589630126953 -2,-196.53590393066406 -2,-196.53590393066406z">
				</path>
			</g>
		</g>
		<g>
			<animateTransform attributeName="transform" attributeType="XML" type="translate" values="0,0; 0,-15; 0,0" dur="2.5s" keyTimes="0; 0.5; 1" repeatCount="indefinite" />
			<g transform="matrix(1,0,0,1,400,229.15475463867188)" opacity="1">
				<g opacity="1" transform="matrix(1,0,0,1,0,0)">
					<path stroke="url(#__lottie_element_100)" stroke-linecap="butt" stroke-linejoin="miter" fill-opacity="0" stroke-miterlimit="4" stroke-opacity="1" stroke-width="2" d=" M-2,-196.53590393066406 C-0.8962000012397766,-198.44773864746094 0.8962000012397766,-198.44773864746094 2,-196.53590393066406 C2,-196.53590393066406 171.205078125,96.53589630126953 171.205078125,96.53589630126953 C172.3088836669922,98.44773864746094 171.4126739501953,100 169.205078125,100 C169.205078125,100 -169.205078125,100 -169.205078125,100 C-171.4126739501953,100 -172.3088836669922,98.44773864746094 -171.205078125,96.53589630126953 C-171.205078125,96.53589630126953 -2,-196.53590393066406 -2,-196.53590393066406z">
					</path>
				</g>
			</g>
			<g transform="matrix(1,0,0,1,399.2619934082031,238.95175170898438)" opacity="1">
				<g opacity="1" transform="matrix(1,0,0,1,0,0)">
					<path fill="rgb(255,255,255)" fill-opacity="1" d=" M41.75400161743164,4.156000137329102 C40.915000915527344,5.177000045776367 39.766998291015625,5.688000202178955 38.308998107910156,5.688000202178955 C36.85100173950195,5.688000202178955 35.70199966430664,5.177000045776367 34.862998962402344,4.156000137329102 C34.02399826049805,3.0989999771118164 33.60499954223633,1.7139999866485596 33.60499954223633,0 C33.60499954223633,-1.7139999866485596 34.02399826049805,-3.0810000896453857 34.862998962402344,-4.1020002365112305 C35.70199966430664,-5.158999919891357 36.85100173950195,-5.688000202178955 38.308998107910156,-5.688000202178955 C39.766998291015625,-5.688000202178955 40.915000915527344,-5.158999919891357 41.75400161743164,-4.1020002365112305 C42.62900161743164,-3.0810000896453857 43.066001892089844,-1.7139999866485596 43.066001892089844,0 C43.066001892089844,1.7139999866485596 42.62900161743164,3.0989999771118164 41.75400161743164,4.156000137329102z M46.12900161743164,8.20300006866455 C46.12900161743164,8.20300006866455 46.12900161743164,-13.67199993133545 46.12900161743164,-13.67199993133545 C46.12900161743164,-13.67199993133545 42.847999572753906,-13.67199993133545 42.847999572753906,-13.67199993133545 C42.847999572753906,-13.67199993133545 42.847999572753906,-6.015999794006348 42.847999572753906,-6.015999794006348 C42.22800064086914,-6.817999839782715 41.444000244140625,-7.419000148773193 40.49599838256836,-7.820000171661377 C39.584999084472656,-8.258000373840332 38.56399917602539,-8.47700023651123 37.433998107910156,-8.47700023651123 C35.319000244140625,-8.47700023651123 33.58700180053711,-7.692999839782715 32.237998962402344,-6.125 C30.926000595092773,-4.557000160217285 30.270000457763672,-2.5160000324249268 30.270000457763672,0 C30.270000457763672,2.552000045776367 30.926000595092773,4.611999988555908 32.237998962402344,6.179999828338623 C33.54999923706055,7.710999965667725 35.28300094604492,8.47700023651123 37.433998107910156,8.47700023651123 C38.60100173950195,8.47700023651123 39.65700149536133,8.239999771118164 40.60499954223633,7.765999794006348 C41.5890007019043,7.25600004196167 42.40999984741211,6.544000148773193 43.066001892089844,5.632999897003174 C43.066001892089844,5.632999897003174 43.28499984741211,8.20300006866455 43.28499984741211,8.20300006866455 C43.28499984741211,8.20300006866455 46.12900161743164,8.20300006866455 46.12900161743164,8.20300006866455z M16.542999267578125,-4.593999862670898 C17.381999969482422,-5.360000133514404 18.43899917602539,-5.742000102996826 19.71500015258789,-5.742000102996826 C20.954999923706055,-5.742000102996826 21.975000381469727,-5.360000133514404 22.777000427246094,-4.593999862670898 C23.57900047302246,-3.865000009536743 24.09000015258789,-2.8259999752044678 24.30900001525879,-1.4769999980926514 C24.30900001525879,-1.4769999980926514 14.956999778747559,-1.4769999980926514 14.956999778747559,-1.4769999980926514 C15.211999893188477,-2.7890000343322754 15.741000175476074,-3.828000068664551 16.542999267578125,-4.593999862670898z M16.488000869750977,4.484000205993652 C15.61299991607666,3.6449999809265137 15.083999633789062,2.496999979019165 14.902000427246094,1.0390000343322754 C14.902000427246094,1.0390000343322754 27.53499984741211,1.0390000343322754 27.53499984741211,1.0390000343322754 C27.607999801635742,0.7839999794960022 27.645000457763672,0.43799999356269836 27.645000457763672,0 C27.645000457763672,-2.5889999866485596 26.915000915527344,-4.64900016784668 25.457000732421875,-6.179999828338623 C24.03499984741211,-7.710999965667725 22.121000289916992,-8.47700023651123 19.71500015258789,-8.47700023651123 C17.30900001525879,-8.47700023651123 15.357999801635742,-7.692999839782715 13.86299991607666,-6.125 C12.368000030517578,-4.557000160217285 11.621000289916992,-2.5160000324249268 11.621000289916992,0 C11.621000289916992,2.5160000324249268 12.35099983215332,4.557000160217285 13.809000015258789,6.125 C15.303999900817871,7.692999839782715 17.363000869750977,8.47700023651123 19.988000869750977,8.47700023651123 C21.628999710083008,8.47700023651123 23.031999588012695,8.20300006866455 24.198999404907227,7.656000137329102 C25.402000427246094,7.109000205993652 26.368999481201172,6.3979997634887695 27.097999572753906,5.5229997634887695 C27.097999572753906,5.5229997634887695 24.854999542236328,3.555000066757202 24.854999542236328,3.555000066757202 C23.76099967956543,4.9770002365112305 22.138999938964844,5.688000202178955 19.988000869750977,5.688000202178955 C18.56599998474121,5.688000202178955 17.39900016784668,5.285999774932861 16.488000869750977,4.484000205993652z M-2.1050000190734863,-4.593999862670898 C-1.2660000324249268,-5.360000133514404 -0.20999999344348907,-5.742000102996826 1.065999984741211,-5.742000102996826 C2.305999994277954,-5.742000102996826 3.3269999027252197,-5.360000133514404 4.129000186920166,-4.593999862670898 C4.931000232696533,-3.865000009536743 5.440999984741211,-2.8259999752044678 5.659999847412109,-1.4769999980926514 C5.659999847412109,-1.4769999980926514 -3.690999984741211,-1.4769999980926514 -3.690999984741211,-1.4769999980926514 C-3.436000108718872,-2.7890000343322754 -2.9070000648498535,-3.828000068664551 -2.1050000190734863,-4.593999862670898z M-2.1600000858306885,4.484000205993652 C-3.0350000858306885,3.6449999809265137 -3.563999891281128,2.496999979019165 -3.746000051498413,1.0390000343322754 C-3.746000051498413,1.0390000343322754 8.88700008392334,1.0390000343322754 8.88700008392334,1.0390000343322754 C8.960000038146973,0.7839999794960022 8.996000289916992,0.43799999356269836 8.996000289916992,0 C8.996000289916992,-2.5889999866485596 8.267000198364258,-4.64900016784668 6.809000015258789,-6.179999828338623 C5.38700008392334,-7.710999965667725 3.4719998836517334,-8.47700023651123 1.065999984741211,-8.47700023651123 C-1.340000033378601,-8.47700023651123 -3.2899999618530273,-7.692999839782715 -4.784999847412109,-6.125 C-6.28000020980835,-4.557000160217285 -7.0269999504089355,-2.5160000324249268 -7.0269999504089355,0 C-7.0269999504089355,2.5160000324249268 -6.297999858856201,4.557000160217285 -4.840000152587891,6.125 C-3.3450000286102295,7.692999839782715 -1.284999966621399,8.47700023651123 1.340000033378601,8.47700023651123 C2.9809999465942383,8.47700023651123 4.383999824523926,8.20300006866455 5.551000118255615,7.656000137329102 C6.754000186920166,7.109000205993652 7.71999979019165,6.3979997634887695 8.449000358581543,5.5229997634887695 C8.449000358581543,5.5229997634887695 6.206999778747559,3.555000066757202 6.206999778747559,3.555000066757202 C5.11299991607666,4.9770002365112305 3.490999937057495,5.688000202178955 1.340000033378601,5.688000202178955 C-0.0820000022649765,5.688000202178955 -1.2489999532699585,5.285999774932861 -2.1600000858306885,4.484000205993652z M-14.354999542236328,4.156000137329102 C-15.194000244140625,5.177000045776367 -16.343000411987305,5.688000202178955 -17.801000595092773,5.688000202178955 C-19.259000778198242,5.688000202178955 -20.426000595092773,5.177000045776367 -21.301000595092773,4.156000137329102 C-22.139999389648438,3.0989999771118164 -22.55900001525879,1.7139999866485596 -22.55900001525879,0 C-22.55900001525879,-1.7139999866485596 -22.139999389648438,-3.0810000896453857 -21.301000595092773,-4.1020002365112305 C-20.426000595092773,-5.158999919891357 -19.259000778198242,-5.688000202178955 -17.801000595092773,-5.688000202178955 C-16.343000411987305,-5.688000202178955 -15.194000244140625,-5.158999919891357 -14.354999542236328,-4.1020002365112305 C-13.515999794006348,-3.0810000896453857 -13.097999572753906,-1.7139999866485596 -13.097999572753906,0 C-13.097999572753906,1.7139999866485596 -13.515999794006348,3.0989999771118164 -14.354999542236328,4.156000137329102z M-11.729999542236328,-6.125 C-13.041999816894531,-7.692999839782715 -14.774999618530273,-8.47700023651123 -16.926000595092773,-8.47700023651123 C-18.093000411987305,-8.47700023651123 -19.167999267578125,-8.220999717712402 -20.152000427246094,-7.710999965667725 C-21.100000381469727,-7.236999988555908 -21.902999877929688,-6.544000148773193 -22.55900001525879,-5.632999897003174 C-22.55900001525879,-5.632999897003174 -22.777000427246094,-8.20300006866455 -22.777000427246094,-8.20300006866455 C-22.777000427246094,-8.20300006866455 -25.621000289916992,-8.20300006866455 -25.621000289916992,-8.20300006866455 C-25.621000289916992,-8.20300006866455 -25.621000289916992,13.67199993133545 -25.621000289916992,13.67199993133545 C-25.621000289916992,13.67199993133545 -22.34000015258789,13.67199993133545 -22.34000015258789,13.67199993133545 C-22.34000015258789,13.67199993133545 -22.34000015258789,6.015999794006348 -22.34000015258789,6.015999794006348 C-21.719999313354492,6.817999839782715 -20.95400047302246,7.436999797821045 -20.042999267578125,7.875 C-19.094999313354492,8.276000022888184 -18.055999755859375,8.47700023651123 -16.926000595092773,8.47700023651123 C-14.810999870300293,8.47700023651123 -13.097000122070312,7.692999839782715 -11.78499984741211,6.125 C-10.435999870300293,4.557000160217285 -9.76200008392334,2.5160000324249268 -9.76200008392334,0 C-9.76200008392334,-2.552000045776367 -10.418000221252441,-4.593999862670898 -11.729999542236328,-6.125z M-42.40999984741211,7.710999965667725 C-40.95199966430664,8.220999717712402 -39.40299987792969,8.47700023651123 -37.762001037597656,8.47700023651123 C-35.209999084472656,8.47700023651123 -33.20399856567383,7.929999828338623 -31.746000289916992,6.835999965667725 C-30.250999450683594,5.705999851226807 -29.503999710083008,4.173999786376953 -29.503999710083008,2.242000102996826 C-29.503999710083008,0.6010000109672546 -30.12299919128418,-0.656000018119812 -31.363000869750977,-1.531000018119812 C-32.566001892089844,-2.441999912261963 -34.444000244140625,-3.2269999980926514 -36.99599838256836,-3.882999897003174 C-38.819000244140625,-4.35699987411499 -40.095001220703125,-4.811999797821045 -40.82400131225586,-5.25 C-41.553001403808594,-5.723999977111816 -41.917999267578125,-6.3429999351501465 -41.917999267578125,-7.109000205993652 C-41.917999267578125,-7.947999954223633 -41.5359992980957,-8.604000091552734 -40.77000045776367,-9.07800006866455 C-40.00400161743164,-9.588000297546387 -38.983001708984375,-9.843999862670898 -37.707000732421875,-9.843999862670898 C-35.51900100708008,-9.843999862670898 -33.58700180053711,-9.151000022888184 -31.90999984741211,-7.765999794006348 C-31.90999984741211,-7.765999794006348 -29.996000289916992,-10.390999794006348 -29.996000289916992,-10.390999794006348 C-32.111000061035156,-12.031999588012695 -34.608001708984375,-12.85200023651123 -37.487998962402344,-12.85200023651123 C-39.858001708984375,-12.85200023651123 -41.77199935913086,-12.305000305175781 -43.22999954223633,-11.211000442504883 C-44.652000427246094,-10.154000282287598 -45.362998962402344,-8.730999946594238 -45.362998962402344,-6.945000171661377 C-45.362998962402344,-5.704999923706055 -45.016998291015625,-4.684999942779541 -44.32400131225586,-3.882999897003174 C-43.63100051879883,-3.0810000896453857 -42.775001525878906,-2.443000078201294 -41.75400161743164,-1.968999981880188 C-40.696998596191406,-1.531000018119812 -39.32899856567383,-1.0759999752044678 -37.652000427246094,-0.6019999980926514 C-35.86600112915039,-0.09200000017881393 -34.64400100708008,0.38199999928474426 -33.987998962402344,0.8199999928474426 C-33.29499816894531,1.2580000162124634 -32.94900131225586,1.840999960899353 -32.94900131225586,2.569999933242798 C-32.94900131225586,3.4809999465942383 -33.349998474121094,4.192999839782715 -34.152000427246094,4.703000068664551 C-34.95399856567383,5.2129998207092285 -36.066001892089844,5.468999862670898 -37.487998962402344,5.468999862670898 C-38.72800064086914,5.468999862670898 -39.930999755859375,5.25 -41.097999572753906,4.811999797821045 C-42.22800064086914,4.3379998207092285 -43.22999954223633,3.683000087738037 -44.10499954223633,2.8440001010894775 C-44.10499954223633,2.8440001010894775 -46.12900161743164,5.468999862670898 -46.12900161743164,5.468999862670898 C-45.071998596191406,6.453000068664551 -43.832000732421875,7.201000213623047 -42.40999984741211,7.710999965667725z">
					</path>
				</g>
			</g>
			<g transform="matrix(1,0,0,1,401,190.15475463867188)" opacity="1">
				<g opacity="1" transform="matrix(1,0,0,1,0,0)">
					<path stroke="url(#__lottie_element_107)" stroke-linecap="round" stroke-linejoin="round" fill-opacity="0" stroke-opacity="1" stroke-width="2" d=" M1.5,-3 C1.5,-3 1.5,-13.5 1.5,-13.5 C1.5,-13.5 -10.5,3 -10.5,3 C-10.5,3 -1.5,3 -1.5,3 C-1.5,3 -1.5,13.5 -1.5,13.5 C-1.5,13.5 10.5,-3 10.5,-3 C10.5,-3 1.5,-3 1.5,-3z">
					</path>
				</g>
			</g>
		</g>
		<g>
			<animateTransform attributeName="transform" attributeType="XML" type="translate" values="0,0; -15,15; 0,0" dur="2.5s" keyTimes="0; 0.5; 1" repeatCount="indefinite" />
			<g transform="matrix(-1,0,0,1,201.42674255371094,579.5732421875)" opacity="1">
				<g opacity="1" transform="matrix(1,0,0,1,0,0)">
					<path stroke="url(#__lottie_element_93)" stroke-linecap="butt" stroke-linejoin="miter" fill-opacity="0" stroke-miterlimit="4" stroke-opacity="1" stroke-width="2" d=" M-2,-196.53590393066406 C-0.8962000012397766,-198.44773864746094 0.8962000012397766,-198.44773864746094 2,-196.53590393066406 C2,-196.53590393066406 171.205078125,96.53589630126953 171.205078125,96.53589630126953 C172.3088836669922,98.44773864746094 171.4126739501953,100 169.205078125,100 C169.205078125,100 -169.205078125,100 -169.205078125,100 C-171.4126739501953,100 -172.3088836669922,98.44773864746094 -171.205078125,96.53589630126953 C-171.205078125,96.53589630126953 -2,-196.53590393066406 -2,-196.53590393066406z">
					</path>
				</g>
			</g>
			<g transform="matrix(1,0,0,1,201.53573608398438,587.1822509765625)" opacity="1">
				<g opacity="1" transform="matrix(1,0,0,1,0,0)">
					<path fill="rgb(255,255,255)" fill-opacity="1" d=" M28.082000732421875,5.414000034332275 C28.082000732421875,5.414000034332275 28.082000732421875,-3.2269999980926514 28.082000732421875,-3.2269999980926514 C28.082000732421875,-3.2269999980926514 33.112998962402344,-3.2269999980926514 33.112998962402344,-3.2269999980926514 C33.112998962402344,-3.2269999980926514 33.112998962402344,-6.015999794006348 33.112998962402344,-6.015999794006348 C33.112998962402344,-6.015999794006348 28.082000732421875,-6.015999794006348 28.082000732421875,-6.015999794006348 C28.082000732421875,-6.015999794006348 28.082000732421875,-10.390999794006348 28.082000732421875,-10.390999794006348 C28.082000732421875,-10.390999794006348 25.238000869750977,-10.390999794006348 25.238000869750977,-10.390999794006348 C25.238000869750977,-10.390999794006348 24.801000595092773,-6.015999794006348 24.801000595092773,-6.015999794006348 C24.801000595092773,-6.015999794006348 21.573999404907227,-6.015999794006348 21.573999404907227,-6.015999794006348 C21.573999404907227,-6.015999794006348 21.573999404907227,-3.2269999980926514 21.573999404907227,-3.2269999980926514 C21.573999404907227,-3.2269999980926514 24.801000595092773,-3.2269999980926514 24.801000595092773,-3.2269999980926514 C24.801000595092773,-3.2269999980926514 24.801000595092773,6.070000171661377 24.801000595092773,6.070000171661377 C24.801000595092773,7.565000057220459 25.219999313354492,8.71399974822998 26.05900001525879,9.515999794006348 C26.93400001525879,10.281999588012695 28.17300033569336,10.663999557495117 29.777000427246094,10.663999557495117 C30.979999542236328,10.663999557495117 32.09199905395508,10.53600025177002 33.112998962402344,10.281000137329102 C33.112998962402344,10.281000137329102 33.112998962402344,7.2729997634887695 33.112998962402344,7.2729997634887695 C32.237998962402344,7.492000102996826 31.344999313354492,7.6020002365112305 30.43400001525879,7.6020002365112305 C29.594999313354492,7.6020002365112305 28.993999481201172,7.436999797821045 28.628999710083008,7.109000205993652 C28.263999938964844,6.781000137329102 28.082000732421875,6.216000080108643 28.082000732421875,5.414000034332275z M6.426000118255615,8.14799976348877 C8.28499984741211,9.824999809265137 10.63599967956543,10.663999557495117 13.479999542236328,10.663999557495117 C15.522000312805176,10.663999557495117 17.145000457763672,10.22700023651123 18.347999572753906,9.35200023651123 C19.551000595092773,8.440999984741211 20.152000427246094,7.236999988555908 20.152000427246094,5.742000102996826 C20.152000427246094,4.466000080108643 19.67799949645996,3.446000099182129 18.729999542236328,2.680000066757202 C17.819000244140625,1.9140000343322754 16.232999801635742,1.2389999628067017 13.972999572753906,0.656000018119812 C12.588000297546387,0.29100000858306885 11.621000289916992,-0.054999999701976776 11.074000358581543,-0.382999986410141 C10.564000129699707,-0.7110000252723694 10.309000015258789,-1.13100004196167 10.309000015258789,-1.6410000324249268 C10.309000015258789,-2.2239999771118164 10.581999778747559,-2.680000066757202 11.128999710083008,-3.007999897003174 C11.711999893188477,-3.3359999656677246 12.477999687194824,-3.5 13.425999641418457,-3.5 C15.102999687194824,-3.5 16.615999221801758,-2.934999942779541 17.96500015258789,-1.8049999475479126 C17.96500015258789,-1.8049999475479126 19.823999404907227,-4.265999794006348 19.823999404907227,-4.265999794006348 C17.96500015258789,-5.614999771118164 15.88700008392334,-6.289000034332275 13.59000015258789,-6.289000034332275 C11.657999992370605,-6.289000034332275 10.09000015258789,-5.833000183105469 8.88700008392334,-4.921999931335449 C7.71999979019165,-4.046999931335449 7.13700008392334,-2.880000114440918 7.13700008392334,-1.4220000505447388 C7.13700008392334,-0.18199999630451202 7.5929999351501465,0.8199999928474426 8.503999710083008,1.5859999656677246 C9.414999961853027,2.3519999980926514 10.946999549865723,3.007999897003174 13.097999572753906,3.555000066757202 C14.593000411987305,3.9200000762939453 15.61299991607666,4.265999794006348 16.15999984741211,4.593999862670898 C16.707000732421875,4.921999931335449 16.979999542236328,5.359000205993652 16.979999542236328,5.906000137329102 C16.979999542236328,6.526000022888184 16.67099952697754,7 16.051000595092773,7.328000068664551 C15.468000411987305,7.656000137329102 14.647000312805176,7.820000171661377 13.59000015258789,7.820000171661377 C11.439000129699707,7.820000171661377 9.652000427246094,7.145999908447266 8.229999542236328,5.796999931335449 C8.229999542236328,5.796999931335449 6.426000118255615,8.14799976348877 6.426000118255615,8.14799976348877z M-0.4650000035762787,6.343999862670898 C-1.3760000467300415,7.364999771118164 -2.5789999961853027,7.875 -4.073999881744385,7.875 C-5.568999767303467,7.875 -6.7729997634887695,7.364999771118164 -7.684000015258789,6.343999862670898 C-8.595000267028809,5.2870001792907715 -9.050999641418457,3.9019999504089355 -9.050999641418457,2.187999963760376 C-9.050999641418457,0.4740000069141388 -8.595000267028809,-0.8930000066757202 -7.684000015258789,-1.9140000343322754 C-6.7729997634887695,-2.9709999561309814 -5.568999767303467,-3.5 -4.073999881744385,-3.5 C-2.5789999961853027,-3.5 -1.3760000467300415,-2.9709999561309814 -0.4650000035762787,-1.9140000343322754 C0.44600000977516174,-0.8930000066757202 0.9020000100135803,0.4740000069141388 0.9020000100135803,2.187999963760376 C0.9020000100135803,3.9019999504089355 0.44600000977516174,5.2870001792907715 -0.4650000035762787,6.343999862670898z M-10.145000457763672,8.366999626159668 C-8.61400032043457,9.89799976348877 -6.590000152587891,10.663999557495117 -4.073999881744385,10.663999557495117 C-1.5950000286102295,10.663999557495117 0.4099999964237213,9.880000114440918 1.940999984741211,8.312000274658203 C3.4719998836517334,6.74399995803833 4.23799991607666,4.703999996185303 4.23799991607666,2.187999963760376 C4.23799991607666,-0.36399999260902405 3.4719998836517334,-2.4070000648498535 1.940999984741211,-3.937999963760376 C0.44600000977516174,-5.50600004196167 -1.5579999685287476,-6.289000034332275 -4.073999881744385,-6.289000034332275 C-6.552999973297119,-6.289000034332275 -8.559000015258789,-5.50600004196167 -10.09000015258789,-3.937999963760376 C-11.621000289916992,-2.369999885559082 -12.38700008392334,-0.328000009059906 -12.38700008392334,2.187999963760376 C-12.38700008392334,4.739999771118164 -11.640000343322754,6.798999786376953 -10.145000457763672,8.366999626159668z M-30.43400001525879,7.765999794006348 C-28.611000061035156,9.697999954223633 -26.204999923706055,10.663999557495117 -23.21500015258789,10.663999557495117 C-21.100000381469727,10.663999557495117 -19.277000427246094,10.135000228881836 -17.746000289916992,9.07800006866455 C-16.21500015258789,7.984000205993652 -15.140000343322754,6.4710001945495605 -14.520000457763672,4.539000034332275 C-14.520000457763672,4.539000034332275 -17.746000289916992,3.3910000324249268 -17.746000289916992,3.3910000324249268 C-18.54800033569336,6.235000133514404 -20.389999389648438,7.656000137329102 -23.270000457763672,7.656000137329102 C-25.20199966430664,7.656000137329102 -26.732999801635742,6.98199987411499 -27.863000869750977,5.632999897003174 C-28.993000030517578,4.248000144958496 -29.55900001525879,2.369999885559082 -29.55900001525879,0 C-29.55900001525879,-2.3329999446868896 -28.993000030517578,-4.192999839782715 -27.863000869750977,-5.578000068664551 C-26.695999145507812,-6.9629998207092285 -25.166000366210938,-7.656000137329102 -23.270000457763672,-7.656000137329102 C-20.389999389648438,-7.656000137329102 -18.54800033569336,-6.235000133514404 -17.746000289916992,-3.3910000324249268 C-17.746000289916992,-3.3910000324249268 -14.520000457763672,-4.539000034332275 -14.520000457763672,-4.539000034332275 C-15.102999687194824,-6.507999897003174 -16.15999984741211,-8.020999908447266 -17.69099998474121,-9.07800006866455 C-19.222000122070312,-10.135000228881836 -21.06399917602539,-10.663999557495117 -23.21500015258789,-10.663999557495117 C-25.14699935913086,-10.663999557495117 -26.860000610351562,-10.208000183105469 -28.354999542236328,-9.29699993133545 C-29.850000381469727,-8.42199993133545 -31.016000747680664,-7.164000034332275 -31.854999542236328,-5.5229997634887695 C-32.694000244140625,-3.9189999103546143 -33.112998962402344,-2.078000068664551 -33.112998962402344,0 C-33.112998962402344,3.244999885559082 -32.220001220703125,5.834000110626221 -30.43400001525879,7.765999794006348z">
					</path>
				</g>
			</g>
			<g transform="matrix(1,0,0,1,202.42674255371094,540.5732421875)" opacity="1">
				<g opacity="1" transform="matrix(1,0,0,1,0,0)">
					<path fill="url(#__lottie_element_114)" fill-opacity="1" d=" M0,-14.5 C0.5519999861717224,-14.5 1,-14.052000045776367 1,-13.5 C1,-13.5 1,-10 1,-10 C1,-10 3,-10 3,-10 C3.0139999389648438,-10 3.0290000438690186,-10 3.0429999828338623,-9.99899959564209 C4.139999866485596,-9.95199966430664 5.197999954223633,-9.57699966430664 6.079999923706055,-8.923999786376953 C6.961999893188477,-8.270999908447266 7.627999782562256,-7.367000102996826 7.993000030517578,-6.331999778747559 C8.177000045776367,-5.810999870300293 7.9029998779296875,-5.241000175476074 7.381999969482422,-5.057000160217285 C6.861000061035156,-4.873000144958496 6.290999889373779,-5.146999835968018 6.10699987411499,-5.668000221252441 C5.875,-6.327000141143799 5.449999809265137,-6.901000022888184 4.888999938964844,-7.316999912261963 C4.333000183105469,-7.729000091552734 3.6679999828338623,-7.966000080108643 2.9769999980926514,-8 C2.9769999980926514,-8 0,-8 0,-8 C0,-8 -3,-8 -3,-8 C-3.927999973297119,-8 -4.818999767303467,-7.63100004196167 -5.474999904632568,-6.974999904632568 C-6.13100004196167,-6.318999767303467 -6.5,-5.427999973297119 -6.5,-4.5 C-6.5,-3.572000026702881 -6.13100004196167,-2.680999994277954 -5.474999904632568,-2.0250000953674316 C-4.818999767303467,-1.36899995803833 -3.927999973297119,-1 -3,-1 C-3,-1 3,-1 3,-1 C4.459000110626221,-1 5.857999801635742,-0.41999998688697815 6.888999938964844,0.6110000014305115 C7.920000076293945,1.6419999599456787 8.5,3.0409998893737793 8.5,4.5 C8.5,5.959000110626221 7.920000076293945,7.357999801635742 6.888999938964844,8.388999938964844 C5.857999801635742,9.420000076293945 4.459000110626221,10 3,10 C3,10 1,10 1,10 C1,10 1,13.5 1,13.5 C1,14.052000045776367 0.5519999861717224,14.5 0,14.5 C-0.5519999861717224,14.5 -1,14.052000045776367 -1,13.5 C-1,13.5 -1,10 -1,10 C-1,10 -3,10 -3,10 C-3.0139999389648438,10 -3.0290000438690186,10 -3.0429999828338623,9.99899959564209 C-4.139999866485596,9.95199966430664 -5.197999954223633,9.57699966430664 -6.079999923706055,8.923999786376953 C-6.961999893188477,8.270999908447266 -7.627999782562256,7.367000102996826 -7.993000030517578,6.331999778747559 C-8.177000045776367,5.810999870300293 -7.9029998779296875,5.241000175476074 -7.381999969482422,5.057000160217285 C-6.861000061035156,4.873000144958496 -6.290999889373779,5.146999835968018 -6.10699987411499,5.668000221252441 C-5.875,6.327000141143799 -5.449999809265137,6.901000022888184 -4.888999938964844,7.316999912261963 C-4.333000183105469,7.729000091552734 -3.6679999828338623,7.966000080108643 -2.9769999980926514,8 C-2.9769999980926514,8 -0.0020000000949949026,8 -0.0020000000949949026,8 C-0.0010000000474974513,8 -0.0010000000474974513,8 0,8 C0.0010000000474974513,8 0.0010000000474974513,8 0.0020000000949949026,8 C0.0020000000949949026,8 3,8 3,8 C3.927999973297119,8 4.818999767303467,7.63100004196167 5.474999904632568,6.974999904632568 C6.13100004196167,6.318999767303467 6.5,5.427999973297119 6.5,4.5 C6.5,3.572000026702881 6.13100004196167,2.680999994277954 5.474999904632568,2.0250000953674316 C4.818999767303467,1.36899995803833 3.927999973297119,1 3,1 C3,1 -3,1 -3,1 C-4.459000110626221,1 -5.857999801635742,0.41999998688697815 -6.888999938964844,-0.6110000014305115 C-7.920000076293945,-1.6419999599456787 -8.5,-3.0409998893737793 -8.5,-4.5 C-8.5,-5.959000110626221 -7.920000076293945,-7.357999801635742 -6.888999938964844,-8.388999938964844 C-5.857999801635742,-9.420000076293945 -4.459000110626221,-10 -3,-10 C-3,-10 -1,-10 -1,-10 C-1,-10 -1,-13.5 -1,-13.5 C-1,-14.052000045776367 -0.5519999861717224,-14.5 0,-14.5z">
					</path>
				</g>
			</g>
		</g>
		<g>
			<animateTransform attributeName="transform" attributeType="XML" type="translate" values="0,0; 15,15; 0,0" dur="2.5s" keyTimes="0; 0.5; 1" repeatCount="indefinite" />
			<g transform="matrix(1,0,0,1,599.6752319335938,589.4522705078125)" opacity="1">
				<g opacity="1" transform="matrix(1,0,0,1,0,0)">
					<path fill="rgb(255,255,255)" fill-opacity="1" d=" M47.35900115966797,8.722999572753906 C47.35900115966797,8.722999572753906 53.43000030517578,-8.28499984741211 53.43000030517578,-8.28499984741211 C53.43000030517578,-8.28499984741211 50.03900146484375,-8.28499984741211 50.03900146484375,-8.28499984741211 C50.03900146484375,-8.28499984741211 45.55500030517578,5.440999984741211 45.55500030517578,5.440999984741211 C45.55500030517578,5.440999984741211 39.8120002746582,-8.28499984741211 39.8120002746582,-8.28499984741211 C39.8120002746582,-8.28499984741211 36.202999114990234,-8.28499984741211 36.202999114990234,-8.28499984741211 C36.202999114990234,-8.28499984741211 43.91400146484375,9.21500015258789 43.91400146484375,9.21500015258789 C43.29399871826172,10.345000267028809 42.58300018310547,10.90999984741211 41.78099822998047,10.90999984741211 C40.54100036621094,10.90999984741211 39.95800018310547,10.126999855041504 40.03099822998047,8.559000015258789 C40.03099822998047,8.559000015258789 37.02299880981445,9.050999641418457 37.02299880981445,9.050999641418457 C37.02299880981445,10.399999618530273 37.42499923706055,11.529999732971191 38.22700119018555,12.440999984741211 C39.02899932861328,13.388999938964844 40.19599914550781,13.86299991607666 41.72700119018555,13.86299991607666 C43.03900146484375,13.86299991607666 44.16899871826172,13.388999938964844 45.117000579833984,12.440999984741211 C46.064998626708984,11.529999732971191 46.8120002746582,10.291000366210938 47.35900115966797,8.722999572753906z M30.023000717163086,3.1449999809265137 C30.023000717163086,3.1449999809265137 30.023000717163086,-5.495999813079834 30.023000717163086,-5.495999813079834 C30.023000717163086,-5.495999813079834 35.05500030517578,-5.495999813079834 35.05500030517578,-5.495999813079834 C35.05500030517578,-5.495999813079834 35.05500030517578,-8.28499984741211 35.05500030517578,-8.28499984741211 C35.05500030517578,-8.28499984741211 30.023000717163086,-8.28499984741211 30.023000717163086,-8.28499984741211 C30.023000717163086,-8.28499984741211 30.023000717163086,-12.65999984741211 30.023000717163086,-12.65999984741211 C30.023000717163086,-12.65999984741211 27.18000030517578,-12.65999984741211 27.18000030517578,-12.65999984741211 C27.18000030517578,-12.65999984741211 26.742000579833984,-8.28499984741211 26.742000579833984,-8.28499984741211 C26.742000579833984,-8.28499984741211 23.516000747680664,-8.28499984741211 23.516000747680664,-8.28499984741211 C23.516000747680664,-8.28499984741211 23.516000747680664,-5.495999813079834 23.516000747680664,-5.495999813079834 C23.516000747680664,-5.495999813079834 26.742000579833984,-5.495999813079834 26.742000579833984,-5.495999813079834 C26.742000579833984,-5.495999813079834 26.742000579833984,3.8010001182556152 26.742000579833984,3.8010001182556152 C26.742000579833984,5.296000003814697 27.160999298095703,6.443999767303467 28,7.245999813079834 C28.875,8.01200008392334 30.114999771118164,8.395000457763672 31.7189998626709,8.395000457763672 C32.922000885009766,8.395000457763672 34.034000396728516,8.267000198364258 35.05500030517578,8.01200008392334 C35.05500030517578,8.01200008392334 35.05500030517578,5.004000186920166 35.05500030517578,5.004000186920166 C34.18000030517578,5.2230000495910645 33.2859992980957,5.331999778747559 32.375,5.331999778747559 C31.535999298095703,5.331999778747559 30.934999465942383,5.168000221252441 30.56999969482422,4.840000152587891 C30.204999923706055,4.51200008392334 30.023000717163086,3.947000026702881 30.023000717163086,3.1449999809265137z M20.125,-13.86299991607666 C20.125,-13.86299991607666 16.516000747680664,-13.86299991607666 16.516000747680664,-13.86299991607666 C16.516000747680664,-13.86299991607666 16.516000747680664,-10.581999778747559 16.516000747680664,-10.581999778747559 C16.516000747680664,-10.581999778747559 20.125,-10.581999778747559 20.125,-10.581999778747559 C20.125,-10.581999778747559 20.125,-13.86299991607666 20.125,-13.86299991607666z M19.961000442504883,-8.28499984741211 C19.961000442504883,-8.28499984741211 16.68000030517578,-8.28499984741211 16.68000030517578,-8.28499984741211 C16.68000030517578,-8.28499984741211 16.68000030517578,8.121000289916992 16.68000030517578,8.121000289916992 C16.68000030517578,8.121000289916992 19.961000442504883,8.121000289916992 19.961000442504883,8.121000289916992 C19.961000442504883,8.121000289916992 19.961000442504883,-8.28499984741211 19.961000442504883,-8.28499984741211z M11.265999794006348,-13.753999710083008 C11.265999794006348,-13.753999710083008 7.984000205993652,-13.753999710083008 7.984000205993652,-13.753999710083008 C7.984000205993652,-13.753999710083008 7.984000205993652,8.121000289916992 7.984000205993652,8.121000289916992 C7.984000205993652,8.121000289916992 11.265999794006348,8.121000289916992 11.265999794006348,8.121000289916992 C11.265999794006348,8.121000289916992 11.265999794006348,-13.753999710083008 11.265999794006348,-13.753999710083008z M-1.9140000343322754,4.565999984741211 C-2.825000047683716,5.331999778747559 -3.9189999103546143,5.715000152587891 -5.195000171661377,5.715000152587891 C-6.033999919891357,5.715000152587891 -6.690000057220459,5.513999938964844 -7.164000034332275,5.11299991607666 C-7.638000011444092,4.711999893188477 -7.875,4.129000186920166 -7.875,3.36299991607666 C-7.875,2.4149999618530273 -7.5289998054504395,1.7769999504089355 -6.835999965667725,1.4490000009536743 C-6.10699987411499,1.0839999914169312 -5.048999786376953,0.7929999828338623 -3.6640000343322754,0.5740000009536743 C-2.934999942779541,0.4650000035762787 -2.296999931335449,0.35499998927116394 -1.75,0.2460000067949295 C-1.1670000553131104,0.10000000149011612 -0.746999979019165,-0.06400000303983688 -0.492000013589859,-0.2460000067949295 C-0.492000013589859,-0.2460000067949295 -0.492000013589859,1.8869999647140503 -0.492000013589859,1.8869999647140503 C-0.492000013589859,2.9079999923706055 -0.9660000205039978,3.799999952316284 -1.9140000343322754,4.565999984741211z M4.320000171661377,8.121000289916992 C4.320000171661377,8.121000289916992 4.320000171661377,5.2769999504089355 4.320000171661377,5.2769999504089355 C4.320000171661377,5.2769999504089355 3.7190001010894775,5.2769999504089355 3.7190001010894775,5.2769999504089355 C3.0260000228881836,5.2769999504089355 2.680000066757202,4.931000232696533 2.680000066757202,4.23799991607666 C2.680000066757202,4.23799991607666 2.680000066757202,-3.1449999809265137 2.680000066757202,-3.1449999809265137 C2.680000066757202,-4.822000026702881 2.114000082015991,-6.133999824523926 0.984000027179718,-7.081999778747559 C-0.1459999978542328,-8.065999984741211 -1.6950000524520874,-8.559000015258789 -3.6640000343322754,-8.559000015258789 C-6.434999942779541,-8.559000015258789 -8.803999900817871,-7.629000186920166 -10.77299976348877,-5.769999980926514 C-10.77299976348877,-5.769999980926514 -8.75,-3.63700008392334 -8.75,-3.63700008392334 C-8.093999862670898,-4.329999923706055 -7.3470001220703125,-4.857999801635742 -6.507999897003174,-5.2230000495910645 C-5.632999897003174,-5.624000072479248 -4.738999843597412,-5.823999881744385 -3.828000068664551,-5.823999881744385 C-2.806999921798706,-5.823999881744385 -1.9869999885559082,-5.624000072479248 -1.3669999837875366,-5.2230000495910645 C-0.7110000252723694,-4.822000026702881 -0.382999986410141,-4.293000221252441 -0.382999986410141,-3.63700008392334 C-0.382999986410141,-3.053999900817871 -0.656000018119812,-2.6530001163482666 -1.2029999494552612,-2.434000015258789 C-1.7130000591278076,-2.2149999141693115 -2.6619999408721924,-2.0139999389648438 -4.046999931335449,-1.8320000171661377 C-6.1620001792907715,-1.503999948501587 -7.875999927520752,-0.9570000171661377 -9.187999725341797,-0.19099999964237213 C-10.46399974822998,0.5379999876022339 -11.10200023651123,1.7960000038146973 -11.10200023651123,3.5820000171661377 C-11.10200023651123,5.004000186920166 -10.609000205993652,6.171000003814697 -9.625,7.081999778747559 C-8.640999794006348,7.956999778747559 -7.3460001945495605,8.395000457763672 -5.742000102996826,8.395000457763672 C-4.539000034332275,8.395000457763672 -3.427000045776367,8.138999938964844 -2.4059998989105225,7.629000186920166 C-1.3849999904632568,7.11899995803833 -0.5830000042915344,6.443999767303467 0,5.605000019073486 C0.10899999737739563,6.552999973297119 0.4009999930858612,7.228000164031982 0.875,7.629000186920166 C1.3849999904632568,8.029999732971191 2.1510000228881836,8.229999542236328 3.171999931335449,8.229999542236328 C3.7190001010894775,8.229999542236328 4.10099983215332,8.194000244140625 4.320000171661377,8.121000289916992z M-14.765999794006348,8.121000289916992 C-14.765999794006348,8.121000289916992 -14.765999794006348,-8.28499984741211 -14.765999794006348,-8.28499984741211 C-14.765999794006348,-8.28499984741211 -18.047000885009766,-8.28499984741211 -18.047000885009766,-8.28499984741211 C-18.047000885009766,-8.28499984741211 -18.047000885009766,1.121000051498413 -18.047000885009766,1.121000051498413 C-18.047000885009766,2.433000087738037 -18.503000259399414,3.509000062942505 -19.413999557495117,4.3480000495910645 C-20.288999557495117,5.186999797821045 -21.382999420166016,5.605000019073486 -22.69499969482422,5.605000019073486 C-23.825000762939453,5.605000019073486 -24.7189998626709,5.2230000495910645 -25.375,4.456999778747559 C-25.9950008392334,3.690999984741211 -26.30500030517578,2.615000009536743 -26.30500030517578,1.2300000190734863 C-26.30500030517578,1.2300000190734863 -26.30500030517578,-8.28499984741211 -26.30500030517578,-8.28499984741211 C-26.30500030517578,-8.28499984741211 -29.586000442504883,-8.28499984741211 -29.586000442504883,-8.28499984741211 C-29.586000442504883,-8.28499984741211 -29.586000442504883,2.1050000190734863 -29.586000442504883,2.1050000190734863 C-29.586000442504883,3.9639999866485596 -29.038999557495117,5.478000164031982 -27.94499969482422,6.644999980926514 C-26.815000534057617,7.811999797821045 -25.375,8.395000457763672 -23.625,8.395000457763672 C-22.422000885009766,8.395000457763672 -21.327999114990234,8.138999938964844 -20.3439998626709,7.629000186920166 C-19.322999954223633,7.11899995803833 -18.483999252319336,6.426000118255615 -17.827999114990234,5.551000118255615 C-17.827999114990234,5.551000118255615 -17.608999252319336,8.121000289916992 -17.608999252319336,8.121000289916992 C-17.608999252319336,8.121000289916992 -14.765999794006348,8.121000289916992 -14.765999794006348,8.121000289916992z M-48.125,3.309000015258789 C-49.29199981689453,1.8869999647140503 -49.875,0.027000000700354576 -49.875,-2.2699999809265137 C-49.875,-4.566999912261963 -49.29199981689453,-6.4079999923706055 -48.125,-7.793000221252441 C-46.95800018310547,-9.21500015258789 -45.39099884033203,-9.925999641418457 -43.422000885009766,-9.925999641418457 C-41.452999114990234,-9.925999641418457 -39.88600158691406,-9.21500015258789 -38.71900177001953,-7.793000221252441 C-37.551998138427734,-6.4079999923706055 -36.96900177001953,-4.566999912261963 -36.96900177001953,-2.2699999809265137 C-36.96900177001953,0.027000000700354576 -37.551998138427734,1.8869999647140503 -38.71900177001953,3.309000015258789 C-39.88600158691406,4.693999767303467 -41.452999114990234,5.38700008392334 -43.422000885009766,5.38700008392334 C-45.39099884033203,5.38700008392334 -46.95800018310547,4.693999767303467 -48.125,3.309000015258789z M-35.71099853515625,4.840000152587891 C-34.18000030517578,2.944000005722046 -33.41400146484375,0.5740000009536743 -33.41400146484375,-2.2699999809265137 C-33.41400146484375,-5.514999866485596 -34.32500076293945,-8.102999687194824 -36.14799880981445,-10.03499984741211 C-37.97100067138672,-11.967000007629395 -40.395999908447266,-12.934000015258789 -43.422000885009766,-12.934000015258789 C-45.354000091552734,-12.934000015258789 -47.08599853515625,-12.47700023651123 -48.617000579833984,-11.565999984741211 C-50.14799880981445,-10.690999984741211 -51.33300018310547,-9.434000015258789 -52.172000885009766,-7.793000221252441 C-53.01100158691406,-6.189000129699707 -53.43000030517578,-4.3480000495910645 -53.43000030517578,-2.2699999809265137 C-53.43000030517578,0.6830000281333923 -52.66400146484375,3.1080000400543213 -51.132999420166016,5.004000186920166 C-49.60200119018555,6.900000095367432 -47.52299880981445,7.993000030517578 -44.89799880981445,8.28499984741211 C-44.89799880981445,8.28499984741211 -44.89799880981445,9.104999542236328 -44.89799880981445,9.104999542236328 C-44.89799880981445,10.746000289916992 -44.49700164794922,11.911999702453613 -43.69499969482422,12.604999542236328 C-42.893001556396484,13.333999633789062 -41.70899963378906,13.699000358581543 -40.14099884033203,13.699000358581543 C-39.448001861572266,13.699000358581543 -38.51900100708008,13.663000106811523 -37.35200119018555,13.59000015258789 C-37.35200119018555,13.59000015258789 -37.35200119018555,10.800999641418457 -37.35200119018555,10.800999641418457 C-38.44599914550781,10.87399959564209 -39.301998138427734,10.90999984741211 -39.922000885009766,10.90999984741211 C-41.125,10.90999984741211 -41.72700119018555,10.36400032043457 -41.72700119018555,9.270000457763672 C-41.72700119018555,9.270000457763672 -41.72700119018555,8.28499984741211 -41.72700119018555,8.28499984741211 C-39.21099853515625,7.883999824523926 -37.20600128173828,6.736000061035156 -35.71099853515625,4.840000152587891z">
					</path>
				</g>
			</g>
			<g transform="matrix(1,0,0,1,599.5732421875,536.0732421875)" opacity="1">
				<g opacity="1" transform="matrix(1,0,0,1,0,0)">
					<path stroke="url(#__lottie_element_121)" stroke-linecap="round" stroke-linejoin="round" fill-opacity="0" stroke-opacity="1" stroke-width="2" d=" M0,9 C4.9710001945495605,9 9,4.9710001945495605 9,0 C9,-4.9710001945495605 4.9710001945495605,-9 0,-9 C-4.9710001945495605,-9 -9,-4.9710001945495605 -9,0 C-9,4.9710001945495605 -4.9710001945495605,9 0,9z">
					</path>
				</g>
			</g>
			<g transform="matrix(1,0,0,1,606.0232543945312,547.2452392578125)" opacity="1" style="display: block;">
				<g opacity="1" transform="matrix(0.8660253882408142,-0.5,0.5,0.8660253882408142,0,0)">
					<path stroke-linecap="round" stroke-linejoin="round" fill-opacity="0" stroke="rgb(89,95,254)" stroke-opacity="1" stroke-width="2" d=" M4.5,-5.099999904632568 C4.5,-5.099999904632568 4.5,5.099999904632568 4.5,5.099999904632568 C4.5,5.099999904632568 0,2.0999999046325684 0,2.0999999046325684 C0,2.0999999046325684 -4.5,5.099999904632568 -4.5,5.099999904632568 C-4.5,5.099999904632568 -4.5,-5.099999904632568 -4.5,-5.099999904632568">
					</path>
				</g>
			</g>
			<g transform="matrix(1,0,0,1,593.1232299804688,547.2452392578125)" opacity="1" style="display: block;">
				<g opacity="1" transform="matrix(0.8660253882408142,0.5,-0.5,0.8660253882408142,0,0)">
					<path stroke-linecap="round" stroke-linejoin="round" fill-opacity="0" stroke="rgb(89,95,254)" stroke-opacity="1" stroke-width="2" d=" M4.5,-5.099999904632568 C4.5,-5.099999904632568 4.5,5.099999904632568 4.5,5.099999904632568 C4.5,5.099999904632568 0,2.0999999046325684 0,2.0999999046325684 C0,2.0999999046325684 -4.5,5.099999904632568 -4.5,5.099999904632568 C-4.5,5.099999904632568 -4.5,-5.099999904632568 -4.5,-5.099999904632568">
					</path>
				</g>
			</g>
		</g>
		<g transform="matrix(0.15000000596046448,0,0,0.15000000596046448,331.9750061035156,399.3370056152344)" opacity="1" style="display: block;">
			<g opacity="1" transform="matrix(1,0,0,1,450.1659851074219,586.9550170898438)">
				<path stroke-linecap="butt" stroke-linejoin="miter" fill-opacity="0" stroke-miterlimit="10" stroke="rgb(255,255,255)" stroke-opacity="1" stroke-width="90" d=" M216.39300537109375,-147.3419952392578 C241.74899291992188,-48.74700164794922 211.25799560546875,33.05699920654297 163.0760040283203,82.96700286865234 C121.65699768066406,124.48600006103516 63.882999420166016,147.3419952392578 0.4000000059604645,147.3419952392578 C0.4000000059604645,147.3419952392578 0,147.3419952392578 0,147.3419952392578 C0,147.3419952392578 -0.4000000059604645,147.3419952392578 -0.4000000059604645,147.3419952392578 C-63.882999420166016,147.3419952392578 -121.65599822998047,124.48600006103516 -163.0749969482422,82.96700286865234 C-211.25799560546875,33.05699920654297 -241.74899291992188,-48.74700164794922 -216.39300537109375,-147.3419952392578">
				</path>
			</g>
		</g>
		<g transform="matrix(0.14420731365680695,0.04128256067633629,-0.04128256067633629,0.14420731365680695,346.0594482421875,385.5821228027344)" opacity="1" style="display: block;">
			<g opacity="1" transform="matrix(1,0,0,1,318.27301025390625,252.70599365234375)">
				<path fill="rgb(255,134,134)" fill-opacity="1" d=" M-87.15799713134766,-12.465999603271484 C-87.15799713134766,-12.465999603271484 87.15799713134766,-12.465999603271484 87.15799713134766,-12.465999603271484 C87.15799713134766,-12.465999603271484 87.15799713134766,12.465999603271484 87.15799713134766,12.465999603271484 C87.15799713134766,12.465999603271484 -87.15799713134766,12.465999603271484 -87.15799713134766,12.465999603271484 C-87.15799713134766,12.465999603271484 -87.15799713134766,-12.465999603271484 -87.15799713134766,-12.465999603271484z">
				</path>
			</g>
			<g opacity="1" transform="matrix(1,0,0,1,318.27398681640625,252.70599365234375)">
				<path fill="rgb(255,134,134)" fill-opacity="1" d=" M52.814998626708984,-70.44499969482422 C52.814998626708984,-70.44499969482422 70.44400024414062,-52.814998626708984 70.44400024414062,-52.814998626708984 C70.44400024414062,-52.814998626708984 -52.814998626708984,70.44499969482422 -52.814998626708984,70.44499969482422 C-52.814998626708984,70.44499969482422 -70.44400024414062,52.814998626708984 -70.44400024414062,52.814998626708984 C-70.44400024414062,52.814998626708984 52.814998626708984,-70.44499969482422 52.814998626708984,-70.44499969482422z">
				</path>
			</g>
			<g opacity="1" transform="matrix(1,0,0,1,318.27398681640625,252.70700073242188)">
				<path fill="rgb(255,134,134)" fill-opacity="1" d=" M12.465999603271484,87.15799713134766 C12.465999603271484,87.15799713134766 -12.465999603271484,87.15799713134766 -12.465999603271484,87.15799713134766 C-12.465999603271484,87.15799713134766 -12.465999603271484,-87.15799713134766 -12.465999603271484,-87.15799713134766 C-12.465999603271484,-87.15799713134766 12.465999603271484,-87.15799713134766 12.465999603271484,-87.15799713134766 C12.465999603271484,-87.15799713134766 12.465999603271484,87.15799713134766 12.465999603271484,87.15799713134766z">
				</path>
			</g>
			<g opacity="1" transform="matrix(1,0,0,1,318.27398681640625,252.70599365234375)">
				<path fill="rgb(255,134,134)" fill-opacity="1" d=" M-70.44499969482422,-52.814998626708984 C-70.44499969482422,-52.814998626708984 -52.816001892089844,-70.44400024414062 -52.816001892089844,-70.44400024414062 C-52.816001892089844,-70.44400024414062 70.44400024414062,52.814998626708984 70.44400024414062,52.814998626708984 C70.44400024414062,52.814998626708984 52.81399917602539,70.44400024414062 52.81399917602539,70.44400024414062 C52.81399917602539,70.44400024414062 -70.44499969482422,-52.814998626708984 -70.44499969482422,-52.814998626708984z">
				</path>
			</g>
		</g>
		<g transform="matrix(0.15000000596046448,0,0,0.15000000596046448,333.78326416015625,397.2574157714844)" opacity="1" style="display: block;">
			<g opacity="1" transform="matrix(1,0,0,1,586.5040283203125,250.10299682617188)">
				<path fill="url(#__lottie_element_137)" fill-opacity="1" d=" M0,-82.37999725341797 C45.49800109863281,-82.37999725341797 82.37999725341797,-45.49700164794922 82.37999725341797,0 C82.37999725341797,45.49800109863281 45.49800109863281,82.37999725341797 0,82.37999725341797 C-45.49700164794922,82.37999725341797 -82.37999725341797,45.49800109863281 -82.37999725341797,0 C-82.37999725341797,-45.49700164794922 -45.49700164794922,-82.37999725341797 0,-82.37999725341797z">
				</path>
			</g>
		</g>
	</g>
</svg>
