<?xml version="1.0" encoding="utf-8"?>
<!-- Generator: Adobe Illustrator 27.0.0, SVG Export Plug-In . SVG Version: 6.00 Build 0)  -->
<svg version="1.1" id="Layer_1" xmlns="http://www.w3.org/2000/svg" xmlns:xlink="http://www.w3.org/1999/xlink" x="0px" y="0px"
	 viewBox="0 0 300.5 440.5" style="enable-background:new 0 0 300.5 440.5;" xml:space="preserve">
<style type="text/css">
	.st0{clip-path:url(#SVGID_00000085221233669757104130000001972032099566506374_);}
	.st1{fill:url(#SVGID_00000100359136845800814540000002410633480613713832_);}
	.st2{fill:url(#SVGID_00000174563114129113595310000014256847679878125471_);}
	.st3{fill:url(#SVGID_00000144328234125986628350000014390809949528624790_);fill-opacity:0.5;}
	.st4{opacity:0.2;fill:url(#SVGID_00000170265498286736447110000004673863455730852748_);enable-background:new    ;}
	.st5{fill:#EFF4FF;}
	.st6{fill:#D5DEFF;}
	.st7{fill:#DAE2FF;}
	.st8{fill:#7A32C2;}
	.st9{fill:#4F6CDB;}
	.st10{opacity:0.49;fill:url(#SVGID_00000106850007634970929230000016720674353034874803_);enable-background:new    ;}
	.st11{fill:#56E3D7;}
	.st12{fill:#5866E3;}
	.st13{fill:#165BB5;}
	.st14{opacity:0.49;fill:url(#SVGID_00000165193233229995484910000014422797777457439390_);enable-background:new    ;}
	.st15{opacity:0.49;fill:url(#SVGID_00000049904356981444976600000008060204075316438702_);enable-background:new    ;}
	.st16{opacity:0.49;fill:url(#SVGID_00000145051844492823742540000012207635102393973431_);enable-background:new    ;}
	.st17{fill:#FCE6AE;}
	.st18{fill:#B5C2F5;}
	.st19{fill:none;stroke:#A72ADB;stroke-linecap:round;stroke-linejoin:round;stroke-miterlimit:10;}
	.st20{fill:none;stroke:#9F1CD6;stroke-linecap:round;stroke-linejoin:round;stroke-miterlimit:10;}
	.st21{fill:none;stroke:#5F21D1;stroke-linecap:round;stroke-linejoin:round;stroke-miterlimit:10;}
	.st22{fill:none;stroke:#56C4E3;stroke-linecap:round;stroke-linejoin:round;stroke-miterlimit:10;}
	.st23{fill:none;stroke:#BAC8FF;stroke-linecap:round;stroke-linejoin:round;stroke-miterlimit:10;}
	.st24{fill:none;stroke:#709FFF;stroke-linecap:round;stroke-linejoin:round;stroke-miterlimit:10;}
	.st25{fill:none;stroke:#FF47A3;stroke-linecap:round;stroke-linejoin:round;stroke-miterlimit:10;}
	.st26{opacity:0.77;}
	.st27{opacity:0.48;fill:url(#SVGID_00000104697288919227921050000003954666565534054831_);enable-background:new    ;}
	.st28{opacity:0.48;fill:url(#SVGID_00000177445219946209793610000017952625230129959558_);enable-background:new    ;}
	.st29{opacity:0.48;fill:url(#SVGID_00000129919496433111756480000016142949348260667815_);enable-background:new    ;}
	.st30{opacity:0.48;fill:url(#SVGID_00000177466802500536678620000005557500679153016504_);enable-background:new    ;}
	.st31{opacity:0.64;}
	.st32{opacity:0.64;fill:url(#SVGID_00000003819915941916277170000013714977874956397753_);enable-background:new    ;}
	.st33{opacity:0.64;fill:url(#SVGID_00000008846299755441489920000003813281318911870881_);enable-background:new    ;}
	.st34{opacity:0.64;fill:url(#SVGID_00000093898565322685415520000014877791852833768363_);enable-background:new    ;}
	.st35{opacity:0.64;fill:url(#SVGID_00000033330259506630239290000017373676249724804016_);enable-background:new    ;}
	.st36{fill:url(#SVGID_00000063609117852048187540000018311679111617804719_);}
	.st37{fill:url(#SVGID_00000136395518530033359160000014292922522221063813_);}
	.st38{opacity:0.68;fill:url(#SVGID_00000066478821421313674240000013174409611650814638_);enable-background:new    ;}
	.st39{fill-rule:evenodd;clip-rule:evenodd;fill:url(#SVGID_00000013176366570389955350000018244278235248393354_);}
	.st40{fill:url(#SVGID_00000020359430363434871210000004704627220543576981_);}
	.st41{fill:url(#SVGID_00000021101617671725740140000006094027347943415706_);}
	.st42{fill:none;}
</style>
<g>
	<g>
		<g>
			<defs>
				<rect id="SVGID_1_" x="-59.5" y="3.5" width="515" height="463"/>
			</defs>
			<clipPath id="SVGID_00000026851804623403352220000008056207533701378192_">
				<use xlink:href="#SVGID_1_"  style="overflow:visible;"/>
			</clipPath>
			<g style="clip-path:url(#SVGID_00000026851804623403352220000008056207533701378192_);">
				
					<linearGradient id="SVGID_00000019662912619379334470000006463901759217421754_" gradientUnits="userSpaceOnUse" x1="136.4964" y1="574.7089" x2="130.4978" y2="574.7089" gradientTransform="matrix(1 0 0 1 0 -386)">
					<stop  offset="0" style="stop-color:#F4B5A8"/>
					<stop  offset="1" style="stop-color:#FBE5AD"/>
				</linearGradient>
				<path style="fill:url(#SVGID_00000019662912619379334470000006463901759217421754_);" d="M133.5,191.71
					c-0.44,0-0.88-0.1-1.29-0.29c-0.72-0.34-1.27-0.95-1.54-1.71c-0.55-1.56,0.26-3.28,1.82-3.83c1.56-0.55,3.28,0.26,3.83,1.82
					c0.27,0.76,0.23,1.57-0.12,2.29c-0.34,0.72-0.95,1.27-1.71,1.54C134.18,191.65,133.84,191.71,133.5,191.71z M133.5,186.03
					c-0.3,0-0.6,0.05-0.89,0.15c-1.39,0.49-2.12,2.03-1.63,3.42c0.24,0.68,0.73,1.22,1.37,1.52c0.65,0.31,1.37,0.35,2.05,0.11
					c0.67-0.24,1.22-0.73,1.52-1.37c0.31-0.65,0.35-1.37,0.11-2.05C135.64,186.72,134.6,186.03,133.5,186.03z"/>
				
					<linearGradient id="SVGID_00000031193263940267998070000001195252753558330786_" gradientUnits="userSpaceOnUse" x1="189.503" y1="462.709" x2="181.4981" y2="462.709" gradientTransform="matrix(1 0 0 1 0 -386)">
					<stop  offset="0" style="stop-color:#F4B5A8"/>
					<stop  offset="1" style="stop-color:#FBE5AD"/>
				</linearGradient>
				<path style="fill:url(#SVGID_00000031193263940267998070000001195252753558330786_);" d="M185.5,80.71
					c-0.59,0-1.17-0.13-1.72-0.39c-0.96-0.46-1.69-1.27-2.05-2.27c-0.74-2.08,0.35-4.37,2.43-5.11c2.08-0.74,4.37,0.35,5.11,2.43
					c0.36,1.01,0.3,2.09-0.16,3.06s-1.27,1.69-2.27,2.05C186.4,80.63,185.95,80.71,185.5,80.71z M185.5,73.14
					c-0.4,0-0.8,0.07-1.19,0.21c-1.86,0.66-2.83,2.71-2.17,4.56c0.32,0.9,0.97,1.62,1.83,2.03c0.86,0.41,1.83,0.46,2.73,0.14
					s1.62-0.97,2.03-1.83s0.46-1.83,0.14-2.73C188.35,74.05,186.97,73.14,185.5,73.14z"/>
				
					<linearGradient id="SVGID_00000122689837902049027710000002954840213261751719_" gradientUnits="userSpaceOnUse" x1="74.494" y1="532.2143" x2="59.4986" y2="532.2143" gradientTransform="matrix(1 0 0 1 0 -386)">
					<stop  offset="0" style="stop-color:#F4B5A8"/>
					<stop  offset="1" style="stop-color:#FBE5AD"/>
				</linearGradient>
				<path style="fill:url(#SVGID_00000122689837902049027710000002954840213261751719_);fill-opacity:0.5;" d="M66.99,153.71
					c-1.1,0-2.19-0.24-3.22-0.73c-1.81-0.86-3.17-2.37-3.84-4.26c-1.38-3.9,0.66-8.19,4.56-9.57c3.9-1.38,8.19,0.66,9.57,4.56
					c0.67,1.89,0.56,3.92-0.3,5.73s-2.37,3.17-4.26,3.84C68.69,153.56,67.84,153.71,66.99,153.71z M66.99,139.51
					c-0.74,0-1.49,0.12-2.23,0.39c-3.48,1.24-5.31,5.07-4.07,8.55c0.6,1.69,1.82,3.04,3.44,3.81c1.61,0.77,3.43,0.86,5.12,0.26
					s3.04-1.82,3.81-3.43c0.77-1.62,0.86-3.43,0.27-5.12C72.34,141.23,69.75,139.51,66.99,139.51z"/>
				
					<linearGradient id="SVGID_00000088095617453541995090000010680698306150044808_" gradientUnits="userSpaceOnUse" x1="118.799" y1="476.8703" x2="107.181" y2="433.5097" gradientTransform="matrix(1 0 0 1 0 -386)">
					<stop  offset="0" style="stop-color:#F4B5A8"/>
					<stop  offset="1" style="stop-color:#FBE5AD"/>
				</linearGradient>
				
					<path style="opacity:0.2;fill:url(#SVGID_00000088095617453541995090000010680698306150044808_);enable-background:new    ;" d="
					M91.31,75c-3.2-11.95,3.92-24.28,15.87-27.49c11.95-3.2,24.28,3.92,27.49,15.87c3.2,11.95-3.92,24.28-15.87,27.49
					C106.84,94.08,94.51,86.96,91.31,75z M133.82,63.62c-3.08-11.49-14.92-18.33-26.41-15.25S89.08,63.29,92.16,74.78
					s14.92,18.33,26.41,15.25C130.05,86.95,136.89,75.1,133.82,63.62z"/>
				<path class="st5" d="M149.31,114.69c0,0,0.69,11.12-11.9,23.47s-23.44,11.76-23.44,11.76l-78.98-80
					C22.61,57.37,15.2,44.13,10.71,27.06L4.44,6.45C4,4.78,5.58,3.25,7.25,3.69l20.14,6.1c18.46,6.94,30.95,12.69,43.49,25.39
					L149.31,114.69z"/>
				<path class="st6" d="M45.81,81.33c0,0,12.59-2.26,22.8-12.59C82.48,54.72,81.74,46.3,81.74,46.3l18.11,18.11
					c0,0,1.04,11.61-11.45,22.78c-11.6,10.33-24.28,12.2-24.28,12.2L45.81,81.33z"/>
				<path class="st7" d="M133.81,128.56c-0.05-0.2-0.15-0.05-0.1,0.44c0.05,0.1,0.15,0.25,0.2,0.35L133.81,128.56z"/>
				<path class="st7" d="M133.57,132.05c0.05,0.59,0.1,1.33,0.3,0.94c-0.1-0.64,0-0.74-0.2-1.43c0-0.54,0.05-0.89,0.15-0.84
					c-0.05-0.2,0.05-0.79-0.1-1.08c-0.1,0.69-0.1,1.53-0.05,2.41C133.62,132.3,133.62,132.1,133.57,132.05z"/>
				<path class="st7" d="M125.12,140.47l0.25,0.25C125.32,140.61,125.22,140.52,125.12,140.47z"/>
				<path class="st7" d="M116.29,134.71c0.15,0.15,0.25,0.25,0.25,0.25C116.39,134.81,116.24,134.66,116.29,134.71z"/>
				<path class="st7" d="M112.88,130.63c0.05,0.1,0.15,0.15,0.2,0.25C113.03,130.77,112.93,130.68,112.88,130.63z"/>
				<path class="st7" d="M125.12,140.47l-0.59-0.59C124.43,139.88,124.83,140.17,125.12,140.47z"/>
				<path class="st7" d="M132.28,138.99c0.15-0.2,0.2-0.35,0.25-0.49C132.48,138.65,132.43,138.84,132.28,138.99
					C132.33,138.99,132.33,138.99,132.28,138.99z"/>
				<path class="st7" d="M122.41,137.32c-0.05-0.05-0.1-0.15-0.15-0.2c-0.05-0.05-0.15-0.1-0.2-0.15L122.41,137.32z"/>
				<path class="st7" d="M126.8,139.58c-0.2-0.15-0.35-0.1-0.44-0.1c0.15,0.05,0.3,0.15,0.44,0.25
					C126.85,139.73,126.85,139.68,126.8,139.58z"/>
				<path class="st7" d="M129.81,139.14l0.3,0.05C130.06,139.14,129.91,139.14,129.81,139.14z"/>
				<path class="st7" d="M127.69,142.68c0,0.05,0,0.05,0.05,0.1C127.74,142.78,127.74,142.78,127.69,142.68z"/>
				<path class="st7" d="M90.57,117.24C90.52,117.2,90.52,117.2,90.57,117.24L90.57,117.24z"/>
				<path class="st7" d="M82.48,108.04l0.15,0.1c0.05,0,0.05,0,0.1-0.05L82.48,108.04z"/>
				<path class="st7" d="M110.02,128.9C110.02,128.9,110.02,128.86,110.02,128.9C109.82,128.66,109.92,128.81,110.02,128.9z"/>
				<path class="st7" d="M116.83,139.97c-0.59-0.84,1.23,1.08,0.3-0.1C117.18,140.02,116.04,138.99,116.83,139.97z"/>
				<path class="st7" d="M132.04,139.29c-0.15,0.1-0.3,0.2-0.44,0.29C131.84,139.43,131.99,139.34,132.04,139.29z"/>
				<path class="st7" d="M117.13,139.88l-0.1-0.15C117.08,139.83,117.08,139.83,117.13,139.88z"/>
				<path class="st7" d="M125.57,145.14c0-0.05-0.05-0.15-0.1-0.2C125.47,144.94,125.47,144.99,125.57,145.14z"/>
				<path class="st7" d="M114.02,133.04l0.25,0.29C114.17,133.23,114.07,133.14,114.02,133.04z"/>
				<path class="st7" d="M119.7,140.71c-0.15-0.15-0.2-0.2-0.44-0.39c0,0,0.05,0.05,0.05,0.1
					C119.4,140.42,119.5,140.52,119.7,140.71z"/>
				<path class="st7" d="M113.03,134.61c0.05,0.05,0.05,0.1,0.1,0.15c0.05,0.05,0.15,0.15,0.2,0.2L113.03,134.61z"/>
				<path class="st7" d="M109.73,136.88c-0.1-0.2-0.15-0.29-0.2-0.39C109.58,136.68,108.64,135.7,109.73,136.88z"/>
				<path class="st7" d="M132.23,138.99c0,0.05-0.05,0.15-0.2,0.29c0.1-0.1,0.15-0.2,0.25-0.29
					C132.33,138.94,132.28,138.94,132.23,138.99z"/>
				<path class="st7" d="M118.66,141.25l-1.09-0.98C117.92,140.57,118.26,140.91,118.66,141.25z"/>
				<path class="st7" d="M90.28,112.23l0.25,0.25C90.43,112.32,90.38,112.28,90.28,112.23z"/>
				<path class="st7" d="M114.41,137.42c-0.15-0.2-0.35-0.39-0.54-0.64c-0.05-0.05-0.1-0.05-0.15-0.1L114.41,137.42z"/>
				<path class="st7" d="M102.76,129.94c0.94,0.98,0.59,0.34,0.84,0.49c1.18,1.13,0.44,0.64,0.74,1.08
					c0.74,0.69,1.43,1.13,1.98,1.67c0,0.05,0.1,0.2-0.05,0.1c0.89,0.64,2.22,2.26,3.16,3.1c0.05,0.1,0.05,0.15,0.1,0.15
					c-0.05-0.2,0-0.3,0.05-0.3c0.39,0.44,0.84,0.79,0.89,1.03c-0.25-0.29-0.3-0.29-0.44-0.39l0.44,0.44
					c0.25,0.54-0.64-0.59-0.74-0.54c0.89,0.89,1.98,1.87,2.57,2.66c0,0.25-1.53-1.62-0.79-0.59l-0.94-1.13
					c0.54,1.03-0.59-0.69-0.1,0.29c1.28,1.48,1.53,1.57,2.81,3.05c0.35,0.25,0-0.2,0.35,0.05c2.02,1.92,1.18,1.87,2.81,3.2
					c0.49,0.3,0.74,0.3,1.78,1.33l-0.49-0.2c0.74,0.64,0.99,0.74,1.23,0.89c0.25,0.15,0.49,0.29,1.28,0.93
					c-0.35-0.15-1.23-0.89-1.04-0.69c0.94,0.94,0.79,0.49,1.58,1.08l0.1,0.25c0.35,0.2,0.64,0.44,1.04,0.64l0.69-0.89
					c-0.64-0.54-1.28-1.13-1.92-1.72s-1.28-1.23-1.97-1.87c0.1,0.05,0.44,0.29,0.1-0.1c-2.02-1.97-4.1-4.38-5.82-6.45l-0.79-0.69
					c-0.15-0.2-0.25-0.39-0.05-0.2c-0.64-0.84-0.1,0-0.49-0.34c-0.39-0.44-0.44-0.64-0.2-0.39c-1.33-1.33-3.7-3.84-4.89-5.41
					l0.3,0.25c-0.94-1.18-1.38-1.13-2.17-2.26l0.2,0.2c-2.12-2.56-4.64-5.21-6.17-7.28c-0.49-0.25-2.12-2.51-2.52-2.46
					c-1.18-1.48-0.79-1.13-2.52-3.15c-0.49-0.54-0.89-0.64-1.48-1.28l0.1-0.1l-0.94-0.79l-0.3-0.59l-0.59-0.59
					c0.25,0.25,0.44,0.54,0.4,0.54c-0.59-0.59-1.33-1.38-1.73-1.87l-0.79,0.74c0.2,0.29,0.35,0.54,0.35,0.54
					c0.69,0.74,1.38,1.53,2.07,2.26c-0.1,0-0.44-0.39-0.74-0.69c1.18,1.13,0.05,0.34,1.18,1.38c-0.1-0.2,0.15,0,0.2,0.05
					c0.4,0.64,1.53,1.92,2.42,2.81l-0.25-0.1c1.48,1.72,3.26,3.54,4.99,5.41c-0.59-0.69-0.3-0.69,0.2-0.15l0.1,0.34
					c0.39,0.29-0.49-0.59,0.3,0.05c0.64,0.69,0.3,0.59-0.1,0.25l0.84,0.79c0,0.1-0.2-0.1-0.3-0.1c0.4,0.29,1.23,1.57,1.88,1.92v0.1
					c1.78,1.82,2.62,2.61,4.1,4.08c0.15-0.05,0.69,0.54,1.18,0.89c1.04,1.13,2.17,2.36,3.5,3.64c0.99,0.84,0.35,0.2,0.84,0.54
					c0,0.15,1.33,1.43,0.54,0.84c1.63,1.52,2.07,1.92,4.2,3.74c-0.2-0.25-0.44-0.49-0.25-0.39c0.39,0.35,0.79,0.84,0.69,0.84
					l-0.1-0.1c2.42,1.97,5.08,5.07,7.11,6.5l0.84-0.84l-0.05-0.05l0.05,0.05l-0.84,0.84l-0.05-0.05l0.05,0.05l0.84-0.84
					c-0.59-0.59-1.18-1.23-1.78-1.82c-0.79-0.89,0.54,0.49,0-0.25c-2.02-1.97-2.91-3.3-4.59-4.92c-0.94-1.58-4.29-4.62-5.78-6.54
					l0.05,0.15c-0.49-0.39-0.49-0.59-0.79-0.93c0,0.1,0.39,0.54,0.1,0.29c-3.65-3.79-7.3-7.97-10.81-12.05
					c-0.99-1.18-1.09-0.84-1.78-1.62l-0.79,0.59c0.15,0.2,0.39,0.54,0.69,1.03l-0.54-0.49c1.23,1.58,2.52,3.2,3.85,4.72
					c1.33,1.53,2.66,3.05,4.1,4.38c-0.2-0.15-0.25-0.1-0.49-0.39c0.49,0.69,2.12,2.21,2.17,2.17c0.44,0.44,0.05,0.15,0.25,0.44
					c0.54,0.64,1.58,1.38,1.83,1.77c0.05,0.05-0.2-0.15-0.3-0.25c0.44,0.34,1.78,1.77,1.53,1.33c0.99,1.08,2.07,1.92,2.86,2.75
					c0.64,0.39,1.78,1.77,2.12,1.77c-0.25,0.1,1.78,1.87,2.57,2.41c-0.3-0.15,0.54,0.59,0.25,0.39c0.79,0.69,1.58,1.28,1.48,1.08
					c0.64,0.74,1.43,1.33,2.17,1.87c0.79,0.49,1.53,0.84,2.07,1.18c0.64,0.2,1.33,0.2,1.88,0.1l1.23-0.2l-0.89-0.84
					c-1.88-1.72-3.6-3.35-5.28-4.92c0.25-0.1,2.22,2.16,2.32,1.92c-1.97-1.82-3.21-2.75-4.99-4.67c-0.44-0.49,0.35,0.2,0.54,0.35
					c-1.93-1.82-3.55-3.74-5.23-5.41c0,0,0.2,0.15,0.39,0.34c-0.35-0.34-0.69-0.84-0.74-0.74l0.35,0.35
					c0.39,0.64-1.48-1.18-1.58-1.18c0.74,0.39-1.48-1.82-0.4-1.08c-0.2-0.2-0.49-0.49-0.49-0.39c-0.3-0.34-0.35-0.49,0-0.2
					c-1.14-1.23-0.79-0.74-1.78-1.87c0.05-0.05,0.25,0.2,0.4,0.29c-0.45-0.44-0.89-0.89-1.48-1.58l-0.54,0.44
					c0.1,0.15,0.25,0.35,0.4,0.54c-0.05-0.05,0,0.1-0.25-0.2c1.33,1.77,2.52,2.8,4,4.72c-0.64-0.39,0.49,0.69,0.44,0.88l0.89,0.94
					l-0.3-0.44c0.74,0.89,1.53,1.53,2.12,2.26l-0.64-0.59l1.48,1.52l-0.79-0.93c0.84,0.79,0.1-0.25,1.09,0.88
					c-0.25-0.2,0.79,0.84,1.14,1.33c0.44,0.35,0.89,0.74,1.43,1.38c0.1,0.2-0.25,0-0.2,0.15c0.49,0.29,1.97,1.82,2.62,2.16
					c-0.2-0.15-0.3-0.05-0.25,0l0.44,0.2c0.4,0.39,0.44,0.44,0.3,0.44c1.23,1.03-0.25-0.49,1.18,0.74c-0.15-0.1-0.1,0-0.35-0.2
					c0.69,0.59,1.43,1.08,2.22,1.52c0.74,0.44,1.53,0.79,2.37,1.03l0.59,0.15l-0.39-0.49l-0.15-0.2c-0.05-0.2,0.05-0.1,0.25,0.15
					l0.59,0.69l-0.94-0.2c-0.44-0.1-1.08-0.34-0.74-0.15c0.25,0.1,0.49,0.15,0.74,0.2l1.18,0.35l-0.79-0.98
					c-0.74-0.94-1.63-1.77-2.52-2.51c-0.89-0.79-1.78-1.52-2.52-2.31l0.3,0.34c-0.44-0.05-1.23-1.33-2.12-2.16
					c0.2,0.2,0.39,0.2,0.3,0.15c-0.25-0.25-0.49-0.54-0.74-0.84l-0.49,0.54c1.09,0.79,2.27,1.67,3.8,2.9l-0.3-0.15
					c0.69,0.69,1.93,1.72,2.76,2.36c0.3,0.15,0.79,0.49,0.54,0.2c0.49,0.44,0.99,0.89,1.58,1.18l1.09,0.64l-0.64-1.08
					c-0.35-0.59-0.79-1.03-1.23-1.48c-0.44-0.44-0.89-0.84-1.33-1.23c-0.89-0.79-1.73-1.58-2.47-2.51c0.25,0.25,0.59,0.54,0.44,0.35
					c-0.59-0.54-1.18-1.13-1.73-1.72c0.05,0.25,0.15,0.29,0.44,0.74c-0.25-0.2-0.74-0.69-1.13-1.13c0.74,0.79,0.1-0.1-0.1-0.54
					c0,0.1-0.1,0-0.1,0.05c-0.44-1.03-0.39-0.25-0.84-1.18l-0.05,0.05c0.1,0.1,0.2,0.2,0.35,0.39h-0.1
					c0.49,0.44,0.99,0.84,1.48,1.33c0.1,0.29-0.54-0.44-0.64-0.39c0.69,0.69,1.58,1.18,2.12,1.92c-0.34-0.25-0.79-0.69-1.09-0.93
					c0.59,0.79,0.69,0.84,1.23,1.38l-0.05-0.05c0.4,0.39,0.79,0.79,1.19,1.18l-0.3-0.29c1.19,0.59,1.93,1.67,3.46,2.46
					c-1.48-0.79-0.3-0.05-0.49,0c0.35,0.29,0.89,0.69,0.69,0.64c0.25,0.1,0.44,0.2,0.69,0.34c0.1,0.05,0.25,0.1,0.35,0.15
					c0.15,0.05,0.3,0.1,0.44,0.1l0.89,0.2l-0.44-0.79c-0.05-0.1-0.1-0.2-0.2-0.3c-0.05-0.05-0.1-0.15-0.2-0.2
					c-0.15-0.15-0.25-0.25-0.44-0.39c0-0.05-0.59-0.64-0.4-0.59c-0.74-0.74,0.1,0.25,0,0.2c-0.59-0.49-1.18-1.18-1.83-1.87
					c-0.35-0.35-0.64-0.74-0.99-1.13c-0.2-0.2-0.35-0.39-0.54-0.54l-0.25-0.29l-0.15-0.15c-0.05-0.05-0.05-0.05-0.05-0.05
					s0.05-0.05-0.1,0l-0.45,0.34c0.1,0.05,0.2,0.1,0.3,0.15c0.84,0.54,1.38,0.79,1.92,1.03c0.54,0.2,1.04,0.44,1.93,0.64
					c0.3,0.1,0.15,0.15-0.05,0.1c-0.2,0-0.49-0.1-0.49-0.1c0.44,0.2,0.89,0.34,1.33,0.39c0.45,0.05,0.94,0,1.38-0.25
					c-0.15,0.15,0.05,0.1,0.35-0.1c0.15-0.15,0.25-0.29,0.3-0.39s0.05-0.2,0.1-0.29c0.05-0.15,0.1-0.34,0.3-0.84
					c0,0.2,0,0.39-0.1,0.79c0.3-0.89,0.44-1.72,0.64-2.66c0.15-0.2,0,0.59-0.05,0.89c0.25-1.03,0.54-2.66,0.44-3
					c-0.05,0.2-0.1,0.44-0.15,0.64c0.05-0.39,0.15-0.2,0.1,0.1c-0.05,0.89-0.3,1.23-0.35,1.28l0.1-0.64
					c-0.2,0.29-0.35,0.93-0.49,1.67c-0.1,0.34-0.15,0.74-0.3,1.13c-0.05,0.2-0.1,0.34-0.2,0.54c-0.05,0.1-0.1,0.2-0.15,0.25
					c-0.05,0.1-0.1,0.15-0.2,0.2c0.1-0.2,0.1-0.39,0.15-0.59c-0.1,0.44-0.44,0.84-0.89,1.03c-0.15,0.05-0.3,0-0.3-0.05
					s0.1-0.05,0.39-0.2c-0.1,0-0.2,0.05-0.3,0.05s-0.15,0-0.25,0c-0.15,0-0.25,0.05-0.3,0.05c-0.1,0-0.2,0-0.3,0
					s-0.25-0.05-0.44-0.1c-0.1-0.05-0.05-0.05,0.05-0.05c-0.3-0.05-0.59-0.1-0.89-0.2c0.2,0-0.1-0.2,0.44,0.05
					c-0.74-0.3-1.33-0.59-1.83-0.79c-0.49-0.25-0.84-0.44-1.04-0.64l0.1,0.05c-0.69-0.44-0.89-0.59-0.99-0.59
					c-0.1-0.05-0.05,0.05-0.1,0.05h-0.1l0.1,0.05c0.05,0,0.15,0.15,0.54,0.49c0.15,0.39,0.35,0.74,0.54,1.08l0.25,0.05
					c0.15,0.2,0.49,0.54,0.39,0.49c0.69,0.54-0.05-0.15,0.35,0.15c0.69,0.89,2.27,2.21,2.22,2.56c0.35,0.25-0.64-0.89,0.2,0
					c0,0.15,0.15,0.34,0.25,0.54l0.15-0.2c-0.44-0.05-1.08-0.29-1.63-0.74c0.35,0.05,1.13,0.59,0.3,0
					c-0.64-0.15-1.58-1.18-2.27-1.72c-0.15,0.1-1.48-1.18-2.62-2.17c0.1,0.05-1.93-1.97-2.86-3h0.05c-0.05,0-0.1-0.05-0.2-0.1
					l-1.48-0.98l0.99,1.33c0.15,0.2,0.35,0.59,0.64,0.98c0.25,0.39,0.59,0.79,0.89,1.13c-0.1,0.05-0.3-0.05-0.64-0.49
					c0.2,0.29,0.4,0.54,0.59,0.79c0.2,0.15,0.45,0.34,0.84,0.79l-0.25-0.1c0.89,0.98,1.93,1.77,3.06,3c0.15-0.05-0.69-1.18,0.59,0
					c0,0.1-0.05,0.25-0.39-0.1c0.1,0.1,0.44,0.35,0.64,0.54l-0.59-0.39c0.49,0.54,0.35,0.2,0.79,0.64c-0.1,0.05,0.25,0.34,0.15,0.34
					c-0.1-0.1-0.35-0.39-0.54-0.54c0.49,0.49,1.04,1.13,1.14,1.38c0-0.1,0.1-0.1,0.44,0.25c0.3,0.35,0.39,0.49,0.39,0.59
					c0,0.05,0,0.05,0,0.15l0.49-0.49c-0.05-0.05-0.1-0.1-0.25-0.2c-0.3-0.1-0.94-0.59-1.04-0.49c-0.3-0.2-0.3-0.3-0.4-0.44
					c-0.59-0.35-2.42-1.92-1.93-1.33l0.15,0.1c-0.05,0-0.05-0.05-0.1-0.05c-1.63-1.18-3.16-2.8-4.84-3.99l-1.73-1.18l1.43,1.52
					c0.1,0.1,0.2,0.25,0.35,0.34l-0.05,0.05c0.89,0.93,2.07,2.07,2.81,2.61c0.3,0.25,0.59,0.69,0.44,0.59
					c0.74,0.64,0.89,0.69,1.88,1.72c-0.79-0.64,0.2,0.3-0.79-0.64c0.89,0.93,1.09,1.13,2.07,2.07c-0.25-0.2,0.05,0.25,0.35,0.69
					l0.44-0.69c-0.25-0.05-0.54-0.15-0.69-0.2c0.25,0.15,0.44,0.2,0.69,0.3l-0.35,0.54l-0.05-0.1c0,0.05,0.05,0.05,0.05,0.1
					l0.35-0.54c-0.59-0.1-1.09-0.35-1.58-0.64c0.1,0,0.25,0,0.35,0c-1.09-0.64-2.07-1.23-2.96-1.87s-1.73-1.23-2.32-2.02
					c-0.59-0.39,0.99,0.98,0.44,0.69c-0.89-0.79-1.63-1.87-1.88-2.12c-1.09-1.23-1.28-0.93-2.42-2.21c0.1,0.2,0.15,0.44-0.79-0.44
					c-0.79-0.89-0.84-1.28-0.3-0.74c0.2,0.2,0.3,0.34,0.25,0.34c0.3,0.3,0.64,0.64,0.39,0.25l-0.15-0.1
					c-0.35-0.49-1.48-1.72-1.18-1.48c-0.64-0.64-0.35-0.25,0.1,0.29c-0.99-1.18-1.63-1.82-2.62-3.05c0.15,0.2,0.25,0.44,0.1,0.25
					c-1.43-1.82-0.74-0.74-1.78-1.92c-0.49-0.74,0.35,0.1-0.69-1.08c-0.54-0.79,0-0.25,0.3,0c-0.89-0.93-1.48-1.97-1.93-2.61
					l-0.94,0.74c0.05,0.1,0.1,0.15,0.15,0.25l-0.15-0.25l1.14-0.84l0.3,0.39c-0.1-0.15-0.2-0.25-0.3-0.39l-1.14,0.89
					c0.15,0.2,0.3,0.39,0.44,0.59l-0.2-0.44c0.25,0.34,0.49,0.69,0.44,0.69c0.35,0.3-0.05-0.39,0.59,0.25
					c0.35,0.49,1.23,1.38,1.23,1.62c-1.18-1.48,0,0.25-1.04-0.98c0.2,0.25,0.44,0.54,0.74,0.89c0.05,0.05-0.05-0.05-0.15-0.1
					c1.09,1.48,0.64,0.54,1.88,1.97c-0.25-0.15,0.15,0.44,0.4,0.64c-0.49-0.59-0.15-0.35,0.4,0.1c0.74,0.94,0.89,0.94,1.33,1.43
					l-0.44-0.54c0.25,0.1,0.64,0.59,1.23,1.18c0,0.1-0.54-0.54-0.35-0.3c0.74,0.59,1.33,1.67,2.27,2.51c0.4,0.49-0.1,0.15,0.25,0.59
					c1.09,0.98,0.99,1.23,2.17,2.26c-0.25-0.39-0.3-0.44,0.54,0.25l-1.83-1.72l1.23,1.03c-0.54-0.54-1.18-1.08-1.48-1.43
					c0.59,0.49,0.54,0.44,0.35,0.1c0.59,0.88,1.53,1.43,2.27,2.36l-0.25,0.2c1.18,1.38,2.37,2.17,4,3.89l-0.49-0.54
					c0.3,0.15,1.04,0.98,1.63,1.52c-0.1,0,0.2,0.39,0.4,0.64c0-0.05,0.25,0.2,0.49,0.44l0.3-0.84c-0.44,0.1-0.99,0-1.09,0.1
					c-0.3-0.1-0.59-0.25-0.84-0.44c-0.79-0.39-1.23-0.69-1.68-0.93s-0.89-0.54-1.58-1.13c0.49,0.29-0.1-0.3,0.89,0.44
					c-0.44-0.39-0.84-0.74-0.94-0.74c-0.25-0.29-1.33-0.98-1.73-1.43c-0.2-0.15-0.35-0.1-0.84-0.59c-0.05-0.05,0.05-0.05,0.05-0.05
					c-0.05,0.05-0.84-0.64-0.44-0.2c-1.18-1.48-3.9-3.49-4.89-4.82c-0.99-0.88-2.17-1.97-3.01-2.8c0.1,0.05,0.05-0.05,0.2,0.15
					c-1.13-1.23-0.94-0.54-2.17-1.92c-0.54-0.79,0.79,0.64,0.39,0.2c0.05-0.39-1.63-1.58-2.37-2.66l0.25,0.2
					c-0.59-0.79-1.73-1.62-2.76-2.85c0,0,0.05,0.05,0.05-0.05c-0.44-0.34-0.99-0.89-1.53-1.52c-0.54-0.64-1.18-1.28-1.63-1.87
					c0.4,0.29,0.49,0.49,0.4,0.2c-0.44-0.54-0.05,0.29-0.89-0.79c-0.25-0.39-0.74-1.23-0.74-1.38c0.25,0.34,0.49,0.69,0.79,1.03
					c-0.25-0.59-0.89-1.28-1.28-1.82l-0.64,0.49c0,0.05,0.05,0.05,0.05,0.1h-0.1c1.28,1.48,1.48,1.38,2.86,3l-0.1-0.2
					c0.94,0.74,0.59,0.79,1.43,1.57l0.1,0.39c0.54,0.54,1.92,1.87,2.91,2.85c-0.64-0.49-1.78-1.62-2.52-2.31
					c0.49,0.54,1.73,1.92,2.07,2.11c-0.2-0.2-0.49-0.44-0.69-0.69c0.74,0.59,1.63,1.43,2.67,2.56c-0.44,0.05,2.62,2.95,3.16,3.94
					c1.93,1.87,3.6,3.94,5.73,6.2c-0.54-1.03,0.64,0.64,0.69,0.29c0.49,0.54,0.69,0.74,0.74,0.79l1.33,1.72
					c0.3,0.44-0.49-0.44-0.54-0.39c1.04,1.18,0.35,0.59,0.99,1.43c-0.05-0.25,0.49,0.29,1.04,0.98l-0.74-1.03
					c1.58,1.53,1.09,1.57,2.67,3.15l-0.54-0.49c0.4,0.39,1.04,1.13,1.68,1.92l0.99-0.98c-0.84-0.69-1.73-1.43-2.22-1.67
					c-0.15-0.15-0.3-0.39,0.1-0.1c-2.02-1.82-4.74-3.89-6.17-5.46l0.2,0.1c-0.4-0.34-0.74-0.49-1.18-0.98c0.05,0,0.2,0.1,0.05-0.1
					c-0.2-0.15-1.09-0.84-1.53-1.33l0.49,0.35c-1.88-1.92-3.11-2.71-4.74-4.23c0.15-0.15-1.28-1.67-2.02-2.46h0.05
					c-2.17-2.21-3.85-3.64-5.87-5.66c-1.09-1.48-4.1-4.48-5.87-6.74c0.25,0.35-0.2,0.05-0.54-0.29c-0.4-0.54-1.33-1.28-1.14-1.33
					l0.15,0.2c-0.2-0.49-1.14-1.53-1.83-2.36l-0.3,0.05c-0.64-0.94-1.53-2.02-2.42-3.05l-0.84,0.74c1.48,1.48,2.96,2.85,3.46,3.69
					c0.49,0.44,1.09,1.08,1.63,1.53l-0.15,0.05c1.23,1.43,1.88,2.12,3.46,3.84l-0.4-0.3c0.89,0.98,1.43,0.98,2.22,1.87l0.1,0.39
					c1.53,1.72,2.91,3.59,4.59,5.22c-0.05,0-0.15,0-0.4-0.3c0.69,0.84,2.67,3.25,2.62,2.76c-0.15,0.15,1.53,1.82,2.42,2.71
					l-0.25-0.05c0.84,0.69,0.89,0.69,1.88,1.72c0.2,0.29,0.1,0.29-0.15-0.05c0.69,0.93,0.69,0.59,1.58,1.67l-0.39-0.34
					c0.79,0.88,0.74,0.79,1.28,1.23c0.54,0.54,1.48,1.72,1.53,1.92c0.15,0.05,0.69,0.49,1.14,1.03c0.05,0.1-0.15-0.05-0.25-0.15
					c1.28,1.53,2.12,2.07,3.01,3.15c0,0.05,0.05,0.15,0.1,0.25c-1.09-1.13-1.97-2.07-1.88-2.02c-0.1,0.1,0.79,1.03-0.05,0.39
					c0.79,0.69,2.17,1.82,2.96,2.75c0.05,0.05,0.05,0.1,0.1,0.15l-0.1-0.1c0.2,0.2,0.4,0.39,0.59,0.54
					c0.25,0.29,0.44,0.49,0.69,0.74c0,0.2,1.04,1.08,1.48,1.52c0.05-0.15,0.64,0.44,0.15-0.15c0.05,0.1-0.1-0.05-0.4-0.34
					c-0.05-0.05-0.15-0.15-0.2-0.2h0.05c-0.3-0.29-0.69-0.64-1.13-1.08c0.39,0.29,0.84,0.64,1.28,1.18c0.3,0.15,0.64,0.34,0.79,0.44
					c0.1,0.15,0.25,0.39,0.44,0.59l0.35-0.44c-0.35-0.29-0.69-0.59-0.99-0.84s-0.49-0.49-0.54-0.54c-1.63-1.03-3.5-2.85-4.54-3.54
					c-0.44-0.34-0.4-0.49-0.49-0.69c0.25,0.2,0.49,0.49,0.64,0.59c-0.84-0.74-2.27-2.31-2.62-2.41c-0.89-1.08,0.64,0.44-0.64-0.93
					l0.2,0.15c-2.32-3-4.39-4.33-7.11-7.53c0.2,0.2,0.3,0.35,0.3,0.39c-3.26-3.49-7.01-6.89-10.12-10.48
					c-0.89-0.98-1.09-1.03-1.73-1.53l-0.1-0.29l-1.09-0.89c-1.48-1.33-2.12-2.71-4.05-4.33l0.15,0.29
					c-0.59-0.64-2.02-2.02-1.83-1.97c-0.1-0.05-0.3-0.15-0.49-0.44l0.05-0.1l-1.63-1.48c-1.18-1.28,0.4-0.05-1.33-1.82
					c-0.69-0.64-2.02-1.72-1.83-1.43c0.25,0.25,0.64,0.69,0.59,0.79l-0.64-0.59c-0.3,0.05-0.89-0.25,0.44,1.33l1.13,0.93l0.25,0.39
					l-0.89-0.89c0.4,0.59,0.79,0.84,1.18,1.13c0.05,0.15,0.15,0.3,0.35,0.54l1.13,0.89c0.05,0.2-0.59-0.34,0.05,0.39
					c0.54,0.39-0.3-0.59,0.54,0.15c0.4,0.59,0.2,0.49,0.84,0.98c0.05,0.15-0.1,0.05-0.35-0.2c0.54,0.49,1.38,1.38,1.73,1.53
					c0.39,0.59,1.73,1.72,1.53,1.82c0.2,0.15,1.04,0.79,1.48,1.28c-1.04-0.69,1.73,1.82,1.33,1.77c0.79,0.49,2.37,2.26,3.55,3.35
					c-0.1-0.05-0.25-0.15-0.3-0.25c0.59,0.64,0.74,0.89,1.14,1.33c0.2-0.05,1.23,0.93,1.83,1.38c0.64,0.94-0.64-0.35-0.49,0.05
					c0.05-0.15,1.43,1.28,1.28,0.89c0.49,0.69,0.44,0.54,0.64,0.98c0.3-0.05,0.59,0.54,1.18,0.93c0.79,0.93,0.05,0.39,1.04,1.28
					C103.65,130.73,102.76,129.94,102.76,129.94z M118.81,144.06c0.2,0.2,0.35,0.34,0.49,0.44
					C119.15,144.4,119.05,144.3,118.81,144.06z M116.93,142.14c0.25,0.25,0.49,0.54,0.79,0.84c0.05,0.1-0.1,0.05-0.25-0.15
					C117.62,142.93,117.18,142.43,116.93,142.14z M120.24,146.86c-0.35-0.3-0.4-0.39-0.44-0.44c0.15,0.15,0.3,0.29,0.54,0.49h0.05
					C120.39,146.91,120.34,146.91,120.24,146.86z"/>
				<path class="st7" d="M120.93,147.26c0.05,0.05,0.1,0.05,0.15,0.1c-0.05-0.05-0.1-0.15-0.15-0.2c-0.05-0.05-0.1-0.05-0.15-0.05
					C120.83,147.16,120.88,147.21,120.93,147.26z"/>
				<path class="st7" d="M125.42,140.71c0,0,0,0.05,0.05,0.05C125.42,140.76,125.42,140.76,125.42,140.71z"/>
				<path class="st7" d="M92.4,114.34l0.2,0.15L92.4,114.34z"/>
				<path class="st7" d="M122.01,135.79c0-0.05-0.05-0.1-0.1-0.2C121.92,135.65,121.96,135.69,122.01,135.79z"/>
				<path class="st7" d="M124.34,138.3l0.64,0.64C124.68,138.65,124.48,138.45,124.34,138.3z"/>
				<path class="st7" d="M114.46,132.2c0.05,0.05,0.1,0.1,0.15,0.15C114.91,132.64,114.71,132.4,114.46,132.2z"/>
				<path class="st7" d="M117.82,137.12c-0.2-0.15-0.4-0.29-0.59-0.49C117.52,136.92,117.77,137.12,117.82,137.12z"/>
				<path class="st7" d="M118.81,141.35c-0.05-0.05-0.1-0.05-0.1-0.1L118.81,141.35z"/>
				<path class="st7" d="M116.49,135.84c0.25,0.29,0.49,0.59,0.74,0.79C117.03,136.33,116.73,136.04,116.49,135.84z"/>
				<path class="st7" d="M133.66,134.66l0.05-0.25c0,0,0,0,0-0.05L133.66,134.66z"/>
				<path class="st7" d="M133.71,134.41l0.05-0.25C133.71,134.27,133.71,134.37,133.71,134.41z"/>
				<path class="st7" d="M133.76,133.58l-0.05,0.54C133.76,133.97,133.81,133.73,133.76,133.58z"/>
				<path class="st7" d="M129.96,139.68l-0.1,0.05C129.91,139.68,129.96,139.68,129.96,139.68z"/>
				<path class="st7" d="M127.99,139.04c0.44,0.2,1.09,0.59,1.83,0.69l0.1-0.05c-0.2,0-0.54-0.1-0.94-0.3
					C128.58,139.29,128.24,139.09,127.99,139.04z"/>
				<path class="st7" d="M128.83,140.91l-1.14-1.23c0.15,0.25,0.4,0.59-0.15,0.05C128.88,141.3,127.3,139.34,128.83,140.91z"/>
				<path class="st7" d="M127.99,140.66c0.69,0.49,0.05-0.05,0.1-0.05C127.64,140.27,127.49,140.22,127.99,140.66z"/>
				<path class="st7" d="M124.09,141.01l-0.15,0.05C124.43,141.5,123.99,141.01,124.09,141.01z"/>
				<path class="st7" d="M125.52,143.71c0.2,0.15,0.39,0.25,0.59,0.39l0.35,0.05C126.11,144.01,125.82,143.86,125.52,143.71z"/>
				<path class="st7" d="M122.61,140.57l0.25,0.2c-0.3-0.25-0.59-0.44-0.89-0.69L122.61,140.57z"/>
				<path class="st7" d="M114.27,135.6l0.05,0.25C114.66,136.19,114.86,136.09,114.27,135.6z"/>
				<path class="st7" d="M100.69,122.26c0.15,0.29,0.59,0.89,0.99,1.18C101.28,122.95,100.89,122.46,100.69,122.26z"/>
				<path class="st7" d="M90.92,113.06l0.39,0.34l-0.69-0.74L90.92,113.06z"/>
				<path class="st7" d="M52.91,75.03c0-0.1-0.1-0.1-0.25,0.15v0.25L52.91,75.03z"/>
				<path class="st7" d="M51.58,76.41c-0.1,0.3-0.25,0.69,0,0.64c0.05-0.34,0.15-0.39,0.2-0.79c0.15-0.25,0.3-0.39,0.35-0.3
					c0-0.1,0.3-0.34,0.25-0.54c-0.3,0.25-0.54,0.59-0.74,1.08C51.58,76.56,51.63,76.46,51.58,76.41z"/>
				<path class="st7" d="M47.98,75.62c0.05,0.05,0.1,0.1,0.1,0.15C48.07,75.72,48.03,75.67,47.98,75.62z"/>
				<path class="st7" d="M45.95,72.72c0.1-0.05,0.15-0.1,0.15-0.1C46.05,72.67,45.95,72.72,45.95,72.72z"/>
				<path class="st7" d="M43.24,73.56c0.05,0,0.1-0.05,0.15-0.05C43.34,73.51,43.24,73.51,43.24,73.56z"/>
				<path class="st7" d="M47.98,75.62c-0.1-0.1-0.25-0.2-0.39-0.2C47.48,75.43,47.83,75.43,47.98,75.62z"/>
				<path class="st7" d="M49.01,79.31c0.1-0.05,0.15-0.1,0.25-0.15C49.16,79.21,49.11,79.26,49.01,79.31z"/>
				<path class="st7" d="M47.19,76.31l0.1-0.1c0-0.05,0.05-0.1,0.05-0.15L47.19,76.31z"/>
				<path class="st7" d="M52.32,73.85c0.05-0.05,0.05-0.1,0-0.2l-0.3-0.84l-0.1,0.39c0,0.05,0,0.1-0.05,0.15l0.05-0.05l0.39-0.39
					l-0.1,0.79c0,0.05-0.05,0.15-0.1,0.2C52.22,73.85,52.22,73.85,52.32,73.85z"/>
				<path class="st7" d="M47.63,79.11c0.05,0,0.1-0.05,0.15-0.05C47.73,79.11,47.63,79.11,47.63,79.11z"/>
				<path class="st7" d="M39.39,63.12C39.44,63.12,39.39,63.12,39.39,63.12S39.39,63.18,39.39,63.12z"/>
				<path class="st7" d="M32.67,63.52h0.1c0-0.05,0-0.05,0-0.1L32.67,63.52z"/>
				<path class="st7" d="M46.99,71.64C46.99,71.64,46.99,71.69,46.99,71.64C46.89,71.78,46.94,71.73,46.99,71.64z"/>
				<path class="st7" d="M50.35,64.85c-0.49,0.3,0.59-0.74-0.15-0.25C50.3,64.6,49.8,65.29,50.35,64.85z"/>
				<path class="st7" d="M48.86,79.36c-0.1,0.05-0.15,0.05-0.25,0.1C48.77,79.41,48.82,79.41,48.86,79.36z"/>
				<path class="st7" d="M50.2,64.6l-0.05,0.05L50.2,64.6z"/>
				<path class="st7" d="M55.97,63.17c-0.05,0-0.1,0.05-0.1,0.05C55.87,63.27,55.92,63.22,55.97,63.17z"/>
				<path class="st7" d="M49.36,69.57l0.2-0.15C49.46,69.47,49.41,69.52,49.36,69.57z"/>
				<path class="st7" d="M56.22,60.42c-0.1,0.1-0.15,0.1-0.25,0.2h0.05C56.07,60.57,56.12,60.52,56.22,60.42z"/>
				<path class="st7" d="M52.52,63.52c0.05,0,0.05,0,0.1-0.05c0.05-0.05,0.1-0.05,0.1-0.1L52.52,63.52z"/>
				<path class="st7" d="M52.42,55.5c-0.1,0.05-0.2,0.05-0.25,0.05C52.27,55.55,51.78,56.09,52.42,55.5z"/>
				<path class="st7" d="M49.01,79.26c0,0.05-0.05,0.1-0.15,0.1C48.91,79.36,48.96,79.31,49.01,79.26
					C49.01,79.26,49.06,79.26,49.01,79.26z"/>
				<path class="st7" d="M56.81,61.35l-0.59,0.49C56.42,61.75,56.61,61.55,56.81,61.35z"/>
				<path class="st7" d="M38.01,68.05l-0.2,0.05C37.91,68.09,37.96,68.05,38.01,68.05z"/>
				<path class="st7" d="M54.44,63.42c-0.15,0.05-0.3,0.1-0.4,0.2c0,0.05-0.05,0.05-0.05,0.1L54.44,63.42z"/>
				<path class="st7" d="M48.22,58.99c0.64-0.44,0.2-0.34,0.25-0.54c0.69-0.54,0.39-0.15,0.74-0.25c0.44-0.39,0.69-0.79,1.04-1.03
					c0.05,0,0.1-0.05,0.05,0.05c0.4-0.49,1.38-1.08,1.78-1.72c0.05,0,0.1-0.05,0.1-0.05c-0.15,0-0.2-0.05-0.25-0.1
					c0.25-0.25,0.39-0.49,0.54-0.49c-0.15,0.15-0.15,0.2-0.2,0.3l0.25-0.3c0.35-0.1-0.3,0.34-0.25,0.44
					c0.25-0.25,0.49-0.54,0.69-0.79c0.25-0.25,0.44-0.54,0.64-0.69c0.2,0.05-0.84,0.93-0.25,0.54c-0.2,0.2-0.44,0.34-0.64,0.49
					c0.64-0.25-0.39,0.34,0.25,0.15c0.84-0.69,0.79-0.89,1.63-1.62c0.1-0.25-0.15-0.05-0.05-0.3c0.44-0.64,0.74-0.79,0.99-0.89
					s0.44-0.2,0.69-0.74c0.1-0.3,0-0.49,0.59-1.08v0.34c0.1-0.1,0.15-0.2,0.2-0.25l-0.99-0.64c-0.25,0.54,0.05,0.44-0.49,1.23
					c0.05-0.2,0.35-0.74,0.25-0.59c-0.44,0.54-0.15,0.49-0.4,0.93h-0.2c-0.3,0.44-0.54,0.98-0.79,1.48
					c-0.3,0.49-0.59,1.03-0.94,1.53c0-0.1,0.1-0.3-0.15-0.1c-0.79,1.28-1.97,2.56-3.01,3.54c-0.1,0.2-0.2,0.34-0.3,0.49
					c-0.1,0.1-0.2,0.15-0.15,0c-0.44,0.39,0.05,0.1-0.1,0.34c-0.2,0.25-0.35,0.25-0.25,0.05c-0.59,0.84-1.88,2.16-2.76,2.76
					l0.15-0.15c-0.64,0.49-0.54,0.79-1.23,1.18l0.1-0.1c-1.43,1.03-3.06,2.21-4.34,2.66c-0.1,0.34-1.63,0.69-1.58,0.98
					c-0.49,0.15-0.69,0.15-0.94,0.2c-0.25,0.05-0.49,0.15-1.18,0.3c-0.35,0.1-0.49,0.34-0.94,0.49l-0.05-0.15l-0.25,0.15l0.2,1.03
					l0.35-0.15l0.39,0.1l0.44-0.1c-0.2,0-0.39,0-0.39-0.05c0.2-0.05,0.39-0.1,0.59-0.1c0.2-0.05,0.39-0.05,0.54-0.1
					c0.35-0.05,0.64-0.05,0.64,0c0.54-0.2,1.09-0.44,1.58-0.64c0,0.05-0.3,0.2-0.49,0.3c0.84-0.44,0.2,0.1,0.94-0.3
					c-0.1,0,0-0.1,0.05-0.15c0.2-0.05,0.54-0.15,0.89-0.25c0.35-0.15,0.69-0.34,1.04-0.49l-0.1,0.15c1.18-0.49,2.37-1.23,3.55-1.97
					c-0.44,0.25-0.44,0-0.1-0.25l0.25,0.05c0.15-0.25-0.4,0.2,0-0.2c0.44-0.25,0.39-0.05,0.15,0.15l0.49-0.39
					c0.05,0-0.05,0.1-0.05,0.2c0.15-0.2,0.99-0.49,1.23-0.84h0.05c1.13-0.79,1.63-1.23,2.52-1.97c-0.05-0.1,0.3-0.39,0.49-0.69
					c0.69-0.49,1.48-0.98,2.22-1.67c0.49-0.54,0.1-0.25,0.25-0.49c0.15,0.05,0.89-0.64,0.54-0.2c0.84-0.79,1.09-1.03,2.02-2.07
					l-0.79-0.54c0,0-0.05,0.1-0.05,0.15c0.05-0.05,0.1-0.1,0.1-0.15l0.69,0.44c-0.1,0.05-0.15,0.1-0.1,0l0.05-0.05l-0.54-0.39
					c-0.1,0.25-0.3,0.44-0.3,0.39v-0.05c-0.25,0.79-0.79,1.62-1.33,2.31c-0.54,0.74-1.13,1.38-1.43,1.97l0.05-0.05l-0.79,1.13
					c-0.44,0.44,0.2-0.34-0.2-0.05c-0.44,0.59-0.79,1.03-1.23,1.43c-0.2,0.2-0.4,0.39-0.59,0.59c-0.2,0.2-0.39,0.39-0.59,0.64
					c-0.49,0.2-1.09,0.74-1.78,1.28c-0.35,0.3-0.69,0.54-1.04,0.79s-0.69,0.44-0.99,0.59l0.1,0.05c-0.25,0.25-0.35,0.2-0.59,0.3
					c0.05,0.05,0.35-0.1,0.2,0.05c-1.83,1.28-4,2.21-6.22,2.85l0.44,1.38c0.59-0.15,1.18-0.3,1.78-0.49
					c1.04-0.34,0.44-0.64,1.78-0.93l-0.3,0.3c1.98-0.98,4.1-1.82,5.87-3.05c-0.1,0.1-0.05,0.15-0.25,0.25
					c0.44-0.1,1.43-0.89,1.38-0.93c0.3-0.15,0.1,0.05,0.3-0.05c0.44-0.2,0.89-0.74,1.14-0.79c0.05,0-0.1,0.1-0.15,0.15
					c0.2-0.2,1.13-0.79,0.84-0.74c0.69-0.39,1.18-0.98,1.73-1.28c0.25-0.39,1.14-0.79,1.09-1.08c0.1,0.2,1.19-0.79,1.48-1.23
					c-0.1,0.15,0.4-0.25,0.3-0.05c0.44-0.39,0.79-0.79,0.64-0.79c0.1-0.05,0.2-0.1,0.3-0.2l-0.94-0.69
					c-0.3,0.39-0.44,0.79-0.59,1.18c-0.2,0.34-0.35,0.64-0.64,0.79c-0.84,1.43-1.78,2.71-2.76,3.84c-0.05-0.1,0.2-0.39,0.49-0.69
					c0.25-0.3,0.49-0.59,0.39-0.64c-0.84,1.13-1.28,1.87-2.37,2.8c-0.3,0.25,0.1-0.2,0.15-0.34c-0.99,1.03-2.07,1.82-3.01,2.71
					c0,0,0.1-0.1,0.2-0.2c-0.2,0.15-0.49,0.34-0.39,0.39l0.2-0.15c0.39-0.15-0.59,0.84-0.59,0.93c0.2-0.49-1.09,0.69-0.74,0
					c-0.1,0.1-0.25,0.3-0.2,0.3c-0.2,0.15-0.3,0.15-0.15-0.05c-0.69,0.54-0.39,0.49-1.04,0.93c-0.05-0.05,0.1-0.15,0.15-0.25
					c-0.3,0.3-0.59,0.64-1.18,0.98c0-0.05-0.05-0.05,0.1-0.15c-0.49,0.34-0.89,0.69-1.28,0.98c-0.1,0.1-0.2,0.15-0.3,0.25l-0.15,0.1
					c-0.05,0.05-0.1,0.05-0.2,0.15c-0.2,0.2-0.2,0.54,0,0.74c0.1,0.1,0.25,0.15,0.4,0.15c0.05,0,0.15,0,0.2-0.05l0.1-0.05
					c-0.3,0.34,0.44-0.1,0.59,0.05l0.64-0.3h-0.3c0.59-0.2,1.04-0.54,1.58-0.69l-0.39,0.25l1.09-0.44l-0.64,0.2
					c0.54-0.3-0.15-0.2,0.64-0.44c-0.15,0.1,0.59-0.25,0.94-0.25C48,72.29,48.29,72.1,48.64,72c0.05,0.05-0.1,0.25-0.05,0.3
					c0.1-0.1,0.3-0.25,0.54-0.34c0.25-0.1,0.49-0.25,0.84-0.44c-0.2,0.1-0.39,0.3-0.39,0.34c0.15-0.1,0.3-0.2,0.44-0.3
					c0.1,0,0.05,0.05-0.2,0.25c0.2-0.05,0.35-0.15,0.49-0.25c0.05-0.05,0.1-0.1,0.2-0.15c0.05,0,0.05,0,0.1,0c0,0,0.05,0,0.05,0.05
					c0,0,0,0.1-0.05,0.15h-0.05c-0.05,0-0.05,0-0.15,0c0.05,0,0.05,0.1,0,0.1c0,0.05-0.05,0.1-0.1,0.1l-0.15,0.2
					c-0.1,0.1-0.2,0.2-0.3,0.34c-0.2,0.2-0.44,0.49-0.74,0.69c-0.35,0.05,0.3-0.34-0.05-0.2l-0.15,0.15l-0.1,0.1l-0.05,0.05
					l-0.1,0.1c-0.2,0.2-0.44,0.49-0.69,0.69c-0.49,0.49-1.04,0.93-1.58,1.28l0.2-0.1c0,0.34-0.89,0.44-1.38,0.84
					c0.15-0.1,0.1-0.25,0.1-0.2c-0.2,0.1-0.35,0.2-0.54,0.3l0.35,0.64c0.3-0.15,0.64-0.34,1.04-0.49c0.39-0.2,0.64-0.3,1.04-0.39
					l-0.2,0.1c0.1,0,0.15,0,0.25,0.05c0.1,0,0.2,0.1,0.2,0.2c0,0.2-0.2,0.39-0.3,0.49c0,0.1-0.15,0.25,0,0.2
					c-0.15,0.1-0.35,0.2-0.54,0.34c-0.2,0.15-0.4,0.25-0.54,0.39c-0.35,0.25-0.69,0.54-1.09,0.79l0.3,0.44
					c0.64-0.49,1.14-1.03,1.78-1.43c-0.15,0.15-0.3,0.34-0.2,0.25l0.94-0.93c-0.15,0-0.2,0.05-0.44,0.2
					c0.1-0.15,0.35-0.44,0.59-0.69c-0.39,0.44,0.1,0.15,0.35,0c-0.05,0,0-0.1-0.05-0.1c0.64-0.3-0.05-0.25,0.79-0.74v0.1
					c0.25-0.25,0.49-0.49,0.79-0.69c0.2,0-0.3,0.25-0.25,0.39c0.44-0.3,0.74-0.79,1.23-0.93c-0.2,0.15-0.44,0.3-0.64,0.49
					c0.54-0.15,0.54-0.2,0.89-0.39h-0.05c0.3-0.1,0.54-0.25,0.84-0.34l-0.25,0.05c0.15-0.2,0.35-0.34,0.54-0.44l-0.2-0.25
					c-0.25,0.39-0.59,0.79-0.89,1.33c0.39-0.84,0-0.2-0.1-0.34c-0.2,0.15-0.44,0.39-0.39,0.3c-0.15,0.39-0.54,0.49-0.79,1.08
					c-0.05,0-0.3,0.34-0.35,0.2c-0.35,0.44,0.15-0.05,0.15,0.05c-0.44,0.74-1.53,1.33-2.27,2.26c-0.44,0.44-0.64,0.74-0.89,1.03
					l-0.15,0.34l0.3-0.1c0.25-0.05,0.49-0.1,0.89-0.2c0.35,0.05-0.25,0.2-0.25,0.2c0.54,0,0.99-0.1,1.48-0.3
					c-0.1,0.05,0.05,0.1,0.2,0.05c0.4-0.2,0.2-0.25,0.74-0.44c-0.05,0.1-0.15,0.25-0.3,0.39c0.44-0.25,0.84-0.64,1.18-1.03
					c0.15-0.05-0.15,0.3-0.25,0.49c0.49-0.39,1.04-1.13,1.04-1.38l-0.25,0.25c0.15-0.15,0.15,0,0.1,0.15
					c-0.25,0.44-0.54,0.49-0.59,0.49c0.1-0.1,0.15-0.2,0.25-0.3c-0.25,0.05-0.44,0.3-0.74,0.59c-0.3,0.3-0.69,0.59-1.04,0.69
					l0.2-0.3c-0.2,0.15-0.39,0.3-0.64,0.39c-0.15,0-0.3-0.1,0.05-0.2c-0.25,0.05-0.34,0.05-0.44,0.1c-0.1,0.05-0.2,0.1-0.39,0.05
					c-0.05,0-0.05,0,0-0.05l-0.49,0.15c0.1-0.05-0.1-0.15,0.2-0.15c-0.3,0-0.59,0-0.84,0.05l0.15,0.39c0.3-0.3,0.49-0.54,0.74-0.64
					L47.52,79c0.89-0.89,0-0.2,0.59-0.93l0.74-0.15v-0.2c0.1-0.1,0.3-0.25,0.3-0.2c0.25-0.39-0.1,0,0-0.25
					c0.54-0.34,1.14-1.28,1.38-1.23c0.05-0.25-0.44,0.39-0.1-0.15c0.35,0,0.44-0.59,0.89-0.98c0,0.2-0.39,0.59,0.05,0.25
					c0.05-0.39,0.74-0.84,0.99-1.28c-0.05-0.05,0-0.1,0.05-0.25l0.34-0.64l-0.59,0.34c-0.3,0.2-0.99,0.44-1.48,0.79
					c0-0.1-1.38,0.69-1.97,1.13V75.2c0,0.25-0.64,0.69-1.04,1.08c-0.05-0.1,0-0.2,0.2-0.44l-0.4,0.34
					c-0.05,0.15-0.15,0.25-0.39,0.49v-0.2c-0.54,0.49-0.94,1.08-1.68,1.57c0.05,0.15,0.79-0.2,0.1,0.49c-0.05-0.05-0.15-0.1,0-0.3
					c-0.05,0.05-0.2,0.2-0.35,0.3l0.05,0.1l-0.1-0.1l0.25-0.3c-0.25,0.15-0.2,0.2-0.25,0.25l0.15,0.2c0-0.05,0.05-0.05,0.15-0.1
					c0.05,0.1,0.25-0.05,0.25,0c-0.05,0.05-0.25,0.1-0.35,0.2l-0.25-0.39c0,0,0,0,0.05-0.05h-0.05l0.25,0.39
					c0.35-0.15,0.69-0.34,0.89-0.39c-0.05-0.05-0.05-0.1,0.15-0.3c0.59-0.44,0.25-0.05,0.64-0.25c0.1-0.15,0.49-0.39,0.39-0.54
					c0.2-0.2,0.3-0.2,0.39-0.25c0.1-0.1,0.2-0.25,0.35-0.44c0.1-0.2,0.2-0.39,0.25-0.54c0.05-0.2,0-0.34-0.05-0.39
					s-0.05-0.05-0.05,0.05c0,0.05,0,0.05,0,0.1v-0.05c-0.05-0.15-0.2-0.25-0.3-0.3c-0.15-0.05-0.3-0.05-0.44-0.05
					c-0.3,0-0.64,0.05-0.94,0.15c-0.59,0.15-1.14,0.34-1.63,0.59l0.2,0.39c0.1-0.05,0.2-0.1,0.25-0.15v0.05
					c0.59-0.39,1.33-0.84,1.68-1.23c0.15-0.15,0.44-0.25,0.39-0.15c0.4-0.34,0.44-0.44,1.09-0.89c-0.35,0.39,0.2-0.05-0.39,0.39
					c0.3-0.2,0.49-0.34,0.64-0.49c0.2-0.15,0.35-0.3,0.64-0.64c-0.1,0.15,0.1,0.05,0.35-0.15s0.54-0.49,0.74-0.69l-0.64,0.49
					c0.35-0.34,0.74-0.69,1.04-0.98c0.05,0,0.15,0.05,0.15,0.1c0.15-0.1,0.2-0.2,0.3-0.3c0.1-0.1,0.15-0.2,0.25-0.25
					c0.1-0.15,0.15-0.25,0.2-0.34c0-0.1,0.05-0.15,0.05-0.25c0-0.05,0-0.1,0-0.15s0-0.1-0.1-0.2s-0.25-0.05-0.34-0.05
					c-0.1,0-0.25,0-0.35,0.05c-0.25,0.05-0.4,0-0.64,0c-0.3,0.15-0.1,0.1,0.1,0.1s0.3,0,0.05,0.1c-0.35,0.05-0.64,0.1-0.94,0.15
					c-0.35,0.05-0.69,0.15-0.84,0.2c-0.2,0.05-0.35,0.1-0.44,0.2c-0.15,0.05-0.3,0.1-0.35,0.15c-0.15,0.05-0.2,0.15-0.3,0.2
					c-0.2,0.15-0.35,0.3-0.79,0.44c0.15,0,0.3,0.1-0.35,0.44c-0.64,0.25-0.84,0.05-0.49-0.15c0.15-0.05,0.25-0.05,0.25-0.05
					c0.2-0.1,0.44-0.25,0.2-0.2l-0.05,0.1c-0.35,0.05-1.18,0.39-0.99,0.25c-0.44,0.25-0.15,0.15,0.2,0.05
					c-0.84,0.25-1.23,0.44-2.07,0.69c0.15,0,0.3,0,0.15,0.05s-0.3,0.1-0.4,0.1c0,0.15,0,0.15,0,0.15c0-0.05,0.05-0.05,0.05-0.05
					s0,0-0.05,0c0,0,0.05-0.05,0.15-0.1c0.44-0.2-0.05,0.3,0.64-0.25c0.49-0.25,0.2,0.05,0.05,0.25c0.59-0.54,1.28-0.74,1.68-0.98
					l-0.34,0.3c0.2-0.15,0.34-0.3,0.54-0.39l-0.25,0.05c0.2-0.1,0.39-0.25,0.39-0.2c0.15-0.2-0.25-0.05,0.1-0.44
					c0.3-0.15,0.79-0.64,0.99-0.54c-0.89,0.54,0.2,0.05-0.54,0.59c0.15-0.1,0.3-0.25,0.49-0.34c0.05,0,0,0.05-0.05,0.1
					c0.89-0.44,0.3-0.39,1.09-1.03c-0.05,0.15,0.3,0,0.39-0.15c-0.35,0.25-0.25,0,0-0.3c0.54-0.34,0.54-0.49,0.84-0.69l-0.35,0.2
					c0.05-0.15,0.35-0.34,0.64-0.64c0.05,0.05-0.3,0.3-0.15,0.2c0.3-0.44,0.99-0.59,1.48-1.13c0.3-0.15,0.15,0.1,0.39-0.05
					c0.54-0.64,0.74-0.49,1.28-1.13c-0.25,0.1-0.25,0.15,0.1-0.34c-0.3,0.34-0.64,0.69-0.94,1.03l0.54-0.74
					c-0.3,0.3-0.59,0.64-0.79,0.79c0.25-0.34,0.25-0.3,0-0.25c0.25-0.15,0.44-0.34,0.64-0.54c0.2-0.25,0.39-0.49,0.64-0.64l0.2,0.2
					c0.79-0.64,1.14-1.38,2.02-2.31c-0.1,0.1-0.2,0.2-0.3,0.3c0.05-0.2,0.49-0.64,0.69-0.98c0.05,0.1,0.25-0.1,0.4-0.2
					c-0.05,0,0.54-0.79,0.44-0.98l0.44-0.39c0.59-0.79,0.39-1.13,0.84-1.87l0.69-1.23l-1.09,0.98c-0.05,0.05-0.05,0.05-0.1,0.1
					c0.1-0.15,0-0.15,0-0.2l0.05-0.2l0.59,0.69c0,0,0,0.1-0.1,0.34c0.05-0.1,0.15-0.25,0.2-0.3l1.68-2.9l-2.47,2.36
					c-0.1,0.1-0.2,0.2-0.15,0.25c-0.2,0.1-0.54,0.74-0.84,0.84c-0.05,0.15-0.05,0.25-0.3,0.49c-0.05,0-0.05-0.05-0.05-0.05
					c0.05,0.05-0.4,0.44-0.05,0.3c-0.94,0.44-2.12,1.87-3.01,2.16c-0.54,0.44-1.23,0.98-1.78,1.38c0-0.05-0.05-0.05,0.1-0.1
					c-0.79,0.44-0.3,0.54-1.23,1.03c-0.54,0.15,0.39-0.34,0.1-0.25c-0.3-0.2-1.04,0.69-1.73,0.89l0.15-0.1
					c-0.49,0.2-1.04,0.74-1.83,1.13V67.6c-0.44,0.39-1.43,0.93-2.17,1.33c0.2-0.2,0.3-0.2,0.1-0.25c-0.35,0.15,0.2,0.15-0.49,0.49
					c-0.25,0.05-0.74,0.2-0.89,0.1c0.2-0.1,0.44-0.2,0.64-0.3c-0.39,0-0.84,0.34-1.18,0.44v-0.1c-0.49,0.2-0.74,0.34-0.99,0.49
					s-0.49,0.3-1.04,0.44h0.15c-0.49,0.34-0.54,0.1-0.94,0.3l0.15,0.39c0.05,0,0.1-0.05,0.15-0.1l0.25,0.1
					c0.2-0.1,0.54-0.25,0.89-0.44c0.35-0.2,0.74-0.44,1.09-0.59c-0.35,0.3-1.14,0.74-1.63,0.98c0.39-0.15,1.33-0.54,1.48-0.74
					c-0.15,0.1-0.35,0.2-0.49,0.25c0.2-0.15,0.44-0.34,0.74-0.49c0.3-0.2,0.59-0.34,0.99-0.54c0.05,0.44,1.97-0.93,2.62-1.03
					c1.18-0.89,2.47-1.57,3.8-2.71c-0.64,0.15,0.39-0.34,0.1-0.49c0.3-0.3,0.39-0.39,0.44-0.39c0.35-0.25,0.69-0.44,0.99-0.69
					c0.25-0.15-0.25,0.3-0.15,0.34c0.64-0.59,0.35-0.15,0.84-0.54c-0.15,0,0.1-0.3,0.49-0.64c-0.2,0.15-0.39,0.3-0.59,0.39
					c0.39-0.49,0.59-0.64,0.84-0.79c0.2-0.15,0.49-0.3,0.79-0.84l-0.2,0.34c0.2-0.25,0.54-0.74,0.94-1.18
					c0.35-0.49,0.64-0.98,0.74-1.33c0.1-0.1,0.25-0.15,0.1,0.1c0.84-1.13,1.43-2.76,1.92-3.79l1.04-2.12l-1.88,1.57
					c-0.1,0.1-0.2,0.15-0.25,0.2l0.05-0.15c-0.2,0.2-0.25,0.44-0.54,0.64c0-0.05,0.05-0.15-0.05-0.05s-0.44,0.59-0.74,0.84l0.2-0.3
					c-1.14,0.93-1.53,1.62-2.42,2.46c-0.15-0.15-1.04,0.49-1.53,0.84v-0.05c-1.33,1.03-2.12,1.87-3.4,2.8
					c-0.94,0.34-2.81,1.67-4.24,2.21c0.25-0.05,0.05,0.15-0.2,0.3c-0.34,0.1-0.84,0.54-0.89,0.34l0.1-0.05
					c-0.3-0.05-0.99,0.25-1.53,0.44v0.3c-0.64,0.05-1.38,0.3-2.12,0.49c-0.74,0.25-1.43,0.34-1.97,0.44l0.2,0.98
					c0.25-0.05,0.44-0.1,0.59-0.05c0.35-0.2,0.79-0.3,1.14-0.49l0.05,0.15c0.49-0.2,0.89-0.3,1.28-0.44
					c0.39-0.15,0.79-0.39,1.38-0.64l-0.2,0.2c0.69-0.3,0.64-0.79,1.23-1.08l0.3,0.1c1.14-0.64,2.32-1.18,3.21-2.07
					c0,0.05,0,0.1-0.15,0.25c0.49-0.34,1.92-1.33,1.58-1.38c0.15,0.15,0.99-0.84,1.48-1.38v0.2c0.3-0.54,0.3-0.59,0.84-1.18
					c0.15-0.1,0.2-0.05,0,0.1c0.49-0.39,0.25-0.44,0.84-0.93l-0.15,0.25c0.44-0.44,0.4-0.44,0.54-0.79
					c0.25-0.34,0.84-0.89,0.99-0.89c0-0.1,0.15-0.44,0.44-0.74c0.05,0,0,0.1-0.05,0.2c0.74-0.79,0.89-1.38,1.43-1.87
					c0.05,0,0.1,0,0.15-0.05c-0.49,0.69-0.99,1.23-0.94,1.18c0.1,0.1,0.54-0.44,0.35,0.1c0.3-0.49,0.69-1.43,1.14-1.92
					c0.05,0,0.05-0.05,0.1-0.05l-0.05,0.05c0.1-0.1,0.15-0.25,0.25-0.39c0.15-0.15,0.25-0.3,0.35-0.44c0.15,0,0.49-0.64,0.69-0.93
					c-0.15-0.05,0.15-0.44-0.2-0.1c0.05-0.05,0,0.05-0.15,0.25c0,0.05-0.05,0.1-0.05,0.15c0,0,0,0,0-0.05
					c-0.15,0.2-0.3,0.44-0.49,0.74c0.1-0.25,0.2-0.54,0.49-0.84c0-0.2,0.05-0.39,0.05-0.54c0.39-0.3,0.99-1.03,1.14-1.08
					c0.2-0.39,0.39-0.79,0.59-1.23l-0.84-0.54c-0.4,0.59-0.79,1.13-0.94,1.57c-0.2,0.25-0.3,0.2-0.39,0.25
					c0.1-0.15,0.25-0.3,0.25-0.39c-0.35,0.49-1.14,1.33-1.14,1.57c-0.59,0.49,0.2-0.39-0.54,0.34l0.05-0.15
					c-0.39,0.3-0.74,0.64-1.04,0.93c-0.3,0.3-0.59,0.64-0.89,0.98s-0.59,0.64-0.94,0.93c-0.35,0.3-0.74,0.64-1.28,0.89
					c0.15-0.1,0.2-0.1,0.25-0.1c-2.12,1.43-4.3,3.15-6.76,3.99c-0.69,0.25-0.69,0.39-1.08,0.64l-0.2-0.1l-0.64,0.44
					c-0.49,0.25-0.94,0.3-1.43,0.39c-0.25,0.05-0.49,0.1-0.79,0.15c-0.3,0.05-0.54,0.15-0.89,0.3l0.2,0.05
					c-0.25,0.05-0.59,0.15-0.89,0.25c-0.3,0.05-0.54,0.1-0.54,0.05c-0.05,0.05-0.15,0.15-0.35,0.1l-0.05-0.1l-0.59,0.2l-0.59,0.15
					c-0.94,0.05,0.1-0.3-1.23-0.2c-0.49,0.05-1.38,0.25-1.23,0.3c0.2,0,0.49,0.05,0.54,0.1l-0.44,0.05
					c-0.1,0.25-0.44,0.49,0.69,0.59c0.3-0.05,0.54-0.1,0.79-0.15l0.25,0.1c-0.25,0.05-0.44,0.05-0.69,0.05
					c0.39,0.1,0.64-0.05,0.89-0.1c0.05,0.05,0.2,0.1,0.35,0.1c0.25-0.1,0.49-0.2,0.74-0.3c0.1,0.05-0.35,0.25,0.2,0.2
					c0.35-0.15-0.39-0.15,0.2-0.3c0.39,0.05,0.3,0.15,0.74-0.05c0.1,0.05,0,0.1-0.2,0.15c0.39-0.15,1.04-0.25,1.23-0.44
					c0.44,0.05,1.28-0.39,1.33-0.2c0.1-0.1,0.64-0.39,0.99-0.49c-0.3,0.25,0.05,0.15,0.44,0c0.4-0.15,0.84-0.3,0.79-0.15
					c0.2-0.2,0.59-0.39,1.04-0.59c0.44-0.25,0.94-0.44,1.33-0.69c-0.05,0.05-0.1,0.1-0.2,0.15c0.44-0.2,0.59-0.2,0.94-0.34
					c-0.05-0.2,0.64-0.59,0.94-0.89c0.59-0.15-0.2,0.39,0.05,0.44c-0.1-0.1,0.84-0.69,0.59-0.69c0.44-0.15,0.39-0.15,0.64-0.15
					c-0.05-0.25,0.35-0.25,0.59-0.59c0.64-0.3,0.25,0.1,0.84-0.39C48.72,58.55,48.22,58.99,48.22,58.99z M53.46,54.52
					c0.1-0.15,0.15-0.25,0.2-0.3C53.6,54.27,53.55,54.37,53.46,54.52z M52.57,55.7c0.1-0.15,0.25-0.3,0.39-0.49
					c0.05,0,0.1,0.05,0,0.2C52.96,55.25,52.76,55.55,52.57,55.7z M55.18,53.68c-0.1,0.2-0.2,0.25-0.25,0.25
					c0.05-0.1,0.15-0.2,0.2-0.34c0,0,0,0,0-0.05C55.18,53.63,55.18,53.63,55.18,53.68z"/>
				<path class="st7" d="M55.23,53.24c0-0.05,0-0.05,0.05-0.1c-0.05,0.05-0.05,0.05-0.1,0.1c0,0.05,0,0.05,0,0.1
					C55.18,53.33,55.23,53.28,55.23,53.24z"/>
				<path class="st7" d="M36.72,67.01v0.05l0.1-0.1L36.72,67.01z"/>
				<path class="st7" d="M48.22,76.26c0,0,0.05,0,0.1-0.05C48.32,76.21,48.27,76.21,48.22,76.26z"/>
				<path class="st7" d="M51.04,74.34l0.44-0.2C51.28,74.24,51.14,74.29,51.04,74.34z"/>
				<path class="st7" d="M48.67,68.93c0.05,0,0.05-0.05,0.1-0.05C48.91,68.73,48.77,68.83,48.67,68.93z"/>
				<path class="st7" d="M47.58,72.62c-0.1,0.1-0.25,0.15-0.35,0.2C47.43,72.77,47.58,72.72,47.58,72.62z"/>
				<path class="st7" d="M56.91,61.3l-0.05,0.05L56.91,61.3z"/>
				<path class="st7" d="M46.69,73.06c0.2-0.05,0.39-0.15,0.54-0.2C47.04,72.92,46.84,72.97,46.69,73.06z"/>
				<path class="st7" d="M51.09,77.79c0.05-0.05,0.05-0.05,0.1-0.1c0,0,0,0,0-0.05C51.14,77.69,51.14,77.74,51.09,77.79z"/>
				<path class="st7" d="M51.18,77.69l0.1-0.15C51.18,77.59,51.18,77.64,51.18,77.69z"/>
				<path class="st7" d="M51.43,77.29c-0.05,0.1-0.1,0.2-0.15,0.25C51.33,77.44,51.38,77.34,51.43,77.29z"/>
				<path class="st7" d="M47.83,79.61l-0.05,0.05C47.83,79.66,47.83,79.66,47.83,79.61z"/>
				<path class="st7" d="M46.74,79.75c0.15,0,0.3,0,0.49,0c0.2,0,0.39,0,0.54-0.05l0.05-0.05C47.63,79.75,46.94,79.66,46.74,79.75z"
					/>
				<path class="st7" d="M49.85,76.61c-0.2,0.2-0.44,0.44-0.64,0.64c0.15-0.1,0.35-0.2,0.05,0.15
					C50.2,76.65,49.01,77.49,49.85,76.61z"/>
				<path class="st7" d="M51.73,74.49c-0.3,0.39,0.05,0.05,0.05,0.1C51.93,74.29,51.97,74.24,51.73,74.49z"/>
				<path class="st7" d="M47.53,75.08l0.05,0.15C47.88,74.98,47.53,75.18,47.53,75.08z"/>
				<path class="st7" d="M49.46,72.57l-0.3,0.2c0.05,0,0.1,0,0.15,0L49.46,72.57z"/>
				<path class="st7" d="M53.11,62.93l0.2,0.05C53.46,62.78,53.41,62.63,53.11,62.93z"/>
				<path class="st7" d="M40.52,69.91c-0.2-0.05-0.59,0.05-0.79,0.2C40.03,70.01,40.38,69.96,40.52,69.91z"/>
				<path class="st7" d="M39.88,66.32l0.25-0.15l-0.49,0.2L39.88,66.32z"/>
				<path class="st8" d="M143.04,171.12c0,0,6.96-2.36,16.09-11.32c9.13-8.96,11.6-15.84,11.6-15.84l-0.15,8.41
					c0,0-0.59,5.95-7.06,12.3s-12.24,6.4-13.43,6.4C148.92,171.07,143.04,171.12,143.04,171.12z"/>
				<path class="st9" d="M139.49,139.93c0,0,9.08-12.74,12.14-19.93c0,0,4.2,11.56,7.5,14.96c5.33,5.51,8.64,2.26,11.45,5.61
					c2.37,2.8-2.12,10.33-7.5,16.19c-0.99,1.03-2.57,2.9-3.5,3.79c-5.92,5.81-17.67,12.99-20.63,9.94
					c-0.84-0.84-0.79-2.26-0.84-4.13c-0.05-1.97-1.73-4.38-3.9-6.69c-4.49-4.82-12.98-8.17-12.98-8.17S132.53,146.76,139.49,139.93z
					"/>
				
					<linearGradient id="SVGID_00000073712635031482760800000001366999221771986596_" gradientUnits="userSpaceOnUse" x1="139.8465" y1="559.5095" x2="150.4465" y2="541.8625" gradientTransform="matrix(1 0 0 1 0 -386)">
					<stop  offset="0" style="stop-color:#56E3D7"/>
					<stop  offset="1" style="stop-color:#2F97F0"/>
				</linearGradient>
				
					<path style="opacity:0.49;fill:url(#SVGID_00000073712635031482760800000001366999221771986596_);enable-background:new    ;" d="
					M160.47,159.31c2.91-3.25,2.27-5.61,0.64-6.1c-1.73-0.54-3.7,1.28-7.8,4.28c-4.1,3.05-8.29,3.35-12.14,0.05
					c-2.66-2.26-5.28-0.1-4.2,2.51c1.09,2.61,0.94,3.35,1.18,6.25s0.05,5.21,3.26,4.77c3.21-0.44,7.7-1.87,11.9-5.22
					C157.4,162.51,158.99,160.93,160.47,159.31z"/>
				<path class="st8" d="M125.03,151.34c0,0,9.13-1.18,17.28-8.12c9.08-7.77,10.22-13.63,10.22-13.63l-1.53-4.67
					c0,0-1.53,5.31-11.45,15.06c-9.92,9.74-15.3,11.17-15.3,11.17L125.03,151.34z"/>
				<path class="st8" d="M169.7,140.37c-2.07-0.89-3.11,0.74-8.74,0.89c-2.52,0.05-6.76-0.69-8.44-1.82
					c-3.55-2.36-6.27-6.79-6.27-6.79l7.35-8.76c0,0,0.74,6.4,5.53,11.07c1.97,1.92,6.37,3.25,8.69,4.18
					C169.65,139.88,169.7,140.37,169.7,140.37z"/>
				<path class="st11" d="M142.7,167.48c-0.05,0.69,1.33,0.59,3.21-0.29c1.88-0.89,3.46-2.12,4.69-3.2
					c1.28-1.08,0.54-2.41-0.64-1.52c-1.78,1.28-3.4,2.26-4.84,3.05C143.68,166.3,142.75,166.69,142.7,167.48z"/>
				<path class="st12" d="M69.94,105.34l46.6,117.34c0.25,0.64,1.18,0.49,1.23-0.2l3.7-63.17c0,0-3.7,1.38-6.57-1.38
					c-2.86-2.76-3.6-5.61-3.21-10.09L69.94,105.34z"/>
				<path class="st12" d="M105.53,70.5l116.93,48.36c0.64,0.25,0.44,1.18-0.2,1.23l-63.43,2.66c0,0,1.43-3.64-1.28-6.54
					s-5.58-3.69-10.07-3.35L105.53,70.5z"/>
				<path class="st13" d="M118.16,215.79c0,0-12.34-31-16.53-41.33c-4.2-10.33,2.66-13.53,5.97-12.35s13.08,4.92,13.08,4.92
					L118.16,215.79z"/>
				<path class="st13" d="M157.55,116.16c-1.88-3.15-8.44-11.32-12.98-18.01c-3.36-4.97,0.1-7.77,4.79-5.36l66.14,27.6l6.76-0.15
					c0.69,0,0.89-0.98,0.25-1.28L105.53,70.5l41.96,42.31c0,0,3.41-0.79,5.38,0.15C154.79,113.9,157.55,116.16,157.55,116.16z"/>
				<path class="st13" d="M156.52,114.49c2.76,4.13,8.69,4.23,22.11,3.99c13.43-0.25,30.8-0.64,30.8-0.64l6.07,2.51l-56.67,2.36
					c0,0,0.79-1.72,0.44-2.95C158.94,118.52,156.52,114.49,156.52,114.49z"/>
				<path class="st13" d="M83.61,129.45l-7.06-17.51l35.14,35.92v3.79c-5.13-5.85-10.17-10.09-15.7-14.76
					C88.6,130.58,83.61,129.45,83.61,129.45z"/>
				<path class="st13" d="M113.38,164.23c2.57,0.98,4.74-0.05,4.99-1.67s0.35-2.85,0.35-2.85l2.76-0.29l-1.04,11.17L113.38,164.23z"
					/>
				
					<linearGradient id="SVGID_00000157300532522074257830000008807341654446439047_" gradientUnits="userSpaceOnUse" x1="76.1065" y1="567.3663" x2="110.991" y2="532.9529" gradientTransform="matrix(1 0 0 1 0 -386)">
					<stop  offset="0" style="stop-color:#56E3D7"/>
					<stop  offset="1" style="stop-color:#2F97F0"/>
				</linearGradient>
				
					<path style="opacity:0.49;fill:url(#SVGID_00000157300532522074257830000008807341654446439047_);enable-background:new    ;" d="
					M116.54,222.29l-46.6-116.95l7.5,7.63l40.67,102.78l-0.3,6.3C117.82,222.78,116.83,222.93,116.54,222.29z"/>
				
					<linearGradient id="SVGID_00000030450393215709430230000016224864966449849786_" gradientUnits="userSpaceOnUse" x1="200.9707" y1="508.2782" x2="187.6877" y2="503.3452" gradientTransform="matrix(1 0 0 1 0 -386)">
					<stop  offset="0" style="stop-color:#56E3D7"/>
					<stop  offset="1" style="stop-color:#2F97F0"/>
				</linearGradient>
				
					<path style="opacity:0.49;fill:url(#SVGID_00000030450393215709430230000016224864966449849786_);enable-background:new    ;" d="
					M175.92,122.02c3.85-0.1,9.08-2.41,10.56-5.76c1.53-3.35-0.64-8.27-8.89-11.71l37.86,15.79L175.92,122.02z"/>
				
					<linearGradient id="SVGID_00000164507152787961448330000016111755675683593103_" gradientUnits="userSpaceOnUse" x1="165.5976" y1="488.7135" x2="168.6246" y2="507.3689" gradientTransform="matrix(1 0 0 1 0 -386)">
					<stop  offset="0" style="stop-color:#56E3D7"/>
					<stop  offset="1" style="stop-color:#2F97F0"/>
				</linearGradient>
				
					<path style="opacity:0.49;fill:url(#SVGID_00000164507152787961448330000016111755675683593103_);enable-background:new    ;" d="
					M171.57,122.16c0,0-4.34-5.81-4.64-11.96c-0.35-6.59,3.21-8.76,3.21-8.76l-7.85-3.25c0,0-2.12,5.51,0.2,13.23
					c1.53,5.12,6.71,11.12,6.71,11.12L171.57,122.16z"/>
				<path class="st6" d="M111.7,147.9c0,0-3.11,5.66,3.21,10.09c6.27,4.43,19.74-2.71,29.71-12.5c9.97-9.79,15.35-20.96,14.66-25.68
					s-5.68-8.61-11.8-6.94c0,0,2.67,1.62,1.88,6.35s-3.95,11.17-11.95,18.99s-19.5,12.79-22.06,11.81
					C112.79,148.98,111.7,147.9,111.7,147.9z"/>
				<path class="st17" d="M128.02,154.37c-2.08,0.12-2.09-2.19-0.21-3.11c0.99-0.49,2.16-1.12,3.56-1.96l0,0
					c1.93-1.16,4.23,0.62,2.64,2.22c-0.32,0.32-0.67,0.64-1.03,0.94C131.42,153.78,129.65,154.28,128.02,154.37z"/>
				<path class="st18" d="M147.49,112.82c2.17-0.74,3.95-0.34,4.49,2.95c0.54,3.3,0.35,10.53-12.24,23.52
					c-12.59,12.99-24.04,13.82-26.65,12.64c-2.62-1.18-1.33-4.08-1.33-4.08s1.63,2.71,6.07,1.87c4.39-0.79,10.36-2.8,17.57-9.64
					c7.21-6.89,10.51-10.48,12.24-15.69c1.78-5.26,2.62-7.92,1.73-9.74C148.77,113.6,147.49,112.82,147.49,112.82z"/>
				<path class="st18" d="M134.75,153.21c5.43-4.23,9.77-9,12.68-15.79c2.96-6.79,2.12-10.97,2.12-10.97s1.73-2.61,2.22-7.28
					c0.49-4.72-1.33-6.59-1.33-6.59s4.84,0.84,7.06,3.64s2.57,6.44-1.93,14.56c-4.49,8.12-13.43,17.56-15.6,19.19
					C137.91,151.54,134.75,153.21,134.75,153.21z"/>
				<path class="st18" d="M123.25,158.82c-4.64-0.05-5.18-5.26-3.21-6.64c0,0-3.31,0.49-5.13,0.15c-1.83-0.39-3.21-0.64-3.21-0.64
					s-0.4,4.18,3.21,6.3C119.4,160.59,123.25,158.82,123.25,158.82z"/>
				<path class="st6" d="M123.1,147.26c5.63-3.05,16.54-12.2,9.67-23.37c-5.08-8.32-21.82-26.42-39.39-44.87
					C77.04,61.85,67.42,44.58,66.03,41.04c-1.93-4.97-2.02-8.76-0.64-11.41l81.89,83.29c0,0,6.32,1.92-1.97,14.96
					C135.74,143.07,123.1,147.26,123.1,147.26z"/>
				<path class="st18" d="M137.41,138.15c2.22-3.49,9.58-12.35,7.6-20.27c-1.09-4.38-7.16-4.92-13.62-11.46
					c-7.95-8.07-21.47-22.93-27.94-30.06c-11.3-12.35-12.24-20.71-12.24-20.71c4.69,4.58,56.12,57.27,56.12,57.27
					s3.26,1.97,1.58,7.28C146.15,129.15,137.41,138.15,137.41,138.15z"/>
				<path class="st6" d="M122.11,147.8c-2.17,0.64-4-1.18-6.57-3.79c-2.81-2.85-12.93-13.09-23-23.32
					c-13.97-14.17-22.61-15.35-22.61-15.35l41.76,42.51c0,0,1.97,2.07,4.44,1.92C118.66,149.62,122.11,147.8,122.11,147.8z"/>
				<path class="st6" d="M16.39,42.17c0.05-0.05,10.37,4.62,20.53-5.36C47.09,26.82,43.09,16,43.09,16S22.21,8.02,13.08,5.22
					S4.39,3.74,4.89,8.07C5.38,12.4,16.39,42.17,16.39,42.17z"/>
				<path class="st18" d="M32.67,40.2c4.24-3.39,6.42-7.77,5.33-13.97c-1.08-6.25-12.04-14.86-23.88-19.98
					c0,0,15.55,4.58,21.37,6.45c5.78,1.87,7.6,3.3,7.6,3.3s3.11,5.51-0.39,12.84C39.19,36.21,32.67,40.2,32.67,40.2z"/>
				<path class="st6" d="M60.17,25.93c-7.4-6.2-17.13-9.94-17.13-9.94c1.43,3.79,1.18,7.38,1.18,7.38s9.58,2.71,10.56,11.32
					c1.33,11.81-9.33,20.12-9.33,20.12s6.32-3.05,12.39-13.92C62.79,32.18,60.17,25.93,60.17,25.93z"/>
				<path class="st6" d="M30.4,42.02c2.67-1.08,6.76-3.2,11.35-8.36c4.59-5.22,5.97-9.74,5.97-9.74l-3.5-1.62
					c0,0-0.2,6.35-4.24,11.46C36.18,38.53,30.4,42.02,30.4,42.02z"/>
				<path class="st6" d="M55.63,90.63c0.1-0.93,0.44-2.71-0.94-5.71c-0.89-1.87-3.46-5.17-4.25-6.05
					c-5.38-5.81-11.45-11.86-12.64-13.33c-1.88-2.26-1.28-4.87,0.89-6.35c1.83-1.18,3.5-2.16,3.5-2.16s-7.4,2.66-11.85,0.69
					c-2.81-1.23-4.79-2.8-5.97-5.66c-0.44-1.03-0.94-3-0.74-4.53c0.25-2.12,1.43-3.79,2.96-4.28c0,0-3.9,0.44-6.12-0.1
					c-2.27-0.54-4.05-1.08-4.05-1.08s3.65,7.38,7.85,14.56C29.66,66.03,55.63,90.63,55.63,90.63z"/>
				<path class="st6" d="M80.16,93.88l32.92,33.8c2.96,3,5.04,4.67,7.4,5.56c2.37,0.88,4.44,0.39,4.44,0.39l-4.29-4.33L89.78,97.62
					C85.93,93.63,80.16,93.88,80.16,93.88z"/>
				<path class="st5" d="M20.38,35.28c1.38,1.82,3.55,3,5.28,1.82c1.92-1.28,1.43-4.08,0.15-5.95c-2.02-2.9-5.48-7.53-8.19-11.02
					c-0.89-1.13-1.73-2.16-2.52-3.15c-1.09-1.33-3.16-0.1-2.57,1.48C14.86,24.45,18.06,32.18,20.38,35.28z"/>
				<path class="st5" d="M11.7,14.37c0.84-0.49,0.54-1.57-0.2-2.95c-0.69-1.23-1.63-1.38-2.02-1.08c-0.64,0.44-0.49,1.48,0.05,2.46
					C10.07,13.73,10.96,14.81,11.7,14.37z"/>
				<path class="st11" d="M113.72,215.1c-2.32-5.85-1.97-6.74-1.09-7.72c0.89-0.98,2.17-0.05,3.46,3.1c1.28,3.2,2.07,5.26,2.07,5.26
					l-0.25,6c-0.05,0.84-1.19,1.03-1.48,0.25L113.72,215.1z"/>
				<path class="st18" d="M45.81,81.33l5.23-1.53c0,0,2.91,2.46,4.05,6.2s1.14,5.66,1.14,5.66L45.81,81.33z"/>
				<path class="st19" d="M152.52,145.19c0,0-2.22-1.38-3.85-4.08"/>
				<path class="st20" d="M118.26,216.04l-13.97-34.93"/>
				<path class="st21" d="M116.63,222.48c0.25,0.64,1.23,0.49,1.23-0.2l3.55-62.93"/>
				<path class="st21" d="M138.21,88.12L112.44,77.2"/>
				<path class="st22" d="M197.83,113.01l-48.96-20.37"/>
				<path class="st20" d="M215.75,120.49l-17.92-7.48"/>
				<path class="st23" d="M24.83,24.06c-7.5,7.33-14.12,3-14.12,3"/>
				<path class="st24" d="M28.08,10.04c0,0,4.24,6.69-3.26,14.02"/>
				<path class="st24" d="M43.09,16.04c0,0,4.99,9.89-5.92,20.57c-2.07,2.02-4.05,3.44-5.97,4.48"/>
				<path class="st23" d="M77.64,57.17c-2.02,3.79-4.94,7.72-8.74,11.51c-5.18,5.07-10.37,8.36-15.45,10.33"/>
				<path class="st24" d="M53.46,79.07c-1.14,0.44-2.27,0.84-3.41,1.13"/>
				<path class="st24" d="M80.41,50.78c-0.64,2.02-1.58,4.18-2.76,6.4"/>
				<path class="st24" d="M91.31,66.08c0,0-0.69,1.87,1.38,5.17c2.02,3.3,8.14,9.79,17.47,18.74s13.57,12.84,19.15,10.38"/>
				<path class="st23" d="M66.54,91.71c0,0,1.88-0.64,5.18,1.43c3.26,2.12,8.98,7.68,17.77,17.07c3.75,3.99,6.57,7.08,8.44,9.69"/>
				<path class="st24" d="M97.88,120c2.52,3.59,3.16,6.4,1.68,9.54"/>
				<path class="st23" d="M86.62,87.18l35.98,36.46"/>
				<path class="st23" d="M50.64,50.73l27,27.35"/>
				<path class="st23" d="M76.7,106.42c0,0,7.55-1.57,17.57-11.41c2.32-2.31,4.25-4.43,5.78-6.4"/>
				<path class="st24" d="M100.1,88.56c5.38-6.84,6.42-11.32,6.42-11.32"/>
				<path class="st23" d="M45.51,54.81c3.8-2.46,9.03-7.04,12.88-15.01"/>
				<path class="st23" d="M30.9,54.66c0,0,7.35-1.23,15.01-8.76c3.85-3.74,5.87-7.63,6.96-10.53"/>
				<path class="st23" d="M35.54,53.09c0,0,0.74-2.85-1.63-5.46"/>
				<path class="st23" d="M108.74,130.48c3.11-1.62,7.3-4.33,11.9-8.81c1.68-1.62,3.16-3.25,4.44-4.72
					c1.09-1.28,2.02-2.46,2.86-3.54"/>
				<path class="st24" d="M103.06,132.69c0,0,2.17-0.39,5.68-2.21"/>
				<path class="st24" d="M127.94,113.41c3.9-5.21,5.13-8.61,5.13-8.61"/>
				<path class="st20" d="M83.61,129.45l-6.91-17.22"/>
				<path class="st21" d="M142.4,171.12l7.4-0.05c4.24,0.05,8.98-2.16,14.17-6.84c4.94-4.43,6.76-9.49,6.62-13.63
					c-0.05-1.43,0.2-7.28,0.2-7.28"/>
				<path class="st19" d="M138.95,170.43c-0.2-0.2-0.35-0.44-0.44-0.69c-0.1-0.29-0.15-0.64-0.15-0.98c-0.05-2.9-1.33-6.3-4-9.25"/>
				<path class="st21" d="M134.35,159.56c-1.18-1.28-2.57-2.46-4.29-3.49"/>
				<path class="st19" d="M163.08,156.7c-0.99,1.13-2.37,2.66-3.5,3.79"/>
				<path class="st21" d="M156.07,129.94c1.63,5.95,8.34,9.1,12.59,9.3"/>
				<path class="st19" d="M168.66,139.19c0.59,0.1,1.09,0.29,1.48,0.64c2.02,2.07-0.2,8.36-5.13,14.51"/>
				<path class="st25" d="M159.63,160.49c-8.59,8.46-18.12,12.5-20.63,9.94"/>
				<path class="st25" d="M87.91,150.6l28.73,71.88"/>
				<path class="st20" d="M69.79,105.19l18.12,45.41"/>
				<path class="st21" d="M206.02,120.89l-47.14,1.82"/>
				<path class="st21" d="M105.92,70.7l51.09,21.21"/>
				<path class="st20" d="M157.01,91.91l65.2,27.06c0.64,0.25,0.49,1.23-0.25,1.23l-15.99,0.64"/>
				<path class="st21" d="M131.79,155.13c-4.29,2.36-8,3.64-10.61,4.33c-1.97,0.49-4.24,0.15-6.52-1.77
					c-1.93-1.67-4.43-5.43-3.03-9.61"/>
				<path class="st24" d="M147.44,112.77c3.95-1.23,8.24,1.13,9.92,3c1.78,2.07,2.22,4.72,1.68,6.54
					c-1.23,4.33-4.2,11.76-11.15,19.73"/>
				<path class="st22" d="M147.83,142.04c-0.99,1.13-2.07,2.26-3.26,3.4c-4.49,4.38-8.88,7.48-12.83,9.64"/>
				<path class="st24" d="M33.12,68.04l4.89,4.97l74.29,75.32c1.43,1.43,3.5,2.02,5.48,1.48c4.2-1.08,11.75-4.03,19.6-11.66
					c7.8-7.63,10.86-15.15,12.04-19.34c0.54-1.97,0-4.04-1.38-5.46L68.82,33.06c-7.4-7.53-19.4-15.01-33.37-20.37
					C25.37,8.81,13.38,5.27,7.4,3.59C5.72,3.1,4.14,4.62,4.59,6.35c0.84,3.15,2.17,8.02,3.8,13.33"/>
				<path class="st25" d="M8.39,19.68c1.43,4.77,3.11,9.99,4.89,14.76c5.13,13.97,12.59,26.22,19.89,33.6"/>
				<path class="st21" d="M121.23,151.49c-5.63,1.72-9.43,0.79-9.87-1.18"/>
				<path class="st24" d="M150,112.42c3.01,0.69,3.4,9.2-4.25,19.88"/>
				<path class="st22" d="M145.76,132.3c-1.78,2.46-3.95,5.02-6.61,7.68c-6.66,6.54-12.98,10.04-17.92,11.51"/>
				<path class="st19" d="M169.15,147.99c0.64-1.33-0.05-3.99-3.36-3.49c-2.91,0.44-4.29,0.59-6.71-0.74"/>
				<path class="st19" d="M165.01,154.39c0,0,1.83-3.3-1.63-4.03c-1.33-0.29-4.15,0.84-7.5-2.12"/>
				<path class="st22" d="M96.69,161.57l-9.28-23.42"/>
				<path class="st25" d="M31.19,41.03c-8.29,4.48-14.76,1.08-14.76,1.08"/>
				<path class="st25" d="M165.01,154.39c-0.49,0.59-1.38,1.72-1.88,2.31"/>
				<g class="st26">
					
						<linearGradient id="SVGID_00000004513587681389723040000010528724893314755458_" gradientUnits="userSpaceOnUse" x1="100.739" y1="394.3465" x2="100.5491" y2="393.6364" gradientTransform="matrix(1 0 0 1 0 -386)">
						<stop  offset="0" style="stop-color:#F4B5A8"/>
						<stop  offset="1" style="stop-color:#FBE5AD"/>
					</linearGradient>
					
						<path style="opacity:0.48;fill:url(#SVGID_00000004513587681389723040000010528724893314755458_);enable-background:new    ;" d="
						M97.41,8.86c-0.05-0.2,0.06-0.4,0.26-0.45l5.76-1.54c0.2-0.05,0.4,0.06,0.45,0.26c0.05,0.2-0.06,0.4-0.26,0.45l-5.76,1.54
						C97.67,9.17,97.47,9.05,97.41,8.86z"/>
					
						<linearGradient id="SVGID_00000116235601713039867040000014350083424660224154_" gradientUnits="userSpaceOnUse" x1="101.6882" y1="397.6006" x2="99.8018" y2="390.5594" gradientTransform="matrix(1 0 0 1 0 -386)">
						<stop  offset="0" style="stop-color:#F4B5A8"/>
						<stop  offset="1" style="stop-color:#FBE5AD"/>
					</linearGradient>
					
						<path style="opacity:0.48;fill:url(#SVGID_00000116235601713039867040000014350083424660224154_);enable-background:new    ;" d="
						M101.24,11.34l-1.7-6.33c-0.05-0.2,0.06-0.4,0.26-0.45c0.2-0.05,0.4,0.06,0.45,0.26l1.7,6.33c0.05,0.2-0.06,0.4-0.26,0.45
						C101.49,11.66,101.29,11.54,101.24,11.34z"/>
				</g>
				<g class="st26">
					
						<linearGradient id="SVGID_00000147206494218800892450000017437358229729505420_" gradientUnits="userSpaceOnUse" x1="40.8428" y1="506.296" x2="40.3766" y2="505.7256" gradientTransform="matrix(1 0 0 1 0 -386)">
						<stop  offset="0" style="stop-color:#F4B5A8"/>
						<stop  offset="1" style="stop-color:#FBE5AD"/>
					</linearGradient>
					
						<path style="opacity:0.48;fill:url(#SVGID_00000147206494218800892450000017437358229729505420_);enable-background:new    ;" d="
						M38.01,122.13c-0.13-0.16-0.11-0.39,0.05-0.52l4.62-3.78c0.16-0.13,0.39-0.1,0.52,0.05c0.13,0.16,0.1,0.39-0.05,0.52
						l-4.62,3.78C38.37,122.31,38.14,122.29,38.01,122.13z"/>
					
						<linearGradient id="SVGID_00000140697269322137746870000007350576627528299443_" gradientUnits="userSpaceOnUse" x1="43.0498" y1="508.8802" x2="38.4302" y2="503.2299" gradientTransform="matrix(1 0 0 1 0 -386)">
						<stop  offset="0" style="stop-color:#F4B5A8"/>
						<stop  offset="1" style="stop-color:#FBE5AD"/>
					</linearGradient>
					
						<path style="opacity:0.48;fill:url(#SVGID_00000140697269322137746870000007350576627528299443_);enable-background:new    ;" d="
						M42.53,122.83l-4.15-5.08c-0.13-0.16-0.11-0.39,0.05-0.52s0.39-0.11,0.52,0.05l4.15,5.08c0.13,0.16,0.11,0.39-0.05,0.52
						C42.89,123.01,42.65,122.98,42.53,122.83z"/>
				</g>
				<g class="st31">
					<g class="st31">
						<g class="st31">
							
								<linearGradient id="SVGID_00000056385116534056935330000002039965101786471340_" gradientUnits="userSpaceOnUse" x1="78.1715" y1="575.8916" x2="81.3522" y2="574.0553" gradientTransform="matrix(1 0 0 1 0 -386)">
								<stop  offset="0" style="stop-color:#F4B5A8"/>
								<stop  offset="1" style="stop-color:#FBE5AD"/>
							</linearGradient>
							
								<path style="opacity:0.64;fill:url(#SVGID_00000056385116534056935330000002039965101786471340_);enable-background:new    ;" d="
								M79.76,192.23c-0.23,0-0.41-0.18-0.41-0.41v-5.69c0-0.23,0.18-0.41,0.41-0.41s0.41,0.18,0.41,0.41v5.69
								C80.18,192.04,79.99,192.23,79.76,192.23z"/>
							
								<linearGradient id="SVGID_00000027587342040373689110000016738054212761344702_" gradientUnits="userSpaceOnUse" x1="77.2651" y1="576.4081" x2="82.2455" y2="573.5328" gradientTransform="matrix(1 0 0 1 0 -386)">
								<stop  offset="0" style="stop-color:#F4B5A8"/>
								<stop  offset="1" style="stop-color:#FBE5AD"/>
							</linearGradient>
							
								<path style="opacity:0.64;fill:url(#SVGID_00000027587342040373689110000016738054212761344702_);enable-background:new    ;" d="
								M82.6,189.38h-5.69c-0.23,0-0.41-0.18-0.41-0.41c0-0.23,0.18-0.41,0.41-0.41h5.69c0.23,0,0.41,0.18,0.41,0.41
								C83.02,189.2,82.83,189.38,82.6,189.38z"/>
						</g>
					</g>
				</g>
				<g class="st31">
					<g class="st31">
						<g class="st31">
							
								<linearGradient id="SVGID_00000018955648519785064060000013160862792778979517_" gradientUnits="userSpaceOnUse" x1="232.1715" y1="543.8917" x2="235.3522" y2="542.0553" gradientTransform="matrix(1 0 0 1 0 -386)">
								<stop  offset="0" style="stop-color:#F4B5A8"/>
								<stop  offset="1" style="stop-color:#FBE5AD"/>
							</linearGradient>
							
								<path style="opacity:0.64;fill:url(#SVGID_00000018955648519785064060000013160862792778979517_);enable-background:new    ;" d="
								M233.76,160.23c-0.23,0-0.41-0.18-0.41-0.41v-5.69c0-0.23,0.18-0.41,0.41-0.41s0.41,0.18,0.41,0.41v5.69
								C234.18,160.04,233.99,160.23,233.76,160.23z"/>
							
								<linearGradient id="SVGID_00000065778679943538759850000001297753579548850360_" gradientUnits="userSpaceOnUse" x1="231.2674" y1="544.4106" x2="236.2478" y2="541.5353" gradientTransform="matrix(1 0 0 1 0 -386)">
								<stop  offset="0" style="stop-color:#F4B5A8"/>
								<stop  offset="1" style="stop-color:#FBE5AD"/>
							</linearGradient>
							
								<path style="opacity:0.64;fill:url(#SVGID_00000065778679943538759850000001297753579548850360_);enable-background:new    ;" d="
								M236.61,157.38h-5.69c-0.23,0-0.41-0.18-0.41-0.41c0-0.23,0.18-0.41,0.41-0.41h5.69c0.23,0,0.41,0.18,0.41,0.41
								C237.02,157.2,236.83,157.38,236.61,157.38z"/>
						</g>
					</g>
				</g>
				
					<linearGradient id="SVGID_00000181048261507872698340000006111591131497460876_" gradientUnits="userSpaceOnUse" x1="-58.75" y1="520.71" x2="-58.75" y2="522.21" gradientTransform="matrix(1 0 0 1 0 -386)">
					<stop  offset="0" style="stop-color:#FEE5A5"/>
					<stop  offset="1" style="stop-color:#FEA5A5"/>
				</linearGradient>
				<path style="fill:url(#SVGID_00000181048261507872698340000006111591131497460876_);" d="M-58.75,136.21
					c0.41,0,0.75-0.34,0.75-0.75s-0.34-0.75-0.75-0.75s-0.75,0.34-0.75,0.75S-59.16,136.21-58.75,136.21z"/>
				
					<linearGradient id="SVGID_00000059304900832300873580000009880981884495577009_" gradientUnits="userSpaceOnUse" x1="215" y1="417.71" x2="215" y2="418.71" gradientTransform="matrix(1 0 0 1 0 -386)">
					<stop  offset="0" style="stop-color:#FEE5A5"/>
					<stop  offset="1" style="stop-color:#FEA5A5"/>
				</linearGradient>
				<path style="fill:url(#SVGID_00000059304900832300873580000009880981884495577009_);" d="M215,32.71c0.28,0,0.5-0.22,0.5-0.5
					c0-0.28-0.22-0.5-0.5-0.5s-0.5,0.22-0.5,0.5C214.5,32.49,214.72,32.71,215,32.71z"/>
				
					<linearGradient id="SVGID_00000165221900828130944600000015602727218527517369_" gradientUnits="userSpaceOnUse" x1="206.3609" y1="528.9603" x2="191.6391" y2="537.4597" gradientTransform="matrix(1 0 0 1 0 -386)">
					<stop  offset="0" style="stop-color:#6570DB"/>
					<stop  offset="1" style="stop-color:#F4B5A8"/>
				</linearGradient>
				
					<path style="opacity:0.68;fill:url(#SVGID_00000165221900828130944600000015602727218527517369_);enable-background:new    ;" d="
					M199,138.71c4.69,0,8.5,3.81,8.5,8.5s-3.81,8.5-8.5,8.5s-8.5-3.81-8.5-8.5S194.31,138.71,199,138.71z M199,154.9
					c4.24,0,7.68-3.45,7.68-7.68c0-4.24-3.45-7.68-7.68-7.68c-4.24,0-7.68,3.45-7.68,7.68S194.76,154.9,199,154.9z"/>
				
					<linearGradient id="SVGID_00000013182258641390890950000010495605593513785517_" gradientUnits="userSpaceOnUse" x1="354.5162" y1="820.7904" x2="236.6832" y2="469.5441" gradientTransform="matrix(1 0 0 1 0 -386)">
					<stop  offset="0.3585" style="stop-color:#F8C297"/>
					<stop  offset="0.9015" style="stop-color:#F06490"/>
					<stop  offset="1" style="stop-color:#FF47A3"/>
				</linearGradient>
				<path style="fill-rule:evenodd;clip-rule:evenodd;fill:url(#SVGID_00000013182258641390890950000010495605593513785517_);" d="
					M434.08,337.24c-1.75-0.49-3.77-1.06-7.18-3.52c-2.42-1.73-3.58-4.54-4.81-7.53c-1.54-3.74-3.2-7.77-7.58-10.29
					c-8.43-4.91-14.79-3.65-22.18-2.19c-4.48,0.89-9.34,1.85-15.28,1.55c-8.57-0.41-16.59-8.57-23.34-15.45
					c-0.85-0.86-1.68-1.71-2.48-2.51c-0.64-0.64-1.41,0.01-0.89,0.75c1.45,2.11,2.93,4.49,4.46,6.96
					c4.92,7.93,10.37,16.72,17.17,19.91c5.66,2.64,6.92,12.66,1.53,15.03c-12.15,5.32-20.37-12.55-26.06-24.93
					c-1.49-3.24-2.8-6.1-3.97-8.07c-7.66-12.85-15.78-19.52-25.05-24.49c-6.92-3.72-7.11-12.87-2.04-16.73
					c2.58-1.99,6.69-1.75,10.72,0.78c1.03,0.64,4.11-1.22,3.68-2.35c-0.56-1.5-1.14-2.98-1.79-4.43
					c-3.5-7.77-11.46-24.38-30.85-33.65c-13.31-6.38-21.43-9-30.68-11.97c-2.44-0.79-4.96-1.6-7.67-2.51
					c-17.11-5.76-19.05-9.86-19.64-11.15c-0.58-1.29-1.54-7.66,9.01-4.7c0.53,0.16,0.93-0.64,0.46-0.94
					c-17.45-11.41-33.94-17.77-51.67-22.95c-13.02-3.81-23.59-10.87-28.89-20.97l-21.98,17.96c9.28,6.53,20.21,24.37,22.84,37.7
					c0.44,2.23,0.87,4.7,1.33,7.38c2.27,13.24,5.43,31.65,16.32,52.55c2.86,5.47,6.94,10,9.98,12.93c0.8,0.77,1.77-0.08,1.18-1.02
					c-4.11-6.58-8.08-14.11-7.66-23.02c0.58-11.13,5.19-11.47,7.66-11.34c2.47,0.14,5.38,3.18,5.55,10.97
					c0.01,0.52,0.02,1.09,0.03,1.71c0.13,8.63,0.4,26.41,9.86,43.44c9.07,16.33,21.37,19.94,29.01,22.18
					c0.9,0.26,1.73,0.51,2.49,0.75c7.2,2.32,10.02,5.97,11.46,14.63c0.26,1.57,0.43,3.05,0.6,4.49c0.64,5.49,1.2,10.28,6.08,16.04
					c1.28,1.5,2.55,2.91,3.79,4.28c6.44,7.11,11.86,13.11,11.15,25.65c2.1,23.75,10.7,35.02,20.73,41.84
					c22.07,12.39,58.96,28.5,98.5,12s49-44.02,49-81.61c-0.68-6.81-5.75-19.4-9.46-21.73C436.29,337.86,435.25,337.57,434.08,337.24
					z M238.96,217.02c-4.91-7.09-13.17-9.38-15.63-5.07c-2.47,4.3,1.81,10.91,9.59,15.44c2.2,1.29,4.47,2.27,6.75,3.06
					c0,0.05,0,0.05,0.05,0.05c1.68,0.71,3.14,1.02,4.4,1.29c2.48,0.53,4.23,0.9,5.57,3.82c0.33,0.71,0.64,1.42,0.96,2.13
					c1.61,3.63,3.13,7.09,6.21,8.83c3.82,2.08,6.76-0.63,6.2-4.2c-0.31-1.93-1.03-3.38-1.76-4.41c-0.33-0.46,0.23-1.46,0.77-1.29
					c1.38,0.45,3.07,1.1,4.59,1.97c4.94,2.85,9.84,8.28,12.12,10.83c2.76,3.08,5.91-0.02,3.3-2.95
					c-8.5-12.45-19.12-15.77-25.44-17.59C250.32,227.1,243.86,224.16,238.96,217.02z M263.83,330.79
					c3.06,11.13,17.72,13.82,21.33,5.34c4.2-9.92-4.32-22.87-9-29.49c-4.73-6.73-11.16-2.85-8.55,3.76
					c1.05,2.64,4.16,7.42,6.27,10.53c0.57,0.84-0.23,1.75-1.08,1.19c-2.56-1.68-6.27-4.61-9.48-9.13c-4-5.62-5.85-9.59-8.35-14.95
					c-0.99-2.11-2.08-4.44-3.44-7.18c-4.81-9.66-11.17-16.18-15.63-13.2c-4.46,2.93-3.98,17.7,6.45,26.42
					c1.35,1.13,2.66,2.19,3.95,3.22C254.07,313.56,260.52,318.77,263.83,330.79z M332.19,383.92c1.63,4.23,7.77,15.39,15.1,9.13
					c5.54-4.72-0.97-14.46-6.38-22.55c-1.38-2.05-2.68-4.01-3.7-5.74c-2.86-4.87-3.49-9.92-4.09-14.81
					c-0.46-3.7-0.91-7.32-2.31-10.7c-3.25-7.86-11.25-13.71-15.85-9.32c-5.02,4.82-2.68,10.76,2.5,14.84
					c2.62,2.09,4.08,4.72,4.87,6.8c0.36,0.95-0.92,1.63-1.76,1.06c-0.29-0.2-0.61-0.39-0.94-0.57c-2.3-1.24-10.21-3.55-14.79,0.58
					c-7.98,7.08-2.82,15.9,1.48,18.62c6.58,4.17,7.24,9.19,8.03,15.14c0.07,0.54,0.14,1.09,0.22,1.64c0.81,5.45,5.59,7.49,7.5,2.29
					c1.91-5.2,1.03-9.29-0.8-17.22c-0.58-2.48-1.19-4.51-1.78-6.15c-0.39-1.09,1.29-2.4,2.07-1.55c0.5,0.53,1.02,1.11,1.56,1.75
					C327.59,372.4,329.24,376.28,332.19,383.92z"/>
			</g>
		</g>
	</g>
	<g>
		
			<linearGradient id="SVGID_00000127017925706495872880000000148673968674074035_" gradientUnits="userSpaceOnUse" x1="57.38" y1="400.1037" x2="84.549" y2="400.1037" gradientTransform="matrix(1 0 0 -1 0 471)">
			<stop  offset="0" style="stop-color:#3F56BA"/>
			<stop  offset="1" style="stop-color:#3F56BA"/>
		</linearGradient>
		<path style="fill:url(#SVGID_00000127017925706495872880000000148673968674074035_);" d="M79.85,80.35
			c-6.24,6-15.27,5.37-22.14-1.78c-0.11-0.12-0.23-0.24-0.33-0.36l4.11-2.25c4.82,4.59,11.53,6.17,16.14,1.73
			c4.55-4.37,3.46-10.87-0.96-16.09l2.19-4.24C86.68,65.49,85.88,74.56,79.85,80.35z"/>
		
			<linearGradient id="SVGID_00000035530827348429277700000017716918373098378372_" gradientUnits="userSpaceOnUse" x1="50.6226" y1="407.6821" x2="77.33" y2="407.6821" gradientTransform="matrix(1 0 0 -1 0 471)">
			<stop  offset="0" style="stop-color:#FEA5A5"/>
			<stop  offset="0.1413" style="stop-color:#FEA5A5"/>
			<stop  offset="1" style="stop-color:#FEA5A5"/>
		</linearGradient>
		<path style="fill:url(#SVGID_00000035530827348429277700000017716918373098378372_);" d="M77.33,55.83l-2.19,4.24
			c-0.28-0.34-0.59-0.67-0.9-1c-4.51-4.69-11.68-7.24-16.76-2.36c-5.05,4.85-3.1,11.94,1.89,17.13c0.19,0.2,0.39,0.4,0.59,0.59
			l-4.11,2.25h-0.01c-6.87-7.44-6.83-16.63-0.62-22.59C61.67,47.89,70.59,48.82,77.33,55.83z"/>
	</g>
	<line class="st42" x1="60.04" y1="75.49" x2="60.03" y2="75.5"/>
</g>
</svg>
