<svg width="21" height="21" viewBox="0 0 21 21" fill="none" xmlns="http://www.w3.org/2000/svg">
<path d="M15.412 10.9002C15.4072 10.8582 15.3869 10.8194 15.3552 10.7913C15.3235 10.7633 15.2825 10.7479 15.2402 10.7482H12.1177L14.3261 8.53889C14.3561 8.50889 14.374 8.46882 14.3762 8.42643C14.3785 8.38403 14.3649 8.3423 14.3382 8.30929C14.2251 8.16792 14.1043 8.03289 13.9763 7.90484C13.8483 7.77732 13.7137 7.65653 13.5732 7.54296C13.5398 7.51635 13.4977 7.50303 13.455 7.50556C13.4123 7.50808 13.3721 7.52628 13.342 7.55664L11.1336 9.76442V6.6413C11.1339 6.59879 11.1186 6.55764 11.0906 6.52568C11.0625 6.49372 11.0237 6.47318 10.9815 6.46796C10.622 6.42995 10.2596 6.42995 9.90012 6.46796C9.85792 6.47318 9.8191 6.49372 9.79106 6.52568C9.76302 6.55764 9.7477 6.59879 9.74803 6.6413V9.7629L7.53961 7.55512C7.50954 7.52475 7.4693 7.50656 7.42663 7.50404C7.38397 7.50151 7.34187 7.51483 7.30842 7.54144C7.1679 7.65501 7.03336 7.7758 6.90537 7.90332C6.77735 8.03137 6.6565 8.1664 6.54338 8.30777C6.51668 8.34078 6.50315 8.38251 6.5054 8.42491C6.50764 8.4673 6.52552 8.50736 6.55556 8.53737L8.76398 10.7467H5.64147C5.59912 10.7464 5.55815 10.7618 5.52643 10.7898C5.49472 10.8179 5.47448 10.8567 5.4696 10.8987C5.43005 11.2585 5.43005 11.6215 5.4696 11.9813C5.47448 12.0234 5.49472 12.0622 5.52643 12.0902C5.55815 12.1183 5.59912 12.1337 5.64147 12.1334H8.76398L6.55556 14.3411C6.52571 14.3716 6.50799 14.4118 6.50575 14.4544C6.50351 14.497 6.51689 14.5389 6.54338 14.5723C6.6565 14.7136 6.77735 14.8487 6.90537 14.9767C7.03354 15.1046 7.1686 15.2254 7.30994 15.3386C7.34315 15.3651 7.385 15.3784 7.42741 15.3758C7.46983 15.3733 7.50979 15.3552 7.53961 15.3249L9.74803 13.1171V16.2387C9.74808 16.281 9.76356 16.3218 9.79156 16.3534C9.81957 16.385 9.85818 16.4054 9.90012 16.4106C10.0794 16.43 10.2597 16.4397 10.4401 16.4394C10.6214 16.4397 10.8027 16.43 10.983 16.4106C11.025 16.4054 11.0636 16.385 11.0916 16.3534C11.1196 16.3218 11.1351 16.281 11.1351 16.2387V13.1202L13.3435 15.328C13.3736 15.3584 13.414 15.3765 13.4568 15.3788C13.4995 15.381 13.5416 15.3673 13.5747 15.3401C13.8555 15.1156 14.1106 14.8606 14.3352 14.5799C14.3617 14.5465 14.3751 14.5046 14.3728 14.462C14.3706 14.4195 14.3529 14.3792 14.323 14.3488L12.1146 12.141H15.2371C15.2795 12.1413 15.3204 12.1259 15.3522 12.0978C15.3839 12.0698 15.4041 12.031 15.409 11.9889C15.4492 11.6272 15.4502 11.2622 15.412 10.9002Z" fill="#EFBFBF"/>
</svg>
