<svg width="2800" height="1958" viewBox="0 0 2800 1958" fill="none" xmlns="http://www.w3.org/2000/svg">
<g clip-path="url(#clip0_104_537)">
<g filter="url(#filter0_f_104_537)">
<path d="M954.246 1269.6C873.2 1293.99 893.311 1414.96 802.915 1416.79C598.151 1420.94 393.341 1228.38 210.467 1284.64C82.8682 1323.9 261.594 1481.16 267.638 1581.48C272.821 1667.52 165.304 1763.53 243.557 1833.96C333.608 1915 510.214 1930.81 650.984 1926.48C773.108 1922.72 840.644 1796.68 963.008 1811.81C1052.22 1822.84 1019.82 1938.82 1090.66 1980.85C1172.94 2029.67 1343.96 2126.6 1384.47 2061.89C1443.14 1968.15 1122.29 1831.79 1227.6 1762.08C1371.37 1666.91 1734.9 1882.62 1836.07 1762.95C1920.89 1662.64 1508.35 1674.29 1364.38 1600.31C1316.75 1575.83 1319.81 1526.24 1300.54 1487.76C1267.99 1422.77 1285.24 1340.76 1210.96 1293.97C1144.11 1251.85 1031.66 1246.29 954.246 1269.6Z" fill="url(#paint0_linear_104_537)" fill-opacity="0.2"/>
</g>
<g filter="url(#filter1_f_104_537)">
<path d="M1846.96 205.165C1792.72 254.961 1851.52 306.027 1781.97 348.895C1624.41 446.001 1396.62 444.92 1274.67 557.889C1189.59 636.712 1384.52 632.275 1425.03 679.559C1459.76 720.112 1410.53 817.952 1496.45 816.794C1595.31 815.462 1738.12 741.388 1845.9 673.889C1939.4 615.33 1946.87 521.055 2047.3 471.818C2120.52 435.921 2136.76 508.862 2206.78 496.969C2288.11 483.156 2455.53 452.174 2463.89 401.064C2476 327.031 2178.14 407.865 2235.04 324.186C2312.74 209.936 2672.06 148.912 2707.92 42.2083C2737.99 -47.244 2331.23 216.479 2193 246.362C2147.27 256.249 2131.95 230.065 2103.25 219.797C2054.78 202.456 2129.42 87.0716 2055.03 98.1828C1988.08 108.183 1898.76 157.6 1846.96 205.165Z" fill="url(#paint1_linear_104_537)" fill-opacity="0.13"/>
</g>
</g>
<defs>
<filter id="filter0_f_104_537" x="-35.3574" y="1055.96" width="2082.8" height="1227.5" filterUnits="userSpaceOnUse" color-interpolation-filters="sRGB">
<feFlood flood-opacity="0" result="BackgroundImageFix"/>
<feBlend mode="normal" in="SourceGraphic" in2="BackgroundImageFix" result="shape"/>
<feGaussianBlur stdDeviation="100" result="effect1_foregroundBlur_104_537"/>
</filter>
<filter id="filter1_f_104_537" x="1033.4" y="-196.218" width="1896.1" height="1233.02" filterUnits="userSpaceOnUse" color-interpolation-filters="sRGB">
<feFlood flood-opacity="0" result="BackgroundImageFix"/>
<feBlend mode="normal" in="SourceGraphic" in2="BackgroundImageFix" result="shape"/>
<feGaussianBlur stdDeviation="110" result="effect1_foregroundBlur_104_537"/>
</filter>
<linearGradient id="paint0_linear_104_537" x1="256.831" y1="1718.36" x2="1276.88" y2="2169.43" gradientUnits="userSpaceOnUse">
<stop stop-color="#FF5610" stop-opacity="0.47"/>
<stop offset="0.149109" stop-color="#FB722C"/>
<stop offset="0.306297" stop-color="#FFEA54"/>
<stop offset="0.467975" stop-color="#00B471"/>
<stop offset="0.807292" stop-color="#1568AB"/>
<stop offset="1" stop-color="#A765DA"/>
</linearGradient>
<linearGradient id="paint1_linear_104_537" x1="1445.5" y1="904.663" x2="1626.57" y2="53.9226" gradientUnits="userSpaceOnUse">
<stop stop-color="#FF5610"/>
<stop offset="0.197917" stop-color="#FF7934"/>
<stop offset="0.403275" stop-color="#FFEA54"/>
<stop offset="0.514953" stop-color="#00B471"/>
<stop offset="0.705801" stop-color="#1568AB"/>
<stop offset="1" stop-color="#B68DD6"/>
</linearGradient>
<clipPath id="clip0_104_537">
<rect width="2800" height="1958" fill="white"/>
</clipPath>
</defs>
</svg>
