<svg width="1440" height="1202" viewBox="0 0 1440 1202" fill="none" xmlns="http://www.w3.org/2000/svg">
<path d="M46.5 649C47.3284 649 48 648.328 48 647.5C48 646.672 47.3284 646 46.5 646C45.6716 646 45 646.672 45 647.5C45 648.328 45.6716 649 46.5 649Z" fill="url(#paint0_linear)"/>
<path d="M1153 166C1153.55 166 1154 165.552 1154 165C1154 164.448 1153.55 164 1153 164C1152.45 164 1152 164.448 1152 165C1152 165.552 1152.45 166 1153 166Z" fill="url(#paint1_linear)"/>
<path d="M1013 788C1013.55 788 1014 787.552 1014 787C1014 786.448 1013.55 786 1013 786C1012.45 786 1012 786.448 1012 787C1012 787.552 1012.45 788 1013 788Z" fill="url(#paint2_linear)"/>
<path d="M557 852C557.552 852 558 851.552 558 851C558 850.448 557.552 850 557 850C556.448 850 556 850.448 556 851C556 851.552 556.448 852 557 852Z" fill="url(#paint3_linear)"/>
<path d="M76 92C76.5523 92 77 91.5523 77 91C77 90.4477 76.5523 90 76 90C75.4477 90 75 90.4477 75 91C75 91.5523 75.4477 92 76 92Z" fill="url(#paint4_linear)"/>
<path d="M557 120C557.552 120 558 119.552 558 119C558 118.448 557.552 118 557 118C556.448 118 556 118.448 556 119C556 119.552 556.448 120 557 120Z" fill="url(#paint5_linear)"/>
<path d="M77.65 525.3C78.009 525.3 78.3 525.009 78.3 524.65C78.3 524.291 78.009 524 77.65 524C77.291 524 77 524.291 77 524.65C77 525.009 77.291 525.3 77.65 525.3Z" fill="url(#paint6_linear)"/>
<path d="M1258.01 57.1765C1258.74 55.6779 1263.47 53.3335 1263.47 53.3335C1263.47 53.3335 1258.79 55.4619 1256.63 55.1379C1254.97 54.8865 1253.39 51.8066 1252.84 50.6782C1252.84 50.6782 1254.55 55.127 1254.18 56.3053C1253.78 57.5915 1251.01 59.5276 1249.14 60.4411C1249.14 60.4411 1252.21 59.2711 1253.45 59.0219C1254.76 58.7585 1255.26 58.5856 1256.36 59.6059C1257 60.2036 1259.33 63.9765 1259.33 63.9765C1258.46 62.184 1257.02 59.2006 1258.01 57.1765Z" fill="url(#paint7_linear)"/>
<path d="M441.106 782.009C442.895 781.337 453.096 784.417 453.096 784.417C453.11 784.421 442.168 781.039 441.283 779.33C441.181 779.134 440.942 778.423 441.392 776.538C442.489 771.926 444.039 765.613 444.19 765.106C444.19 765.106 440.389 776.463 439.967 777.412C439.695 778.026 439.158 778.805 438.134 779.003C436.221 779.373 422.374 775.236 422.414 775.329L436.302 779.88C437.955 780.458 438.42 781.243 438.426 782.133C438.441 784.31 435.49 795.415 435.49 795.415C435.894 793.956 437.76 786.691 439.86 782.929C440.223 782.282 440.844 782.108 441.106 782.009Z" fill="url(#paint8_linear)"/>
<defs>
<linearGradient id="paint0_linear" x1="46.5" y1="646" x2="46.5" y2="649" gradientUnits="userSpaceOnUse">
<stop stop-color="#FEE5A5"/>
<stop offset="1" stop-color="#FEA5A5"/>
</linearGradient>
<linearGradient id="paint1_linear" x1="1153" y1="164" x2="1153" y2="166" gradientUnits="userSpaceOnUse">
<stop stop-color="#FEE5A5"/>
<stop offset="1" stop-color="#FEA5A5"/>
</linearGradient>
<linearGradient id="paint2_linear" x1="1013" y1="786" x2="1013" y2="788" gradientUnits="userSpaceOnUse">
<stop stop-color="#FEE5A5"/>
<stop offset="1" stop-color="#FEA5A5"/>
</linearGradient>
<linearGradient id="paint3_linear" x1="557" y1="850" x2="557" y2="852" gradientUnits="userSpaceOnUse">
<stop stop-color="#FEE5A5"/>
<stop offset="1" stop-color="#FEA5A5"/>
</linearGradient>
<linearGradient id="paint4_linear" x1="76" y1="90" x2="76" y2="92" gradientUnits="userSpaceOnUse">
<stop stop-color="#FEE5A5"/>
<stop offset="1" stop-color="#FEA5A5"/>
</linearGradient>
<linearGradient id="paint5_linear" x1="557" y1="118" x2="557" y2="120" gradientUnits="userSpaceOnUse">
<stop stop-color="#FEE5A5"/>
<stop offset="1" stop-color="#FEA5A5"/>
</linearGradient>
<linearGradient id="paint6_linear" x1="77.65" y1="524" x2="77.65" y2="525.3" gradientUnits="userSpaceOnUse">
<stop stop-color="#FEE5A5"/>
<stop offset="1" stop-color="#FEA5A5"/>
</linearGradient>
<linearGradient id="paint7_linear" x1="1263.63" y1="53.6492" x2="1249.25" y2="60.6631" gradientUnits="userSpaceOnUse">
<stop stop-color="#FEE5A5"/>
<stop offset="1" stop-color="#FEA5A5"/>
</linearGradient>
<linearGradient id="paint8_linear" x1="453.159" y1="784.206" x2="422.477" y2="775.117" gradientUnits="userSpaceOnUse">
<stop stop-color="#FEE5A5"/>
<stop offset="1" stop-color="#FEA5A5"/>
</linearGradient>
</defs>
</svg>
