<svg width="1440" height="773" viewBox="0 0 1440 773" fill="none" xmlns="http://www.w3.org/2000/svg">
<path d="M292.442 219.549C291.028 218.448 288.49 208.776 288.49 208.776C288.487 208.763 291.145 219.175 290.212 220.721C290.105 220.899 289.653 221.438 287.925 222.003C283.696 223.387 277.886 225.241 277.406 225.37C277.406 225.37 288.356 222.842 289.322 222.715C289.947 222.631 290.834 222.679 291.494 223.401C292.728 224.75 296.207 237.857 296.262 237.78L293.094 224.437C292.746 222.831 293.146 222.074 293.855 221.633C295.589 220.554 305.922 217.47 305.922 217.47C304.556 217.862 297.829 219.931 293.79 220.095C293.094 220.122 292.649 219.711 292.442 219.549Z" fill="url(#paint0_linear)"/>
<path d="M58.5 184C59.3284 184 60 183.328 60 182.5C60 181.672 59.3284 181 58.5 181C57.6716 181 57 181.672 57 182.5C57 183.328 57.6716 184 58.5 184Z" fill="url(#paint1_linear)"/>
<path d="M219.75 88.5C220.164 88.5 220.5 88.1642 220.5 87.75C220.5 87.3358 220.164 87 219.75 87C219.336 87 219 87.3358 219 87.75C219 88.1642 219.336 88.5 219.75 88.5Z" fill="url(#paint2_linear)"/>
<path d="M1099 23C1099.55 23 1100 22.5523 1100 22C1100 21.4477 1099.55 21 1099 21C1098.45 21 1098 21.4477 1098 22C1098 22.5523 1098.45 23 1099 23Z" fill="url(#paint3_linear)"/>
<path d="M1387.75 152.5C1388.16 152.5 1388.5 152.164 1388.5 151.75C1388.5 151.336 1388.16 151 1387.75 151C1387.34 151 1387 151.336 1387 151.75C1387 152.164 1387.34 152.5 1387.75 152.5Z" fill="url(#paint4_linear)"/>
<defs>
<linearGradient id="paint0_linear" x1="288.29" y1="208.829" x2="296.062" y2="237.834" gradientUnits="userSpaceOnUse">
<stop stop-color="#FEE5A5"/>
<stop offset="1" stop-color="#FEA5A5"/>
</linearGradient>
<linearGradient id="paint1_linear" x1="58.5" y1="181" x2="58.5" y2="184" gradientUnits="userSpaceOnUse">
<stop stop-color="#FEE5A5"/>
<stop offset="1" stop-color="#FEA5A5"/>
</linearGradient>
<linearGradient id="paint2_linear" x1="219.75" y1="87" x2="219.75" y2="88.5" gradientUnits="userSpaceOnUse">
<stop stop-color="#FEE5A5"/>
<stop offset="1" stop-color="#FEA5A5"/>
</linearGradient>
<linearGradient id="paint3_linear" x1="1099" y1="21" x2="1099" y2="23" gradientUnits="userSpaceOnUse">
<stop stop-color="#FEE5A5"/>
<stop offset="1" stop-color="#FEA5A5"/>
</linearGradient>
<linearGradient id="paint4_linear" x1="1387.75" y1="151" x2="1387.75" y2="152.5" gradientUnits="userSpaceOnUse">
<stop stop-color="#FEE5A5"/>
<stop offset="1" stop-color="#FEA5A5"/>
</linearGradient>
</defs>
</svg>
